SolveigDemiBold-Italic.ufo
<glyph name="exclam" format="1">
  <advance width="205"/>
  <unicode hex="0021"/>
  <outline>
    <contour>
      <point x="130" y="147" type="curve"/>
      <point x="94" y="143" type="line"/>
      <point x="112" y="283"/>
      <point x="130" y="530"/>
      <point x="130" y="578" type="curve"/>
      <point x="156" y="579"/>
      <point x="204" y="583"/>
      <point x="234" y="588" type="curve"/>
      <point x="207" y="505"/>
      <point x="143" y="218"/>
    </contour>
    <contour>
      <point x="96" y="77" type="curve" smooth="yes"/>
      <point x="129" y="77"/>
      <point x="146" y="62"/>
      <point x="146" y="39" type="curve" smooth="yes"/>
      <point x="146" y="10"/>
      <point x="110" y="-7"/>
      <point x="78" y="-7" type="curve" smooth="yes"/>
      <point x="54" y="-7"/>
      <point x="35" y="7"/>
      <point x="35" y="27" type="curve" smooth="yes"/>
      <point x="35" y="54"/>
      <point x="65" y="77"/>
    </contour>
  </outline>
</glyph>
<glyph name="quotedbl" format="1">
  <advance width="324"/>
  <unicode hex="0022"/>
  <outline>
    <contour>
      <point x="122" y="350" type="curve"/>
      <point x="85" y="348" type="line"/>
      <point x="94" y="424"/>
      <point x="97" y="549"/>
      <point x="92" y="579" type="curve"/>
      <point x="119" y="579"/>
      <point x="166" y="582"/>
      <point x="196" y="588" type="curve"/>
      <point x="176" y="543"/>
      <point x="131" y="393"/>
    </contour>
    <contour>
      <point x="272" y="350" type="curve"/>
      <point x="235" y="348" type="line"/>
      <point x="244" y="424"/>
      <point x="247" y="549"/>
      <point x="242" y="579" type="curve"/>
      <point x="269" y="579"/>
      <point x="316" y="582"/>
      <point x="346" y="588" type="curve"/>
      <point x="326" y="543"/>
      <point x="280" y="393"/>
    </contour>
  </outline>
</glyph>
<glyph name="numbersign" format="1">
  <advance width="385"/>
  <unicode hex="0023"/>
  <outline>
    <contour>
      <point x="338" y="582" type="curve"/>
      <point x="329" y="524"/>
      <point x="320" y="473"/>
      <point x="312" y="424" type="curve"/>
      <point x="337" y="424"/>
      <point x="365" y="425"/>
      <point x="384" y="425" type="curve"/>
      <point x="383" y="414"/>
      <point x="377" y="397"/>
      <point x="371" y="387" type="curve"/>
      <point x="349" y="387"/>
      <point x="328" y="387"/>
      <point x="307" y="388" type="curve"/>
      <point x="296" y="325"/>
      <point x="288" y="273"/>
      <point x="278" y="210" type="curve"/>
      <point x="303" y="210"/>
      <point x="331" y="211"/>
      <point x="350" y="211" type="curve"/>
      <point x="349" y="200"/>
      <point x="345" y="181"/>
      <point x="339" y="171" type="curve"/>
      <point x="316" y="171"/>
      <point x="295" y="172"/>
      <point x="273" y="173" type="curve"/>
      <point x="248" y="2" type="line"/>
      <point x="236" y="-2"/>
      <point x="218" y="-6"/>
      <point x="207" y="-3" type="curve"/>
      <point x="217" y="62"/>
      <point x="226" y="119"/>
      <point x="236" y="173" type="curve"/>
      <point x="197" y="174"/>
      <point x="173" y="174"/>
      <point x="131" y="174" type="curve"/>
      <point x="122" y="120"/>
      <point x="115" y="67"/>
      <point x="106" y="2" type="curve"/>
      <point x="94" y="-2"/>
      <point x="76" y="-6"/>
      <point x="65" y="-3" type="curve"/>
      <point x="93" y="174" type="line"/>
      <point x="26" y="174" type="line"/>
      <point x="24" y="182"/>
      <point x="31" y="207"/>
      <point x="35" y="213" type="curve"/>
      <point x="99" y="211" type="line"/>
      <point x="127" y="389" type="line"/>
      <point x="59" y="389" type="line"/>
      <point x="56" y="397"/>
      <point x="65" y="421"/>
      <point x="68" y="427" type="curve"/>
      <point x="133" y="425" type="line"/>
      <point x="156" y="581" type="line"/>
      <point x="166" y="584"/>
      <point x="191" y="584"/>
      <point x="196" y="582" type="curve"/>
      <point x="186" y="524"/>
      <point x="178" y="474"/>
      <point x="171" y="425" type="curve"/>
      <point x="212" y="424"/>
      <point x="236" y="424"/>
      <point x="275" y="424" type="curve"/>
      <point x="299" y="581" type="line"/>
      <point x="308" y="584"/>
      <point x="333" y="584"/>
    </contour>
    <contour>
      <point x="164" y="389" type="curve"/>
      <point x="136" y="211" type="line"/>
      <point x="179" y="210"/>
      <point x="201" y="210"/>
      <point x="241" y="210" type="curve"/>
      <point x="269" y="388" type="line"/>
      <point x="232" y="389"/>
      <point x="207" y="389"/>
    </contour>
  </outline>
</glyph>
<glyph name="ampersand" format="1">
  <advance width="664"/>
  <unicode hex="0026"/>
  <outline>
    <contour>
      <point x="386" y="597" type="curve"/>
      <point x="395" y="593"/>
      <point x="405" y="582"/>
      <point x="409" y="574" type="curve"/>
      <point x="349" y="524"/>
      <point x="318" y="484"/>
      <point x="318" y="419" type="curve" smooth="yes"/>
      <point x="318" y="346"/>
      <point x="369" y="230"/>
      <point x="414" y="167" type="curve"/>
      <point x="457" y="200"/>
      <point x="504" y="241"/>
      <point x="519" y="261" type="curve"/>
      <point x="554" y="268"/>
      <point x="602" y="275"/>
      <point x="646" y="286" type="curve"/>
      <point x="644" y="280" type="line"/>
      <point x="590" y="244"/>
      <point x="513" y="186"/>
      <point x="435" y="135" type="curve"/>
      <point x="463" y="95"/>
      <point x="514" y="40"/>
      <point x="588" y="4" type="curve"/>
      <point x="589" y="0" type="line"/>
      <point x="546" y="2"/>
      <point x="471" y="2"/>
      <point x="429" y="0" type="curve"/>
      <point x="404" y="23"/>
      <point x="373" y="65"/>
      <point x="359" y="88" type="curve"/>
      <point x="287" y="44"/>
      <point x="191" y="-6"/>
      <point x="130" y="-6" type="curve" smooth="yes"/>
      <point x="77" y="-6"/>
      <point x="7" y="63"/>
      <point x="30" y="170" type="curve" smooth="yes"/>
      <point x="52" y="273"/>
      <point x="147" y="315"/>
      <point x="238" y="361" type="curve"/>
      <point x="231" y="390"/>
      <point x="231" y="403"/>
      <point x="231" y="431" type="curve" smooth="yes"/>
      <point x="231" y="484"/>
      <point x="334" y="565"/>
    </contour>
    <contour>
      <point x="248" y="324" type="curve"/>
      <point x="166" y="283"/>
      <point x="127" y="253"/>
      <point x="112" y="197" type="curve" smooth="yes"/>
      <point x="93" y="129"/>
      <point x="132" y="64"/>
      <point x="194" y="64" type="curve" smooth="yes"/>
      <point x="225" y="64"/>
      <point x="269" y="79"/>
      <point x="339" y="121" type="curve"/>
      <point x="318" y="151"/>
      <point x="270" y="241"/>
    </contour>
  </outline>
</glyph>
<glyph name="parenleft" format="1">
  <advance width="248"/>
  <unicode hex="0028"/>
  <outline>
    <contour>
      <point x="237" y="616" type="curve"/>
      <point x="247" y="617"/>
      <point x="259" y="613"/>
      <point x="266" y="608" type="curve"/>
      <point x="217" y="511"/>
      <point x="182" y="444"/>
      <point x="158" y="304" type="curve" smooth="yes"/>
      <point x="141" y="206"/>
      <point x="141" y="40"/>
      <point x="157" y="-89" type="curve"/>
      <point x="149" y="-94"/>
      <point x="139" y="-97"/>
      <point x="126" y="-97" type="curve"/>
      <point x="94" y="20"/>
      <point x="57" y="192"/>
      <point x="71" y="306" type="curve" smooth="yes"/>
      <point x="83" y="405"/>
      <point x="152" y="506"/>
    </contour>
  </outline>
</glyph>
<glyph name="parenright" format="1">
  <advance width="248"/>
  <unicode hex="0029"/>
  <outline>
    <contour>
      <point x="25" y="-97" type="curve"/>
      <point x="15" y="-97"/>
      <point x="0" y="-93"/>
      <point x="-7" y="-88" type="curve"/>
      <point x="57" y="50"/>
      <point x="92" y="158"/>
      <point x="117" y="299" type="curve"/>
      <point x="133" y="396"/>
      <point x="124" y="504"/>
      <point x="102" y="608" type="curve"/>
      <point x="111" y="613"/>
      <point x="122" y="616"/>
      <point x="134" y="616" type="curve"/>
      <point x="174" y="517"/>
      <point x="218" y="395"/>
      <point x="205" y="297" type="curve" smooth="yes"/>
      <point x="192" y="191"/>
      <point x="133" y="71"/>
    </contour>
  </outline>
</glyph>
<glyph name="comma" format="1">
  <advance width="209"/>
  <unicode hex="002C"/>
  <outline>
    <contour>
      <point x="90" y="94" type="curve" smooth="yes"/>
      <point x="109" y="94"/>
      <point x="132" y="81"/>
      <point x="132" y="42" type="curve" smooth="yes"/>
      <point x="132" y="-13"/>
      <point x="25" y="-152"/>
      <point x="5" y="-178" type="curve"/>
      <point x="-2" y="-176"/>
      <point x="-17" y="-167"/>
      <point x="-23" y="-158" type="curve"/>
      <point x="20" y="-100"/>
      <point x="44" y="-62"/>
      <point x="41" y="-5" type="curve" smooth="yes"/>
      <point x="41" y="7"/>
      <point x="35" y="33"/>
      <point x="35" y="42" type="curve" smooth="yes"/>
      <point x="35" y="66"/>
      <point x="54" y="94"/>
    </contour>
  </outline>
</glyph>
<glyph name="period" format="1">
  <advance width="211"/>
  <unicode hex="002E"/>
  <outline>
    <contour>
      <point x="92" y="77" type="curve" smooth="yes"/>
      <point x="125" y="77"/>
      <point x="142" y="62"/>
      <point x="142" y="39" type="curve" smooth="yes"/>
      <point x="142" y="10"/>
      <point x="106" y="-7"/>
      <point x="74" y="-7" type="curve" smooth="yes"/>
      <point x="50" y="-7"/>
      <point x="31" y="7"/>
      <point x="31" y="27" type="curve" smooth="yes"/>
      <point x="31" y="54"/>
      <point x="61" y="77"/>
    </contour>
  </outline>
</glyph>
<glyph name="slash" format="1">
  <advance width="297"/>
  <unicode hex="002F"/>
  <outline>
    <contour>
      <point x="309" y="598" type="curve"/>
      <point x="219" y="390"/>
      <point x="121" y="158"/>
      <point x="35" y="-50" type="curve"/>
      <point x="24" y="-49"/>
      <point x="3" y="-50"/>
      <point x="-7" y="-43" type="curve"/>
      <point x="82" y="164"/>
      <point x="182" y="397"/>
      <point x="269" y="605" type="curve"/>
      <point x="278" y="605"/>
      <point x="304" y="602"/>
    </contour>
  </outline>
</glyph>
<glyph name="zero" format="1">
  <advance width="469"/>
  <unicode hex="0030"/>
  <outline>
    <contour>
      <point x="325" y="592" type="curve" smooth="yes"/>
      <point x="377" y="592"/>
      <point x="456" y="558"/>
      <point x="446" y="357" type="curve"/>
      <point x="443" y="270"/>
      <point x="417" y="154"/>
      <point x="333" y="57" type="curve" smooth="yes"/>
      <point x="317" y="37"/>
      <point x="239" y="-12"/>
      <point x="186" y="-12" type="curve" smooth="yes"/>
      <point x="47" y="-12"/>
      <point x="30" y="127"/>
      <point x="37" y="215" type="curve" smooth="yes"/>
      <point x="50" y="376"/>
      <point x="102" y="474"/>
      <point x="170" y="534" type="curve" smooth="yes"/>
      <point x="212" y="572"/>
      <point x="280" y="592"/>
    </contour>
    <contour>
      <point x="289" y="542" type="curve" smooth="yes"/>
      <point x="226" y="542"/>
      <point x="135" y="434"/>
      <point x="125" y="220" type="curve" smooth="yes"/>
      <point x="120" y="115"/>
      <point x="149" y="42"/>
      <point x="216" y="42" type="curve" smooth="yes"/>
      <point x="308" y="42"/>
      <point x="354" y="239"/>
      <point x="357" y="335" type="curve"/>
      <point x="365" y="517"/>
      <point x="324" y="542"/>
    </contour>
  </outline>
</glyph>
<glyph name="one" format="1">
  <advance width="345"/>
  <unicode hex="0031"/>
  <outline>
    <contour>
      <point x="106" y="-7" type="curve"/>
      <point x="157" y="147"/>
      <point x="199" y="388"/>
      <point x="216" y="505" type="curve"/>
      <point x="167" y="502"/>
      <point x="131" y="494"/>
      <point x="84" y="481" type="curve"/>
      <point x="80" y="486"/>
      <point x="77" y="511"/>
      <point x="77" y="519" type="curve"/>
      <point x="122" y="529"/>
      <point x="248" y="568"/>
      <point x="310" y="593" type="curve"/>
      <point x="320" y="590"/>
      <point x="318" y="590"/>
      <point x="328" y="581" type="curve"/>
      <point x="293" y="477"/>
      <point x="243" y="210"/>
      <point x="230" y="3" type="curve"/>
      <point x="191" y="3"/>
      <point x="145" y="0"/>
    </contour>
  </outline>
</glyph>
<glyph name="two" format="1">
  <advance width="414"/>
  <unicode hex="0032"/>
  <outline>
    <contour>
      <point x="93" y="552" type="curve"/>
      <point x="155" y="573"/>
      <point x="233" y="591"/>
      <point x="283" y="591" type="curve"/>
      <point x="344" y="593"/>
      <point x="399" y="560"/>
      <point x="399" y="492" type="curve" smooth="yes"/>
      <point x="399" y="400"/>
      <point x="265" y="232"/>
      <point x="130" y="107" type="curve"/>
      <point x="195" y="85"/>
      <point x="318" y="74"/>
      <point x="382" y="85" type="curve"/>
      <point x="367" y="53"/>
      <point x="355" y="10"/>
      <point x="354" y="-9" type="curve"/>
      <point x="256" y="-12"/>
      <point x="146" y="7"/>
      <point x="74" y="38" type="curve"/>
      <point x="42" y="18"/>
      <point x="20" y="3"/>
      <point x="-5" y="-17" type="curve"/>
      <point x="-13" y="-15"/>
      <point x="-28" y="-4"/>
      <point x="-34" y="3" type="curve"/>
      <point x="20" y="49"/>
      <point x="84" y="109"/>
      <point x="144" y="178" type="curve" smooth="yes"/>
      <point x="228" y="275"/>
      <point x="305" y="382"/>
      <point x="305" y="479" type="curve" smooth="yes"/>
      <point x="305" y="515"/>
      <point x="280" y="536"/>
      <point x="228" y="536" type="curve" smooth="yes"/>
      <point x="194" y="536"/>
      <point x="135" y="527"/>
      <point x="100" y="517" type="curve"/>
      <point x="94" y="524"/>
      <point x="93" y="543"/>
    </contour>
  </outline>
</glyph>
<glyph name="three" format="1">
  <advance width="386"/>
  <unicode hex="0033"/>
  <outline>
    <contour>
      <point x="80" y="560" type="curve"/>
      <point x="126" y="578"/>
      <point x="199" y="590"/>
      <point x="238" y="590" type="curve" smooth="yes"/>
      <point x="315" y="590"/>
      <point x="364" y="572"/>
      <point x="364" y="505" type="curve" smooth="yes"/>
      <point x="364" y="457"/>
      <point x="322" y="402"/>
      <point x="228" y="366" type="curve"/>
      <point x="318" y="366"/>
      <point x="355" y="328"/>
      <point x="355" y="254" type="curve" smooth="yes"/>
      <point x="355" y="142"/>
      <point x="188" y="22"/>
      <point x="5" y="-28" type="curve"/>
      <point x="-5" y="-18"/>
      <point x="-13" y="-7"/>
      <point x="-20" y="3" type="curve"/>
      <point x="104" y="30"/>
      <point x="262" y="155"/>
      <point x="262" y="245" type="curve" smooth="yes"/>
      <point x="262" y="296"/>
      <point x="239" y="331"/>
      <point x="175" y="331" type="curve" smooth="yes"/>
      <point x="148" y="331"/>
      <point x="138" y="328"/>
      <point x="125" y="326" type="curve"/>
      <point x="121" y="333"/>
      <point x="117" y="357"/>
      <point x="119" y="364" type="curve"/>
      <point x="223" y="387"/>
      <point x="271" y="436"/>
      <point x="271" y="492" type="curve" smooth="yes"/>
      <point x="271" y="525"/>
      <point x="248" y="542"/>
      <point x="202" y="542" type="curve" smooth="yes"/>
      <point x="171" y="542"/>
      <point x="122" y="534"/>
      <point x="92" y="526" type="curve"/>
      <point x="87" y="533"/>
      <point x="81" y="552"/>
    </contour>
  </outline>
</glyph>
<glyph name="four" format="1">
  <advance width="428"/>
  <unicode hex="0034"/>
  <outline>
    <contour>
      <point x="212" y="-2" type="curve"/>
      <point x="231" y="43"/>
      <point x="245" y="118"/>
      <point x="258" y="190" type="curve"/>
      <point x="180" y="192"/>
      <point x="82" y="193"/>
      <point x="23" y="191" type="curve"/>
      <point x="17" y="195"/>
      <point x="14" y="211"/>
      <point x="13" y="220" type="curve"/>
      <point x="105" y="324"/>
      <point x="269" y="520"/>
      <point x="339" y="605" type="curve"/>
      <point x="349" y="602"/>
      <point x="364" y="587"/>
      <point x="369" y="578" type="curve"/>
      <point x="281" y="474"/>
      <point x="171" y="343"/>
      <point x="90" y="236" type="curve"/>
      <point x="153" y="233"/>
      <point x="213" y="234"/>
      <point x="264" y="233" type="curve"/>
      <point x="270" y="261"/>
      <point x="283" y="317"/>
      <point x="284" y="369" type="curve"/>
      <point x="310" y="372"/>
      <point x="360" y="380"/>
      <point x="393" y="393" type="curve"/>
      <point x="378" y="355"/>
      <point x="371" y="334"/>
      <point x="353" y="234" type="curve"/>
      <point x="367" y="234"/>
      <point x="380" y="235"/>
      <point x="399" y="236" type="curve"/>
      <point x="397" y="221"/>
      <point x="392" y="199"/>
      <point x="386" y="186" type="curve"/>
      <point x="362" y="187"/>
      <point x="355" y="188"/>
      <point x="345" y="188" type="curve"/>
      <point x="338" y="154"/>
      <point x="322" y="50"/>
      <point x="321" y="-1" type="curve"/>
      <point x="297" y="2"/>
      <point x="243" y="6"/>
    </contour>
  </outline>
</glyph>
<glyph name="five" format="1">
  <advance width="356"/>
  <unicode hex="0035"/>
  <outline>
    <contour>
      <point x="126" y="585" type="curve"/>
      <point x="131" y="588"/>
      <point x="156" y="588"/>
      <point x="166" y="586" type="curve"/>
      <point x="162" y="578"/>
      <point x="159" y="568"/>
      <point x="156" y="560" type="curve"/>
      <point x="243" y="554"/>
      <point x="305" y="574"/>
      <point x="362" y="591" type="curve"/>
      <point x="342" y="562"/>
      <point x="316" y="505"/>
      <point x="309" y="492" type="curve"/>
      <point x="277" y="485"/>
      <point x="188" y="484"/>
      <point x="139" y="490" type="curve"/>
      <point x="132" y="470"/>
      <point x="123" y="439"/>
      <point x="118" y="421" type="curve"/>
      <point x="233" y="407"/>
      <point x="326" y="363"/>
      <point x="326" y="265" type="curve" smooth="yes"/>
      <point x="326" y="129"/>
      <point x="166" y="20"/>
      <point x="58" y="-25" type="curve"/>
      <point x="51" y="-20"/>
      <point x="39" y="-5"/>
      <point x="35" y="6" type="curve"/>
      <point x="114" y="36"/>
      <point x="240" y="130"/>
      <point x="240" y="250" type="curve" smooth="yes"/>
      <point x="240" y="344"/>
      <point x="94" y="362"/>
      <point x="52" y="362" type="curve"/>
      <point x="80" y="417"/>
      <point x="117" y="539"/>
    </contour>
  </outline>
</glyph>
<glyph name="six" format="1">
  <advance width="438"/>
  <unicode hex="0036"/>
  <outline>
    <contour>
      <point x="347" y="595" type="curve"/>
      <point x="355" y="592"/>
      <point x="373" y="576"/>
      <point x="376" y="569" type="curve"/>
      <point x="295" y="510"/>
      <point x="119" y="340"/>
      <point x="119" y="156" type="curve" smooth="yes"/>
      <point x="119" y="97"/>
      <point x="141" y="36"/>
      <point x="207" y="36" type="curve" smooth="yes"/>
      <point x="282" y="36"/>
      <point x="311" y="98"/>
      <point x="311" y="157" type="curve" smooth="yes"/>
      <point x="311" y="211"/>
      <point x="284" y="236"/>
      <point x="253" y="236" type="curve" smooth="yes"/>
      <point x="232" y="236"/>
      <point x="216" y="233"/>
      <point x="192" y="227" type="curve"/>
      <point x="187" y="234"/>
      <point x="183" y="253"/>
      <point x="182" y="262" type="curve"/>
      <point x="221" y="277"/>
      <point x="256" y="284"/>
      <point x="284" y="284" type="curve" smooth="yes"/>
      <point x="370" y="284"/>
      <point x="400" y="236"/>
      <point x="400" y="176" type="curve" smooth="yes"/>
      <point x="400" y="62"/>
      <point x="280" y="-17"/>
      <point x="185" y="-17" type="curve" smooth="yes"/>
      <point x="84" y="-17"/>
      <point x="26" y="36"/>
      <point x="26" y="149" type="curve" smooth="yes"/>
      <point x="26" y="311"/>
      <point x="239" y="521"/>
    </contour>
  </outline>
</glyph>
<glyph name="seven" format="1">
  <advance width="416"/>
  <unicode hex="0037"/>
  <outline>
    <contour>
      <point x="50" y="-27" type="curve"/>
      <point x="146" y="175"/>
      <point x="225" y="318"/>
      <point x="346" y="474" type="curve"/>
      <point x="275" y="474"/>
      <point x="139" y="477"/>
      <point x="57" y="482" type="curve"/>
      <point x="68" y="501"/>
      <point x="92" y="561"/>
      <point x="95" y="593" type="curve"/>
      <point x="186" y="567"/>
      <point x="262" y="555"/>
      <point x="390" y="545" type="curve"/>
      <point x="417" y="568"/>
      <point x="425" y="578"/>
      <point x="442" y="597" type="curve"/>
      <point x="449" y="597"/>
      <point x="467" y="589"/>
      <point x="474" y="585" type="curve"/>
      <point x="372" y="462"/>
      <point x="199" y="196"/>
      <point x="156" y="12" type="curve"/>
      <point x="139" y="7"/>
      <point x="70" y="-10"/>
    </contour>
  </outline>
</glyph>
<glyph name="eight" format="1">
  <advance width="454"/>
  <unicode hex="0038"/>
  <outline>
    <contour>
      <point x="348" y="579" type="curve"/>
      <point x="346" y="571"/>
      <point x="342" y="553"/>
      <point x="338" y="544" type="curve"/>
      <point x="263" y="566"/>
      <point x="181" y="533"/>
      <point x="181" y="469" type="curve" smooth="yes"/>
      <point x="181" y="442"/>
      <point x="195" y="421"/>
      <point x="266" y="392" type="curve"/>
      <point x="350" y="454"/>
      <point x="395" y="520"/>
      <point x="427" y="604" type="curve"/>
      <point x="436" y="607"/>
      <point x="454" y="606"/>
      <point x="459" y="603" type="curve"/>
      <point x="433" y="481"/>
      <point x="409" y="452"/>
      <point x="304" y="372" type="curve"/>
      <point x="352" y="352"/>
      <point x="413" y="306"/>
      <point x="413" y="223" type="curve" smooth="yes"/>
      <point x="413" y="106"/>
      <point x="305" y="-11"/>
      <point x="182" y="-11" type="curve" smooth="yes"/>
      <point x="78" y="-11"/>
      <point x="27" y="57"/>
      <point x="27" y="126" type="curve" smooth="yes"/>
      <point x="27" y="220"/>
      <point x="93" y="285"/>
      <point x="188" y="335" type="curve"/>
      <point x="141" y="362"/>
      <point x="116" y="392"/>
      <point x="116" y="447" type="curve" smooth="yes"/>
      <point x="116" y="522"/>
      <point x="208" y="588"/>
      <point x="287" y="588" type="curve" smooth="yes"/>
      <point x="305" y="588"/>
      <point x="332" y="583"/>
    </contour>
    <contour>
      <point x="224" y="315" type="curve"/>
      <point x="136" y="266"/>
      <point x="113" y="206"/>
      <point x="113" y="146" type="curve"/>
      <point x="114" y="92"/>
      <point x="144" y="39"/>
      <point x="200" y="39" type="curve" smooth="yes"/>
      <point x="297" y="39"/>
      <point x="336" y="119"/>
      <point x="336" y="186" type="curve" smooth="yes"/>
      <point x="336" y="244"/>
      <point x="301" y="278"/>
    </contour>
  </outline>
</glyph>
<glyph name="nine" format="1">
  <advance width="438"/>
  <unicode hex="0039"/>
  <outline>
    <contour>
      <point x="110" y="-21" type="curve"/>
      <point x="102" y="-18"/>
      <point x="86" y="-1"/>
      <point x="82" y="5" type="curve"/>
      <point x="151" y="55"/>
      <point x="339" y="234"/>
      <point x="339" y="418" type="curve" smooth="yes"/>
      <point x="339" y="520"/>
      <point x="285" y="541"/>
      <point x="251" y="541" type="curve" smooth="yes"/>
      <point x="194" y="541"/>
      <point x="146" y="492"/>
      <point x="146" y="417" type="curve" smooth="yes"/>
      <point x="146" y="367"/>
      <point x="174" y="340"/>
      <point x="203" y="340" type="curve" smooth="yes"/>
      <point x="228" y="340"/>
      <point x="240" y="342"/>
      <point x="262" y="347" type="curve"/>
      <point x="267" y="340"/>
      <point x="272" y="321"/>
      <point x="273" y="312" type="curve"/>
      <point x="232" y="297"/>
      <point x="198" y="290"/>
      <point x="169" y="290" type="curve" smooth="yes"/>
      <point x="79" y="290"/>
      <point x="59" y="359"/>
      <point x="59" y="399" type="curve" smooth="yes"/>
      <point x="59" y="512"/>
      <point x="177" y="592"/>
      <point x="273" y="592" type="curve" smooth="yes"/>
      <point x="368" y="592"/>
      <point x="434" y="551"/>
      <point x="434" y="425" type="curve" smooth="yes"/>
      <point x="434" y="265"/>
      <point x="228" y="62"/>
    </contour>
  </outline>
</glyph>
<glyph name="colon" format="1">
  <advance width="221"/>
  <unicode hex="003A"/>
  <outline>
    <contour>
      <point x="92" y="77" type="curve" smooth="yes"/>
      <point x="125" y="77"/>
      <point x="142" y="62"/>
      <point x="142" y="39" type="curve" smooth="yes"/>
      <point x="142" y="10"/>
      <point x="106" y="-7"/>
      <point x="74" y="-7" type="curve" smooth="yes"/>
      <point x="50" y="-7"/>
      <point x="31" y="7"/>
      <point x="31" y="27" type="curve" smooth="yes"/>
      <point x="31" y="54"/>
      <point x="61" y="77"/>
    </contour>
    <contour>
      <point x="141" y="347" type="curve" smooth="yes"/>
      <point x="174" y="347"/>
      <point x="191" y="332"/>
      <point x="191" y="309" type="curve" smooth="yes"/>
      <point x="191" y="280"/>
      <point x="155" y="263"/>
      <point x="123" y="263" type="curve" smooth="yes"/>
      <point x="99" y="263"/>
      <point x="80" y="277"/>
      <point x="80" y="297" type="curve" smooth="yes"/>
      <point x="80" y="324"/>
      <point x="110" y="347"/>
    </contour>
  </outline>
</glyph>
<glyph name="semicolon" format="1">
  <advance width="221"/>
  <unicode hex="003B"/>
  <outline>
    <contour>
      <point x="141" y="347" type="curve" smooth="yes"/>
      <point x="174" y="347"/>
      <point x="191" y="332"/>
      <point x="191" y="309" type="curve" smooth="yes"/>
      <point x="191" y="280"/>
      <point x="155" y="263"/>
      <point x="123" y="263" type="curve" smooth="yes"/>
      <point x="99" y="263"/>
      <point x="80" y="277"/>
      <point x="80" y="297" type="curve" smooth="yes"/>
      <point x="80" y="324"/>
      <point x="110" y="347"/>
    </contour>
    <contour>
      <point x="102" y="94" type="curve" smooth="yes"/>
      <point x="121" y="94"/>
      <point x="144" y="81"/>
      <point x="144" y="42" type="curve" smooth="yes"/>
      <point x="144" y="-13"/>
      <point x="37" y="-152"/>
      <point x="17" y="-178" type="curve"/>
      <point x="10" y="-176"/>
      <point x="-5" y="-167"/>
      <point x="-11" y="-158" type="curve"/>
      <point x="32" y="-100"/>
      <point x="56" y="-62"/>
      <point x="53" y="-5" type="curve" smooth="yes"/>
      <point x="53" y="7"/>
      <point x="47" y="33"/>
      <point x="47" y="42" type="curve" smooth="yes"/>
      <point x="47" y="66"/>
      <point x="66" y="94"/>
    </contour>
  </outline>
</glyph>
<glyph name="question" format="1">
  <advance width="256"/>
  <unicode hex="003F"/>
  <outline>
    <contour>
      <point x="105" y="144" type="curve"/>
      <point x="82" y="188"/>
      <point x="67" y="221"/>
      <point x="68" y="259" type="curve"/>
      <point x="68" y="312"/>
      <point x="158" y="368"/>
      <point x="160" y="428" type="curve" smooth="yes"/>
      <point x="162" y="473"/>
      <point x="147" y="511"/>
      <point x="117" y="580" type="curve"/>
      <point x="125" y="587"/>
      <point x="142" y="594"/>
      <point x="151" y="595" type="curve"/>
      <point x="200" y="527"/>
      <point x="244" y="444"/>
      <point x="243" y="404" type="curve" smooth="yes"/>
      <point x="241" y="328"/>
      <point x="129" y="282"/>
      <point x="129" y="203" type="curve" smooth="yes"/>
      <point x="129" y="182"/>
      <point x="132" y="169"/>
      <point x="136" y="156" type="curve"/>
      <point x="128" y="151"/>
      <point x="115" y="144"/>
    </contour>
    <contour>
      <point x="100" y="77" type="curve" smooth="yes"/>
      <point x="133" y="77"/>
      <point x="150" y="62"/>
      <point x="150" y="39" type="curve" smooth="yes"/>
      <point x="150" y="10"/>
      <point x="114" y="-7"/>
      <point x="82" y="-7" type="curve" smooth="yes"/>
      <point x="58" y="-7"/>
      <point x="39" y="7"/>
      <point x="39" y="27" type="curve" smooth="yes"/>
      <point x="39" y="54"/>
      <point x="69" y="77"/>
    </contour>
  </outline>
</glyph>
<glyph name="at" format="1">
  <advance width="725"/>
  <unicode hex="0040"/>
  <outline>
    <contour>
      <point x="402" y="144" type="curve"/>
      <point x="340" y="89"/>
      <point x="295" y="52"/>
      <point x="212" y="-12" type="curve"/>
      <point x="189" y="8"/>
      <point x="169" y="60"/>
      <point x="169" y="107" type="curve" smooth="yes"/>
      <point x="169" y="256"/>
      <point x="302" y="387"/>
      <point x="425" y="391" type="curve" smooth="yes"/>
      <point x="469" y="392"/>
      <point x="521" y="391"/>
      <point x="556" y="389" type="curve"/>
      <point x="536" y="367"/>
      <point x="510" y="269"/>
      <point x="492" y="174" type="curve" smooth="yes"/>
      <point x="486" y="137"/>
      <point x="479" y="101"/>
      <point x="499" y="68" type="curve"/>
      <point x="585" y="130"/>
      <point x="659" y="209"/>
      <point x="659" y="341" type="curve" smooth="yes"/>
      <point x="659" y="474"/>
      <point x="561" y="522"/>
      <point x="464" y="522" type="curve" smooth="yes"/>
      <point x="270" y="522"/>
      <point x="74" y="358"/>
      <point x="74" y="117" type="curve" smooth="yes"/>
      <point x="74" y="-49"/>
      <point x="152" y="-140"/>
      <point x="302" y="-140" type="curve" smooth="yes"/>
      <point x="340" y="-140"/>
      <point x="424" y="-121"/>
      <point x="448" y="-113" type="curve"/>
      <point x="459" y="-146" type="line"/>
      <point x="424" y="-158"/>
      <point x="333" y="-180"/>
      <point x="295" y="-180" type="curve" smooth="yes"/>
      <point x="114" y="-180"/>
      <point x="27" y="-63"/>
      <point x="27" y="113" type="curve" smooth="yes"/>
      <point x="27" y="382"/>
      <point x="261" y="558"/>
      <point x="469" y="558" type="curve" smooth="yes"/>
      <point x="577" y="558"/>
      <point x="702" y="505"/>
      <point x="702" y="344" type="curve" smooth="yes"/>
      <point x="702" y="206"/>
      <point x="616" y="82"/>
      <point x="446" y="-13" type="curve"/>
      <point x="409" y="10"/>
      <point x="394" y="41"/>
      <point x="394" y="89" type="curve" smooth="yes"/>
      <point x="394" y="96"/>
      <point x="397" y="123"/>
    </contour>
    <contour>
      <point x="446" y="351" type="curve"/>
      <point x="439" y="352"/>
      <point x="431" y="352"/>
      <point x="424" y="352" type="curve" smooth="yes"/>
      <point x="320" y="351"/>
      <point x="254" y="240"/>
      <point x="254" y="158" type="curve" smooth="yes"/>
      <point x="254" y="132"/>
      <point x="257" y="105"/>
      <point x="268" y="87" type="curve"/>
      <point x="306" y="111"/>
      <point x="385" y="174"/>
      <point x="413" y="201" type="curve"/>
      <point x="421" y="226"/>
      <point x="445" y="320"/>
    </contour>
  </outline>
</glyph>
<glyph name="A" format="1">
  <advance width="542"/>
  <unicode hex="0041"/>
  <outline>
    <contour>
      <point x="344" y="-1" type="curve"/>
      <point x="351" y="22"/>
      <point x="344" y="130"/>
      <point x="335" y="220" type="curve"/>
      <point x="275" y="214"/>
      <point x="211" y="206"/>
      <point x="165" y="197" type="curve"/>
      <point x="130" y="132"/>
      <point x="99" y="63"/>
      <point x="82" y="6" type="curve"/>
      <point x="55" y="2"/>
      <point x="-5" y="-3"/>
      <point x="-28" y="-10" type="curve"/>
      <point x="38" y="59"/>
      <point x="331" y="567"/>
      <point x="324" y="578" type="curve"/>
      <point x="340" y="588"/>
      <point x="370" y="598"/>
      <point x="382" y="603" type="curve"/>
      <point x="390" y="460"/>
      <point x="430" y="103"/>
      <point x="479" y="-1" type="curve"/>
      <point x="419" y="5"/>
      <point x="375" y="1"/>
    </contour>
    <contour>
      <point x="331" y="256" type="curve"/>
      <point x="328" y="303"/>
      <point x="323" y="344"/>
      <point x="314" y="410" type="curve" smooth="yes"/>
      <point x="312" y="427"/>
      <point x="310" y="439"/>
      <point x="309" y="460" type="curve"/>
      <point x="261" y="380"/>
      <point x="231" y="325"/>
      <point x="186" y="242" type="curve"/>
      <point x="245" y="245"/>
      <point x="280" y="248"/>
    </contour>
  </outline>
</glyph>
<glyph name="B" format="1">
  <advance width="529"/>
  <unicode hex="0042"/>
  <outline>
    <contour>
      <point x="127" y="583" type="curve"/>
      <point x="194" y="578"/>
      <point x="295" y="588"/>
      <point x="367" y="583" type="curve"/>
      <point x="459" y="578"/>
      <point x="497" y="546"/>
      <point x="489" y="496" type="curve" smooth="yes"/>
      <point x="482" y="458"/>
      <point x="452" y="392"/>
      <point x="356" y="339" type="curve"/>
      <point x="357" y="336" type="line"/>
      <point x="454" y="339"/>
      <point x="504" y="310"/>
      <point x="504" y="240" type="curve" smooth="yes"/>
      <point x="504" y="141"/>
      <point x="361" y="7"/>
      <point x="179" y="-2" type="curve"/>
      <point x="144" y="-2"/>
      <point x="70" y="-4"/>
      <point x="32" y="-1" type="curve"/>
      <point x="57" y="75"/>
      <point x="127" y="502"/>
    </contour>
    <contour>
      <point x="215" y="540" type="curve"/>
      <point x="177" y="333"/>
      <point x="161" y="231"/>
      <point x="138" y="44" type="curve"/>
      <point x="148" y="42"/>
      <point x="178" y="42"/>
      <point x="190" y="42" type="curve" smooth="yes"/>
      <point x="242" y="42"/>
      <point x="383" y="79"/>
      <point x="402" y="222" type="curve"/>
      <point x="409" y="263"/>
      <point x="390" y="300"/>
      <point x="330" y="300" type="curve" smooth="yes"/>
      <point x="314" y="300"/>
      <point x="279" y="295"/>
      <point x="263" y="290" type="curve"/>
      <point x="260" y="295"/>
      <point x="256" y="314"/>
      <point x="256" y="323" type="curve"/>
      <point x="318" y="346"/>
      <point x="379" y="395"/>
      <point x="390" y="462" type="curve" smooth="yes"/>
      <point x="397" y="506"/>
      <point x="370" y="541"/>
      <point x="279" y="542" type="curve" smooth="yes"/>
      <point x="258" y="542"/>
      <point x="241" y="542"/>
    </contour>
  </outline>
</glyph>
<glyph name="C" format="1">
  <advance width="552"/>
  <unicode hex="0043"/>
  <outline>
    <contour>
      <point x="527" y="569" type="curve"/>
      <point x="526" y="557"/>
      <point x="519" y="539"/>
      <point x="515" y="531" type="curve"/>
      <point x="480" y="543"/>
      <point x="439" y="551"/>
      <point x="405" y="551" type="curve" smooth="yes"/>
      <point x="260" y="551"/>
      <point x="141" y="400"/>
      <point x="141" y="246" type="curve" smooth="yes"/>
      <point x="141" y="143"/>
      <point x="184" y="48"/>
      <point x="309" y="48" type="curve" smooth="yes"/>
      <point x="354" y="48"/>
      <point x="449" y="80"/>
      <point x="501" y="110" type="curve"/>
      <point x="509" y="105"/>
      <point x="515" y="83"/>
      <point x="516" y="76" type="curve"/>
      <point x="441" y="36"/>
      <point x="344" y="-10"/>
      <point x="260" y="-10" type="curve" smooth="yes"/>
      <point x="116" y="-10"/>
      <point x="46" y="115"/>
      <point x="46" y="221" type="curve" smooth="yes"/>
      <point x="46" y="429"/>
      <point x="239" y="594"/>
      <point x="392" y="594" type="curve"/>
      <point x="407" y="595"/>
      <point x="471" y="588"/>
    </contour>
  </outline>
</glyph>
<glyph name="D" format="1">
  <advance width="568"/>
  <unicode hex="0044"/>
  <outline>
    <contour>
      <point x="305" y="582" type="curve" smooth="yes"/>
      <point x="485" y="580"/>
      <point x="570" y="475"/>
      <point x="555" y="363" type="curve" smooth="yes"/>
      <point x="522" y="122"/>
      <point x="288" y="11"/>
      <point x="127" y="0" type="curve" smooth="yes"/>
      <point x="89" y="-2"/>
      <point x="64" y="-3"/>
      <point x="34" y="-2" type="curve"/>
      <point x="54" y="56"/>
      <point x="131" y="502"/>
      <point x="117" y="583" type="curve"/>
      <point x="157" y="581"/>
      <point x="277" y="582"/>
    </contour>
    <contour>
      <point x="217" y="543" type="curve"/>
      <point x="191" y="392"/>
      <point x="144" y="105"/>
      <point x="151" y="47" type="curve"/>
      <point x="338" y="65"/>
      <point x="439" y="188"/>
      <point x="457" y="343" type="curve" smooth="yes"/>
      <point x="469" y="440"/>
      <point x="428" y="529"/>
      <point x="302" y="541" type="curve" smooth="yes"/>
      <point x="267" y="544"/>
      <point x="241" y="545"/>
    </contour>
  </outline>
</glyph>
<glyph name="F" format="1">
  <advance width="448"/>
  <unicode hex="0046"/>
  <outline>
    <contour>
      <point x="489" y="584" type="curve"/>
      <point x="478" y="548" type="line"/>
      <point x="377" y="545"/>
      <point x="292" y="541"/>
      <point x="199" y="533" type="curve"/>
      <point x="193" y="509"/>
      <point x="180" y="424"/>
      <point x="171" y="350" type="curve"/>
      <point x="251" y="350"/>
      <point x="343" y="356"/>
      <point x="419" y="362" type="curve"/>
      <point x="412" y="325" type="line"/>
      <point x="388" y="325"/>
      <point x="231" y="313"/>
      <point x="162" y="303" type="curve"/>
      <point x="152" y="245"/>
      <point x="131" y="53"/>
      <point x="136" y="-2" type="curve"/>
      <point x="111" y="2"/>
      <point x="44" y="3"/>
      <point x="21" y="0" type="curve"/>
      <point x="43" y="57"/>
      <point x="111" y="494"/>
      <point x="106" y="583" type="curve"/>
      <point x="190" y="579"/>
      <point x="377" y="578"/>
    </contour>
  </outline>
</glyph>
<glyph name="H" format="1">
  <advance width="645"/>
  <unicode hex="0048"/>
  <outline>
    <contour>
      <point x="125" y="583" type="curve"/>
      <point x="142" y="582"/>
      <point x="216" y="580"/>
      <point x="237" y="583" type="curve"/>
      <point x="215" y="507"/>
      <point x="191" y="396"/>
      <point x="183" y="345" type="curve"/>
      <point x="259" y="345"/>
      <point x="424" y="355"/>
      <point x="507" y="360" type="curve"/>
      <point x="519" y="436"/>
      <point x="529" y="533"/>
      <point x="529" y="583" type="curve"/>
      <point x="555" y="580"/>
      <point x="618" y="579"/>
      <point x="643" y="583" type="curve"/>
      <point x="601" y="465"/>
      <point x="548" y="100"/>
      <point x="547" y="-2" type="curve"/>
      <point x="529" y="-1"/>
      <point x="460" y="1"/>
      <point x="439" y="-2" type="curve"/>
      <point x="458" y="69"/>
      <point x="487" y="256"/>
      <point x="499" y="325" type="curve"/>
      <point x="453" y="322"/>
      <point x="236" y="308"/>
      <point x="172" y="300" type="curve"/>
      <point x="161" y="241"/>
      <point x="138" y="62"/>
      <point x="137" y="-2" type="curve"/>
      <point x="112" y="1"/>
      <point x="54" y="3"/>
      <point x="29" y="0" type="curve"/>
      <point x="62" y="117"/>
      <point x="122" y="474"/>
    </contour>
  </outline>
</glyph>
<glyph name="I" format="1">
  <advance width="236"/>
  <unicode hex="0049"/>
  <outline>
    <contour>
      <point x="233" y="583" type="curve"/>
      <point x="191" y="465"/>
      <point x="139" y="100"/>
      <point x="137" y="-2" type="curve"/>
      <point x="120" y="-1"/>
      <point x="51" y="1"/>
      <point x="29" y="-2" type="curve"/>
      <point x="60" y="138"/>
      <point x="115" y="414"/>
      <point x="120" y="583" type="curve"/>
      <point x="146" y="580"/>
      <point x="208" y="579"/>
    </contour>
  </outline>
</glyph>
<glyph name="K" format="1">
  <advance width="584"/>
  <unicode hex="004B"/>
  <outline>
    <contour>
      <point x="20" y="-2" type="curve"/>
      <point x="68" y="118"/>
      <point x="124" y="525"/>
      <point x="114" y="585" type="curve"/>
      <point x="129" y="579"/>
      <point x="194" y="579"/>
      <point x="226" y="583" type="curve"/>
      <point x="208" y="530"/>
      <point x="191" y="430"/>
      <point x="186" y="385" type="curve"/>
      <point x="322" y="439"/>
      <point x="493" y="536"/>
      <point x="596" y="598" type="curve"/>
      <point x="588" y="581"/>
      <point x="565" y="522"/>
      <point x="561" y="503" type="curve"/>
      <point x="483" y="475"/>
      <point x="366" y="423"/>
      <point x="321" y="403" type="curve"/>
      <point x="349" y="340"/>
      <point x="476" y="100"/>
      <point x="560" y="-2" type="curve"/>
      <point x="526" y="2"/>
      <point x="464" y="2"/>
      <point x="425" y="-2" type="curve"/>
      <point x="391" y="84"/>
      <point x="294" y="280"/>
      <point x="244" y="370" type="curve"/>
      <point x="213" y="359"/>
      <point x="198" y="351"/>
      <point x="179" y="343" type="curve"/>
      <point x="171" y="312"/>
      <point x="139" y="88"/>
      <point x="143" y="-3" type="curve"/>
      <point x="112" y="3"/>
      <point x="48" y="3"/>
    </contour>
  </outline>
</glyph>
<glyph name="L" format="1">
  <advance width="443"/>
  <unicode hex="004C"/>
  <outline>
    <contour>
      <point x="143" y="583" type="curve"/>
      <point x="171" y="579"/>
      <point x="240" y="578"/>
      <point x="266" y="583" type="curve"/>
      <point x="237" y="525"/>
      <point x="154" y="112"/>
      <point x="155" y="48" type="curve"/>
      <point x="227" y="39"/>
      <point x="296" y="37"/>
      <point x="412" y="34" type="curve"/>
      <point x="403" y="-1" type="line"/>
      <point x="168" y="2"/>
      <point x="143" y="1"/>
      <point x="29" y="-2" type="curve"/>
      <point x="74" y="87"/>
      <point x="154" y="516"/>
    </contour>
  </outline>
</glyph>
<glyph name="M" format="1">
  <advance width="836"/>
  <unicode hex="004D"/>
  <outline>
    <contour>
      <point x="-32" y="-3" type="curve"/>
      <point x="20" y="62"/>
      <point x="146" y="310"/>
      <point x="217" y="452" type="curve" smooth="yes"/>
      <point x="232" y="483"/>
      <point x="261" y="554"/>
      <point x="266" y="583" type="curve"/>
      <point x="277" y="586"/>
      <point x="290" y="586"/>
      <point x="305" y="592" type="curve"/>
      <point x="317" y="482"/>
      <point x="344" y="351"/>
      <point x="370" y="241" type="curve" smooth="yes"/>
      <point x="380" y="201"/>
      <point x="386" y="169"/>
      <point x="392" y="137" type="curve"/>
      <point x="454" y="238"/>
      <point x="561" y="407"/>
      <point x="587" y="454" type="curve"/>
      <point x="613" y="506"/>
      <point x="638" y="555"/>
      <point x="644" y="582" type="curve"/>
      <point x="657" y="583"/>
      <point x="672" y="586"/>
      <point x="682" y="589" type="curve"/>
      <point x="689" y="439"/>
      <point x="739" y="166"/>
      <point x="776" y="-2" type="curve"/>
      <point x="750" y="3"/>
      <point x="683" y="1"/>
      <point x="663" y="-2" type="curve"/>
      <point x="645" y="176"/>
      <point x="628" y="280"/>
      <point x="608" y="405" type="curve"/>
      <point x="519" y="257"/>
      <point x="443" y="132"/>
      <point x="375" y="5" type="curve"/>
      <point x="365" y="-2"/>
      <point x="347" y="-11"/>
      <point x="330" y="-17" type="curve"/>
      <point x="299" y="156"/>
      <point x="285" y="226"/>
      <point x="263" y="320" type="curve"/>
      <point x="246" y="408" type="line"/>
      <point x="171" y="261"/>
      <point x="121" y="156"/>
      <point x="62" y="2" type="curve"/>
      <point x="35" y="0"/>
      <point x="-1" y="0"/>
    </contour>
  </outline>
</glyph>
<glyph name="P" format="1">
  <advance width="501"/>
  <unicode hex="0050"/>
  <outline>
    <contour>
      <point x="17" y="-1" type="curve"/>
      <point x="45" y="83"/>
      <point x="122" y="505"/>
      <point x="117" y="583" type="curve"/>
      <point x="154" y="579"/>
      <point x="216" y="583"/>
      <point x="295" y="583" type="curve" smooth="yes"/>
      <point x="400" y="583"/>
      <point x="521" y="591"/>
      <point x="519" y="489" type="curve" smooth="yes"/>
      <point x="518" y="388"/>
      <point x="395" y="299"/>
      <point x="239" y="261" type="curve"/>
      <point x="233" y="269"/>
      <point x="233" y="290"/>
      <point x="234" y="294" type="curve"/>
      <point x="356" y="335"/>
      <point x="419" y="400"/>
      <point x="419" y="472" type="curve" smooth="yes"/>
      <point x="419" y="526"/>
      <point x="370" y="539"/>
      <point x="306" y="541" type="curve" smooth="yes"/>
      <point x="259" y="543"/>
      <point x="225" y="537"/>
      <point x="206" y="534" type="curve"/>
      <point x="181" y="424"/>
      <point x="125" y="52"/>
      <point x="138" y="-1" type="curve"/>
      <point x="120" y="2"/>
      <point x="42" y="2"/>
    </contour>
  </outline>
</glyph>
<glyph name="Q" format="1">
  <advance width="659"/>
  <unicode hex="0051"/>
  <outline>
    <contour>
      <point x="411" y="593" type="curve" smooth="yes"/>
      <point x="509" y="593"/>
      <point x="633" y="509"/>
      <point x="633" y="361" type="curve" smooth="yes"/>
      <point x="633" y="256"/>
      <point x="598" y="154"/>
      <point x="540" y="93" type="curve" smooth="yes"/>
      <point x="497" y="47"/>
      <point x="434" y="18"/>
      <point x="378" y="2" type="curve"/>
      <point x="506" y="-12"/>
      <point x="586" y="-35"/>
      <point x="694" y="-72" type="curve"/>
      <point x="661" y="-82"/>
      <point x="605" y="-114"/>
      <point x="591" y="-130" type="curve"/>
      <point x="539" y="-93"/>
      <point x="396" y="-19"/>
      <point x="274" y="-12" type="curve" smooth="yes"/>
      <point x="134" y="-5"/>
      <point x="45" y="100"/>
      <point x="43" y="236" type="curve"/>
      <point x="45" y="335"/>
      <point x="92" y="454"/>
      <point x="182" y="519" type="curve" smooth="yes"/>
      <point x="223" y="548"/>
      <point x="322" y="593"/>
    </contour>
    <contour>
      <point x="315" y="37" type="curve" smooth="yes"/>
      <point x="408" y="37"/>
      <point x="540" y="100"/>
      <point x="540" y="349" type="curve" smooth="yes"/>
      <point x="540" y="455"/>
      <point x="487" y="542"/>
      <point x="371" y="542" type="curve" smooth="yes"/>
      <point x="242" y="542"/>
      <point x="136" y="429"/>
      <point x="136" y="241" type="curve" smooth="yes"/>
      <point x="136" y="132"/>
      <point x="192" y="37"/>
    </contour>
  </outline>
</glyph>
<glyph name="R" format="1">
  <advance width="570"/>
  <unicode hex="0052"/>
  <outline>
    <contour>
      <point x="280" y="582" type="curve" smooth="yes"/>
      <point x="440" y="584"/>
      <point x="516" y="569"/>
      <point x="515" y="499" type="curve" smooth="yes"/>
      <point x="514" y="427"/>
      <point x="455" y="373"/>
      <point x="345" y="341" type="curve"/>
      <point x="394" y="243"/>
      <point x="491" y="72"/>
      <point x="553" y="0" type="curve"/>
      <point x="526" y="2"/>
      <point x="457" y="4"/>
      <point x="424" y="-3" type="curve"/>
      <point x="390" y="88"/>
      <point x="298" y="249"/>
      <point x="241" y="335" type="curve"/>
      <point x="243" y="339"/>
      <point x="245" y="348"/>
      <point x="248" y="351" type="curve"/>
      <point x="352" y="369"/>
      <point x="418" y="422"/>
      <point x="419" y="479" type="curve"/>
      <point x="419" y="552"/>
      <point x="322" y="543"/>
      <point x="210" y="541" type="curve"/>
      <point x="186" y="443"/>
      <point x="136" y="100"/>
      <point x="136" y="0" type="curve"/>
      <point x="104" y="3"/>
      <point x="49" y="6"/>
      <point x="17" y="-7" type="curve"/>
      <point x="53" y="71"/>
      <point x="122" y="509"/>
      <point x="114" y="583" type="curve"/>
      <point x="140" y="580"/>
      <point x="246" y="581"/>
    </contour>
  </outline>
</glyph>
<glyph name="S" format="1">
  <advance width="314"/>
  <unicode hex="0053"/>
  <outline>
    <contour>
      <point x="266" y="567" type="curve"/>
      <point x="212" y="539"/>
      <point x="176" y="495"/>
      <point x="176" y="452" type="curve" smooth="yes"/>
      <point x="176" y="420"/>
      <point x="187" y="390"/>
      <point x="217" y="343" type="curve"/>
      <point x="245" y="297"/>
      <point x="274" y="240"/>
      <point x="274" y="191" type="curve" smooth="yes"/>
      <point x="274" y="110"/>
      <point x="221" y="-4"/>
      <point x="43" y="-3" type="curve" smooth="yes"/>
      <point x="29" y="-3"/>
      <point x="8" y="-2"/>
      <point x="-7" y="1" type="curve"/>
      <point x="-7" y="7"/>
      <point x="-2" y="35"/>
      <point x="0" y="40" type="curve"/>
      <point x="130" y="20"/>
      <point x="181" y="92"/>
      <point x="181" y="169" type="curve" smooth="yes"/>
      <point x="181" y="213"/>
      <point x="161" y="261"/>
      <point x="138" y="302" type="curve" smooth="yes"/>
      <point x="113" y="347"/>
      <point x="94" y="380"/>
      <point x="94" y="424" type="curve" smooth="yes"/>
      <point x="94" y="499"/>
      <point x="167" y="559"/>
      <point x="247" y="598" type="curve"/>
      <point x="256" y="592"/>
      <point x="263" y="575"/>
    </contour>
  </outline>
</glyph>
<glyph name="T" format="1">
  <advance width="415"/>
  <unicode hex="0054"/>
  <outline>
    <contour>
      <point x="52" y="583" type="curve"/>
      <point x="243" y="575"/>
      <point x="309" y="578"/>
      <point x="481" y="583" type="curve"/>
      <point x="483" y="576"/>
      <point x="478" y="559"/>
      <point x="474" y="548" type="curve"/>
      <point x="405" y="542"/>
      <point x="352" y="538"/>
      <point x="303" y="531" type="curve"/>
      <point x="284" y="438"/>
      <point x="225" y="97"/>
      <point x="230" y="-2" type="curve"/>
      <point x="203" y="2"/>
      <point x="153" y="2"/>
      <point x="117" y="-1" type="curve"/>
      <point x="132" y="46"/>
      <point x="208" y="478"/>
      <point x="210" y="530" type="curve"/>
      <point x="164" y="538"/>
      <point x="125" y="541"/>
      <point x="44" y="547" type="curve"/>
      <point x="44" y="554"/>
      <point x="47" y="571"/>
    </contour>
  </outline>
</glyph>
<glyph name="V" format="1">
  <advance width="543"/>
  <unicode hex="0056"/>
  <outline>
    <contour>
      <point x="66" y="584" type="curve"/>
      <point x="103" y="579"/>
      <point x="145" y="581"/>
      <point x="185" y="586" type="curve"/>
      <point x="173" y="477"/>
      <point x="207" y="305"/>
      <point x="234" y="139" type="curve"/>
      <point x="259" y="179" type="line"/>
      <point x="378" y="359"/>
      <point x="452" y="485"/>
      <point x="474" y="575" type="curve"/>
      <point x="500" y="578"/>
      <point x="566" y="583"/>
      <point x="595" y="594" type="curve"/>
      <point x="525" y="512"/>
      <point x="352" y="250"/>
      <point x="299" y="168" type="curve" smooth="yes"/>
      <point x="273" y="127"/>
      <point x="225" y="47"/>
      <point x="212" y="7" type="curve"/>
      <point x="191" y="-7"/>
      <point x="181" y="-10"/>
      <point x="156" y="-17" type="curve"/>
      <point x="137" y="186"/>
      <point x="92" y="514"/>
    </contour>
  </outline>
</glyph>
<glyph name="X" format="1">
  <advance width="571"/>
  <unicode hex="0058"/>
  <outline>
    <contour>
      <point x="259" y="581" type="curve"/>
      <point x="290" y="499"/>
      <point x="318" y="429"/>
      <point x="347" y="371" type="curve"/>
      <point x="419" y="446"/>
      <point x="472" y="520"/>
      <point x="505" y="581" type="curve"/>
      <point x="529" y="581"/>
      <point x="574" y="585"/>
      <point x="614" y="595" type="curve"/>
      <point x="547" y="543"/>
      <point x="424" y="399"/>
      <point x="368" y="335" type="curve"/>
      <point x="424" y="226"/>
      <point x="484" y="109"/>
      <point x="557" y="-1" type="curve"/>
      <point x="532" y="2"/>
      <point x="446" y="2"/>
      <point x="419" y="-1" type="curve"/>
      <point x="389" y="97"/>
      <point x="329" y="229"/>
      <point x="303" y="280" type="curve"/>
      <point x="239" y="216"/>
      <point x="138" y="87"/>
      <point x="97" y="7" type="curve"/>
      <point x="57" y="2"/>
      <point x="13" y="1"/>
      <point x="-36" y="-17" type="curve"/>
      <point x="60" y="61"/>
      <point x="213" y="239"/>
      <point x="283" y="321" type="curve"/>
      <point x="251" y="390"/>
      <point x="133" y="571"/>
      <point x="119" y="581" type="curve"/>
      <point x="142" y="578"/>
      <point x="219" y="575"/>
    </contour>
  </outline>
</glyph>
<glyph name="Z" format="1">
  <advance width="615"/>
  <unicode hex="005A"/>
  <outline>
    <contour>
      <point x="144" y="584" type="curve"/>
      <point x="211" y="573"/>
      <point x="533" y="569"/>
      <point x="579" y="588" type="curve"/>
      <point x="591" y="586"/>
      <point x="595" y="578"/>
      <point x="600" y="573" type="curve"/>
      <point x="543" y="521"/>
      <point x="241" y="200"/>
      <point x="167" y="122" type="curve"/>
      <point x="251" y="88"/>
      <point x="454" y="66"/>
      <point x="565" y="122" type="curve"/>
      <point x="553" y="97"/>
      <point x="535" y="34"/>
      <point x="529" y="-2" type="curve"/>
      <point x="444" y="-2"/>
      <point x="262" y="-12"/>
      <point x="98" y="47" type="curve"/>
      <point x="74" y="33"/>
      <point x="32" y="4"/>
      <point x="2" y="-17" type="curve"/>
      <point x="-8" y="-14"/>
      <point x="-21" y="-7"/>
      <point x="-26" y="1" type="curve"/>
      <point x="90" y="96"/>
      <point x="373" y="387"/>
      <point x="462" y="489" type="curve"/>
      <point x="390" y="503"/>
      <point x="208" y="506"/>
      <point x="111" y="468" type="curve"/>
      <point x="119" y="483"/>
      <point x="147" y="567"/>
    </contour>
  </outline>
</glyph>
<glyph name="bracketleft" format="1">
  <advance width="265"/>
  <unicode hex="005B"/>
  <outline>
    <contour>
      <point x="202" y="-43" type="curve"/>
      <point x="203" y="-52"/>
      <point x="201" y="-69"/>
      <point x="198" y="-79" type="curve"/>
      <point x="131" y="-84"/>
      <point x="73" y="-88"/>
      <point x="12" y="-100" type="curve"/>
      <point x="43" y="19"/>
      <point x="111" y="470"/>
      <point x="120" y="583" type="curve"/>
      <point x="158" y="580"/>
      <point x="251" y="583"/>
      <point x="292" y="583" type="curve"/>
      <point x="293" y="576"/>
      <point x="290" y="556"/>
      <point x="286" y="549" type="curve"/>
      <point x="264" y="548"/>
      <point x="232" y="545"/>
      <point x="210" y="542" type="curve"/>
      <point x="178" y="387"/>
      <point x="144" y="162"/>
      <point x="119" y="-44" type="curve"/>
      <point x="155" y="-46"/>
      <point x="176" y="-45"/>
    </contour>
  </outline>
</glyph>
<glyph name="backslash" format="1">
  <advance width="293"/>
  <unicode hex="005C"/>
  <outline>
    <contour>
      <point x="71" y="605" type="curve"/>
      <point x="76" y="608"/>
      <point x="102" y="608"/>
      <point x="111" y="606" type="curve"/>
      <point x="152" y="385"/>
      <point x="191" y="179"/>
      <point x="235" y="-42" type="curve"/>
      <point x="223" y="-47"/>
      <point x="204" y="-44"/>
      <point x="194" y="-42" type="curve"/>
      <point x="153" y="179"/>
      <point x="115" y="383"/>
    </contour>
  </outline>
</glyph>
<glyph name="bracketright" format="1">
  <advance width="269"/>
  <unicode hex="005D"/>
  <outline>
    <contour>
      <point x="257" y="583" type="curve"/>
      <point x="226" y="459"/>
      <point x="159" y="27"/>
      <point x="151" y="-81" type="curve"/>
      <point x="107" y="-84"/>
      <point x="22" y="-93"/>
      <point x="-27" y="-102" type="curve"/>
      <point x="-29" y="-95"/>
      <point x="-28" y="-77"/>
      <point x="-25" y="-67" type="curve"/>
      <point x="7" y="-61"/>
      <point x="29" y="-57"/>
      <point x="61" y="-44" type="curve"/>
      <point x="94" y="115"/>
      <point x="128" y="380"/>
      <point x="153" y="543" type="curve"/>
      <point x="133" y="545"/>
      <point x="98" y="547"/>
      <point x="78" y="547" type="curve"/>
      <point x="79" y="557"/>
      <point x="80" y="572"/>
      <point x="83" y="582" type="curve"/>
      <point x="136" y="579"/>
      <point x="201" y="579"/>
    </contour>
  </outline>
</glyph>
<glyph name="grave" format="1">
  <advance width="416"/>
  <unicode hex="0060"/>
  <outline>
    <contour>
      <point x="186" y="574" type="curve"/>
      <point x="216" y="550"/>
      <point x="275" y="509"/>
      <point x="336" y="477" type="curve"/>
      <point x="327" y="454" type="line"/>
      <point x="266" y="471"/>
      <point x="217" y="482"/>
      <point x="150" y="492" type="curve"/>
      <point x="161" y="511"/>
      <point x="181" y="555"/>
    </contour>
  </outline>
</glyph>
<glyph name="a" format="1">
  <advance width="418"/>
  <unicode hex="0061"/>
  <outline>
    <contour>
      <point x="403" y="389" type="curve"/>
      <point x="367" y="350"/>
      <point x="315" y="67"/>
      <point x="323" y="-1" type="curve"/>
      <point x="301" y="1"/>
      <point x="252" y="3"/>
      <point x="221" y="-2" type="curve"/>
      <point x="221" y="18"/>
      <point x="242" y="105"/>
      <point x="250" y="144" type="curve"/>
      <point x="187" y="89"/>
      <point x="142" y="52"/>
      <point x="59" y="-12" type="curve"/>
      <point x="36" y="8"/>
      <point x="16" y="60"/>
      <point x="16" y="107" type="curve" smooth="yes"/>
      <point x="16" y="256"/>
      <point x="149" y="387"/>
      <point x="273" y="391" type="curve" smooth="yes"/>
      <point x="316" y="392"/>
      <point x="368" y="391"/>
    </contour>
    <contour>
      <point x="293" y="351" type="curve"/>
      <point x="286" y="352"/>
      <point x="278" y="352"/>
      <point x="272" y="352" type="curve" smooth="yes"/>
      <point x="167" y="351"/>
      <point x="102" y="240"/>
      <point x="102" y="158" type="curve" smooth="yes"/>
      <point x="102" y="132"/>
      <point x="104" y="105"/>
      <point x="116" y="87" type="curve"/>
      <point x="154" y="111"/>
      <point x="233" y="174"/>
      <point x="260" y="201" type="curve"/>
      <point x="268" y="226"/>
      <point x="293" y="320"/>
    </contour>
  </outline>
</glyph>
<glyph name="b" format="1">
  <advance width="426"/>
  <unicode hex="0062"/>
  <outline>
    <contour>
      <point x="5" y="0" type="curve"/>
      <point x="24" y="32"/>
      <point x="43" y="103"/>
      <point x="52" y="146" type="curve" smooth="yes"/>
      <point x="82" y="294"/>
      <point x="139" y="593"/>
      <point x="130" y="680" type="curve"/>
      <point x="157" y="681"/>
      <point x="219" y="689"/>
      <point x="246" y="696" type="curve"/>
      <point x="218" y="606"/>
      <point x="187" y="409"/>
      <point x="159" y="249" type="curve"/>
      <point x="230" y="304"/>
      <point x="299" y="353"/>
      <point x="374" y="402" type="curve"/>
      <point x="386" y="390"/>
      <point x="399" y="347"/>
      <point x="400" y="301" type="curve" smooth="yes"/>
      <point x="401" y="134"/>
      <point x="239" y="-3"/>
      <point x="127" y="-3" type="curve" smooth="yes"/>
      <point x="96" y="-3"/>
      <point x="59" y="-3"/>
    </contour>
    <contour>
      <point x="151" y="200" type="curve"/>
      <point x="138" y="145"/>
      <point x="126" y="95"/>
      <point x="117" y="42" type="curve"/>
      <point x="125" y="38"/>
      <point x="133" y="38"/>
      <point x="145" y="38" type="curve" smooth="yes"/>
      <point x="191" y="38"/>
      <point x="309" y="121"/>
      <point x="310" y="244" type="curve" smooth="yes"/>
      <point x="311" y="275"/>
      <point x="307" y="296"/>
      <point x="300" y="306" type="curve"/>
      <point x="242" y="267"/>
      <point x="192" y="231"/>
    </contour>
  </outline>
</glyph>
<glyph name="c" format="1">
  <advance width="305"/>
  <unicode hex="0063"/>
  <outline>
    <contour>
      <point x="309" y="388" type="curve"/>
      <point x="308" y="377"/>
      <point x="305" y="364"/>
      <point x="300" y="352" type="curve"/>
      <point x="284" y="355"/>
      <point x="262" y="356"/>
      <point x="250" y="356" type="curve" smooth="yes"/>
      <point x="157" y="356"/>
      <point x="106" y="269"/>
      <point x="106" y="157" type="curve" smooth="yes"/>
      <point x="106" y="127"/>
      <point x="116" y="92"/>
      <point x="139" y="68" type="curve"/>
      <point x="169" y="84"/>
      <point x="208" y="107"/>
      <point x="247" y="137" type="curve"/>
      <point x="253" y="134"/>
      <point x="266" y="116"/>
      <point x="271" y="111" type="curve"/>
      <point x="230" y="77"/>
      <point x="155" y="23"/>
      <point x="93" y="-16" type="curve"/>
      <point x="46" y="7"/>
      <point x="25" y="82"/>
      <point x="25" y="131" type="curve" smooth="yes"/>
      <point x="25" y="298"/>
      <point x="127" y="393"/>
      <point x="260" y="393" type="curve" smooth="yes"/>
      <point x="279" y="393"/>
      <point x="303" y="391"/>
    </contour>
  </outline>
</glyph>
<glyph name="h" format="1">
  <advance width="430"/>
  <unicode hex="0068"/>
  <outline>
    <contour>
      <point x="291" y="251" type="curve"/>
      <point x="291" y="273"/>
      <point x="288" y="291"/>
      <point x="278" y="303" type="curve"/>
      <point x="223" y="263"/>
      <point x="180" y="228"/>
      <point x="130" y="180" type="curve"/>
      <point x="120" y="136"/>
      <point x="107" y="58"/>
      <point x="104" y="-3" type="curve"/>
      <point x="86" y="1"/>
      <point x="30" y="3"/>
      <point x="0" y="-2" type="curve"/>
      <point x="24" y="52"/>
      <point x="51" y="189"/>
      <point x="72" y="301" type="curve" smooth="yes"/>
      <point x="96" y="434"/>
      <point x="129" y="635"/>
      <point x="132" y="682" type="curve"/>
      <point x="158" y="684"/>
      <point x="205" y="688"/>
      <point x="235" y="696" type="curve"/>
      <point x="196" y="557"/>
      <point x="163" y="373"/>
      <point x="139" y="238" type="curve"/>
      <point x="191" y="287"/>
      <point x="270" y="347"/>
      <point x="335" y="399" type="curve"/>
      <point x="365" y="370"/>
      <point x="389" y="309"/>
      <point x="377" y="233" type="curve"/>
      <point x="373" y="182"/>
      <point x="359" y="130"/>
      <point x="346" y="99" type="curve" smooth="yes"/>
      <point x="327" y="53"/>
      <point x="276" y="10"/>
      <point x="228" y="-17" type="curve"/>
      <point x="222" y="-12"/>
      <point x="213" y="-4"/>
      <point x="208" y="5" type="curve"/>
      <point x="234" y="35"/>
      <point x="251" y="62"/>
      <point x="265" y="106" type="curve" smooth="yes"/>
      <point x="280" y="154"/>
      <point x="288" y="203"/>
    </contour>
  </outline>
</glyph>
<glyph name="i" format="1">
  <advance width="218"/>
  <unicode hex="0069"/>
  <outline>
    <contour>
      <point x="9" y="0" type="curve"/>
      <point x="42" y="93"/>
      <point x="83" y="313"/>
      <point x="86" y="390" type="curve"/>
      <point x="110" y="387"/>
      <point x="160" y="386"/>
      <point x="189" y="392" type="curve"/>
      <point x="159" y="326"/>
      <point x="117" y="62"/>
      <point x="120" y="-2" type="curve"/>
      <point x="96" y="6"/>
      <point x="22" y="1"/>
    </contour>
    <contour>
      <point x="182" y="584" type="curve" smooth="yes"/>
      <point x="218" y="584"/>
      <point x="223" y="561"/>
      <point x="221" y="551" type="curve" smooth="yes"/>
      <point x="218" y="528"/>
      <point x="190" y="506"/>
      <point x="154" y="506" type="curve" smooth="yes"/>
      <point x="129" y="506"/>
      <point x="109" y="517"/>
      <point x="115" y="542" type="curve"/>
      <point x="118" y="561"/>
      <point x="141" y="584"/>
    </contour>
  </outline>
</glyph>
<glyph name="j" format="1">
  <advance width="210"/>
  <unicode hex="006A"/>
  <outline>
    <contour>
      <point x="81" y="391" type="curve"/>
      <point x="98" y="389"/>
      <point x="156" y="389"/>
      <point x="184" y="393" type="curve"/>
      <point x="164" y="338"/>
      <point x="136" y="181"/>
      <point x="120" y="94" type="curve" smooth="yes"/>
      <point x="75" y="-150"/>
      <point x="-79" y="-280"/>
      <point x="-150" y="-280" type="curve" smooth="yes"/>
      <point x="-161" y="-280"/>
      <point x="-179" y="-272"/>
      <point x="-186" y="-264" type="curve"/>
      <point x="-185" y="-255"/>
      <point x="-177" y="-236"/>
      <point x="-170" y="-229" type="curve"/>
      <point x="-122" y="-250"/>
      <point x="-71" y="-194"/>
      <point x="-51" y="-165" type="curve" smooth="yes"/>
      <point x="-11" y="-108"/>
      <point x="17" y="-18"/>
      <point x="33" y="64" type="curve" smooth="yes"/>
      <point x="57" y="193"/>
      <point x="79" y="316"/>
    </contour>
    <contour>
      <point x="177" y="584" type="curve" smooth="yes"/>
      <point x="213" y="584"/>
      <point x="218" y="561"/>
      <point x="216" y="551" type="curve" smooth="yes"/>
      <point x="213" y="528"/>
      <point x="185" y="506"/>
      <point x="149" y="506" type="curve" smooth="yes"/>
      <point x="124" y="506"/>
      <point x="104" y="517"/>
      <point x="110" y="542" type="curve"/>
      <point x="113" y="561"/>
      <point x="136" y="584"/>
    </contour>
  </outline>
</glyph>
<glyph name="k" format="1">
  <advance width="427"/>
  <unicode hex="006B"/>
  <outline>
    <contour>
      <point x="264" y="-1" type="curve"/>
      <point x="249" y="43"/>
      <point x="220" y="121"/>
      <point x="200" y="161" type="curve"/>
      <point x="245" y="166"/>
      <point x="315" y="200"/>
      <point x="315" y="266" type="curve" smooth="yes"/>
      <point x="315" y="281"/>
      <point x="310" y="296"/>
      <point x="300" y="306" type="curve"/>
      <point x="279" y="292"/>
      <point x="191" y="231"/>
      <point x="152" y="201" type="curve"/>
      <point x="141" y="143"/>
      <point x="127" y="39"/>
      <point x="125" y="-3" type="curve"/>
      <point x="106" y="-1"/>
      <point x="57" y="2"/>
      <point x="15" y="-1" type="curve"/>
      <point x="58" y="77"/>
      <point x="146" y="621"/>
      <point x="138" y="682" type="curve"/>
      <point x="173" y="683"/>
      <point x="219" y="688"/>
      <point x="252" y="697" type="curve"/>
      <point x="216" y="558"/>
      <point x="188" y="405"/>
      <point x="160" y="252" type="curve"/>
      <point x="226" y="297"/>
      <point x="293" y="345"/>
      <point x="359" y="403" type="curve"/>
      <point x="381" y="385"/>
      <point x="395" y="351"/>
      <point x="395" y="320" type="curve" smooth="yes"/>
      <point x="395" y="227"/>
      <point x="340" y="183"/>
      <point x="293" y="164" type="curve"/>
      <point x="315" y="101"/>
      <point x="355" y="28"/>
      <point x="390" y="-2" type="curve"/>
      <point x="360" y="2"/>
      <point x="295" y="3"/>
    </contour>
  </outline>
</glyph>
<glyph name="l" format="1">
  <advance width="232"/>
  <unicode hex="006C"/>
  <outline>
    <contour>
      <point x="137" y="682" type="curve"/>
      <point x="163" y="682"/>
      <point x="209" y="689"/>
      <point x="242" y="695" type="curve"/>
      <point x="208" y="594"/>
      <point x="156" y="325"/>
      <point x="125" y="134" type="curve" smooth="yes"/>
      <point x="117" y="83"/>
      <point x="128" y="53"/>
      <point x="144" y="53" type="curve"/>
      <point x="159" y="52"/>
      <point x="179" y="56"/>
      <point x="203" y="63" type="curve"/>
      <point x="207" y="56"/>
      <point x="211" y="41"/>
      <point x="211" y="32" type="curve"/>
      <point x="172" y="15"/>
      <point x="94" y="-8"/>
      <point x="67" y="-8" type="curve" smooth="yes"/>
      <point x="33" y="-8"/>
      <point x="23" y="50"/>
      <point x="32" y="97" type="curve" smooth="yes"/>
      <point x="71" y="286"/>
      <point x="132" y="593"/>
    </contour>
  </outline>
</glyph>
<glyph name="m" format="1">
  <advance width="660"/>
  <unicode hex="006D"/>
  <outline>
    <contour>
      <point x="73" y="387" type="curve"/>
      <point x="89" y="385"/>
      <point x="149" y="389"/>
      <point x="181" y="395" type="curve"/>
      <point x="166" y="361"/>
      <point x="155" y="307"/>
      <point x="143" y="230" type="curve"/>
      <point x="197" y="281"/>
      <point x="277" y="347"/>
      <point x="343" y="400" type="curve"/>
      <point x="363" y="379"/>
      <point x="390" y="315"/>
      <point x="372" y="232" type="curve"/>
      <point x="435" y="291"/>
      <point x="496" y="344"/>
      <point x="566" y="402" type="curve"/>
      <point x="600" y="362"/>
      <point x="615" y="293"/>
      <point x="599" y="216" type="curve" smooth="yes"/>
      <point x="584" y="145"/>
      <point x="571" y="74"/>
      <point x="565" y="-2" type="curve"/>
      <point x="543" y="1"/>
      <point x="484" y="2"/>
      <point x="462" y="-3" type="curve"/>
      <point x="482" y="51"/>
      <point x="503" y="149"/>
      <point x="510" y="204" type="curve" smooth="yes"/>
      <point x="516" y="256"/>
      <point x="510" y="280"/>
      <point x="501" y="293" type="curve"/>
      <point x="461" y="262"/>
      <point x="389" y="199"/>
      <point x="364" y="173" type="curve"/>
      <point x="348" y="97"/>
      <point x="339" y="49"/>
      <point x="335" y="-2" type="curve"/>
      <point x="313" y="2"/>
      <point x="262" y="1"/>
      <point x="228" y="-1" type="curve"/>
      <point x="256" y="76"/>
      <point x="270" y="154"/>
      <point x="281" y="218" type="curve" smooth="yes"/>
      <point x="285" y="244"/>
      <point x="285" y="279"/>
      <point x="272" y="293" type="curve"/>
      <point x="217" y="249"/>
      <point x="182" y="221"/>
      <point x="133" y="174" type="curve"/>
      <point x="123" y="130"/>
      <point x="111" y="59"/>
      <point x="104" y="-3" type="curve"/>
      <point x="86" y="1"/>
      <point x="30" y="3"/>
      <point x="1" y="-2" type="curve"/>
      <point x="30" y="56"/>
      <point x="72" y="307"/>
    </contour>
  </outline>
</glyph>
<glyph name="o" format="1">
  <advance width="339"/>
  <unicode hex="006F"/>
  <outline>
    <contour>
      <point x="107" y="-16" type="curve"/>
      <point x="61" y="8"/>
      <point x="20" y="63"/>
      <point x="22" y="136" type="curve" smooth="yes"/>
      <point x="26" y="259"/>
      <point x="128" y="347"/>
      <point x="227" y="405" type="curve"/>
      <point x="279" y="370"/>
      <point x="304" y="317"/>
      <point x="303" y="254" type="curve" smooth="yes"/>
      <point x="300" y="144"/>
      <point x="198" y="43"/>
    </contour>
    <contour>
      <point x="101" y="174" type="curve" smooth="yes"/>
      <point x="99" y="106"/>
      <point x="124" y="71"/>
      <point x="141" y="58" type="curve"/>
      <point x="203" y="104"/>
      <point x="222" y="173"/>
      <point x="223" y="218" type="curve" smooth="yes"/>
      <point x="224" y="269"/>
      <point x="213" y="303"/>
      <point x="186" y="331" type="curve"/>
      <point x="129" y="286"/>
      <point x="103" y="231"/>
    </contour>
  </outline>
</glyph>
<glyph name="p" format="1">
  <advance width="402"/>
  <unicode hex="0070"/>
  <outline>
    <contour>
      <point x="-54" y="-281" type="curve"/>
      <point x="-13" y="-180"/>
      <point x="70" y="306"/>
      <point x="76" y="391" type="curve"/>
      <point x="102" y="388"/>
      <point x="156" y="388"/>
      <point x="179" y="393" type="curve"/>
      <point x="170" y="363"/>
      <point x="154" y="300"/>
      <point x="146" y="255" type="curve"/>
      <point x="202" y="301"/>
      <point x="283" y="364"/>
      <point x="340" y="405" type="curve"/>
      <point x="366" y="371"/>
      <point x="380" y="320"/>
      <point x="379" y="270" type="curve" smooth="yes"/>
      <point x="373" y="116"/>
      <point x="246" y="-11"/>
      <point x="132" y="-11" type="curve" smooth="yes"/>
      <point x="116" y="-11"/>
      <point x="107" y="-9"/>
      <point x="97" y="-5" type="curve"/>
      <point x="85" y="-59"/>
      <point x="64" y="-223"/>
      <point x="66" y="-253" type="curve"/>
      <point x="41" y="-256"/>
      <point x="-19" y="-270"/>
    </contour>
    <contour>
      <point x="138" y="204" type="curve"/>
      <point x="130" y="169"/>
      <point x="114" y="97"/>
      <point x="103" y="32" type="curve"/>
      <point x="112" y="28"/>
      <point x="117" y="27"/>
      <point x="138" y="27" type="curve" smooth="yes"/>
      <point x="192" y="27"/>
      <point x="286" y="86"/>
      <point x="291" y="242" type="curve" smooth="yes"/>
      <point x="292" y="269"/>
      <point x="283" y="295"/>
      <point x="274" y="307" type="curve"/>
      <point x="234" y="278"/>
      <point x="198" y="251"/>
    </contour>
  </outline>
</glyph>
<glyph name="q" format="1">
  <advance width="406"/>
  <unicode hex="0071"/>
  <outline>
    <contour>
      <point x="254" y="391" type="curve"/>
      <point x="297" y="392"/>
      <point x="360" y="392"/>
      <point x="398" y="390" type="curve"/>
      <point x="385" y="374"/>
      <point x="376" y="346"/>
      <point x="366" y="310" type="curve" smooth="yes"/>
      <point x="320" y="147"/>
      <point x="273" y="-176"/>
      <point x="275" y="-261" type="curve"/>
      <point x="244" y="-263"/>
      <point x="181" y="-272"/>
      <point x="142" y="-280" type="curve"/>
      <point x="171" y="-237"/>
      <point x="203" y="-78"/>
      <point x="243" y="144" type="curve"/>
      <point x="188" y="96"/>
      <point x="118" y="30"/>
      <point x="63" y="-12" type="curve"/>
      <point x="39" y="6"/>
      <point x="17" y="55"/>
      <point x="17" y="110" type="curve" smooth="yes"/>
      <point x="17" y="267"/>
      <point x="140" y="385"/>
    </contour>
    <contour>
      <point x="286" y="354" type="curve"/>
      <point x="278" y="355"/>
      <point x="267" y="355"/>
      <point x="257" y="355" type="curve" smooth="yes"/>
      <point x="172" y="355"/>
      <point x="102" y="260"/>
      <point x="102" y="144" type="curve" smooth="yes"/>
      <point x="102" y="121"/>
      <point x="107" y="101"/>
      <point x="117" y="87" type="curve"/>
      <point x="146" y="109"/>
      <point x="236" y="182"/>
      <point x="255" y="201" type="curve"/>
      <point x="261" y="227"/>
      <point x="285" y="322"/>
    </contour>
  </outline>
</glyph>
<glyph name="s" format="1">
  <advance width="244"/>
  <unicode hex="0073"/>
  <outline>
    <contour>
      <point x="-10" y="-2" type="curve"/>
      <point x="-12" y="10"/>
      <point x="-7" y="28"/>
      <point x="-5" y="34" type="curve"/>
      <point x="68" y="25"/>
      <point x="104" y="56"/>
      <point x="104" y="104" type="curve" smooth="yes"/>
      <point x="104" y="141"/>
      <point x="92" y="162"/>
      <point x="75" y="194" type="curve"/>
      <point x="62" y="221"/>
      <point x="52" y="243"/>
      <point x="52" y="271" type="curve" smooth="yes"/>
      <point x="52" y="325"/>
      <point x="132" y="379"/>
      <point x="198" y="405" type="curve"/>
      <point x="206" y="400"/>
      <point x="213" y="385"/>
      <point x="214" y="375" type="curve"/>
      <point x="157" y="347"/>
      <point x="134" y="319"/>
      <point x="134" y="289" type="curve" smooth="yes"/>
      <point x="134" y="270"/>
      <point x="143" y="248"/>
      <point x="157" y="226" type="curve" smooth="yes"/>
      <point x="176" y="196"/>
      <point x="195" y="156"/>
      <point x="195" y="123" type="curve" smooth="yes"/>
      <point x="195" y="71"/>
      <point x="156" y="-4"/>
      <point x="29" y="-5" type="curve" smooth="yes"/>
      <point x="18" y="-5"/>
      <point x="2" y="-4"/>
    </contour>
  </outline>
</glyph>
<glyph name="v" format="1">
  <advance width="388"/>
  <unicode hex="0076"/>
  <outline>
    <contour>
      <point x="177" y="391" type="curve"/>
      <point x="159" y="362"/>
      <point x="139" y="279"/>
      <point x="130" y="235" type="curve" smooth="yes"/>
      <point x="119" y="179"/>
      <point x="127" y="100"/>
      <point x="160" y="64" type="curve"/>
      <point x="219" y="113"/>
      <point x="244" y="172"/>
      <point x="262" y="247" type="curve" smooth="yes"/>
      <point x="270" y="280"/>
      <point x="282" y="344"/>
      <point x="283" y="391" type="curve"/>
      <point x="307" y="387"/>
      <point x="354" y="387"/>
      <point x="380" y="391" type="curve"/>
      <point x="371" y="372"/>
      <point x="361" y="323"/>
      <point x="353" y="291" type="curve" smooth="yes"/>
      <point x="308" y="102"/>
      <point x="175" y="24"/>
      <point x="113" y="-15" type="curve"/>
      <point x="73" y="23"/>
      <point x="23" y="108"/>
      <point x="46" y="230" type="curve" smooth="yes"/>
      <point x="64" y="322"/>
      <point x="74" y="366"/>
      <point x="72" y="391" type="curve"/>
      <point x="101" y="387"/>
      <point x="148" y="387"/>
    </contour>
  </outline>
</glyph>
<glyph name="w" format="1">
  <advance width="611"/>
  <unicode hex="0077"/>
  <outline>
    <contour>
      <point x="400" y="391" type="curve"/>
      <point x="382" y="362"/>
      <point x="362" y="279"/>
      <point x="353" y="235" type="curve" smooth="yes"/>
      <point x="342" y="179"/>
      <point x="350" y="100"/>
      <point x="383" y="64" type="curve"/>
      <point x="442" y="113"/>
      <point x="467" y="172"/>
      <point x="485" y="247" type="curve" smooth="yes"/>
      <point x="493" y="280"/>
      <point x="505" y="344"/>
      <point x="506" y="391" type="curve"/>
      <point x="530" y="387"/>
      <point x="577" y="387"/>
      <point x="603" y="391" type="curve"/>
      <point x="594" y="372"/>
      <point x="584" y="323"/>
      <point x="576" y="291" type="curve" smooth="yes"/>
      <point x="531" y="102"/>
      <point x="398" y="24"/>
      <point x="336" y="-15" type="curve"/>
      <point x="308" y="12"/>
      <point x="275" y="62"/>
      <point x="266" y="132" type="curve"/>
      <point x="221" y="84"/>
      <point x="161" y="27"/>
      <point x="102" y="-17" type="curve"/>
      <point x="60" y="20"/>
      <point x="24" y="92"/>
      <point x="47" y="192" type="curve" smooth="yes"/>
      <point x="67" y="278"/>
      <point x="83" y="341"/>
      <point x="87" y="391" type="curve"/>
      <point x="109" y="387"/>
      <point x="155" y="389"/>
      <point x="189" y="391" type="curve"/>
      <point x="163" y="342"/>
      <point x="143" y="258"/>
      <point x="132" y="194" type="curve" smooth="yes"/>
      <point x="120" y="130"/>
      <point x="132" y="89"/>
      <point x="147" y="71" type="curve"/>
      <point x="188" y="101"/>
      <point x="228" y="139"/>
      <point x="263" y="179" type="curve"/>
      <point x="264" y="196"/>
      <point x="266" y="214"/>
      <point x="269" y="230" type="curve" smooth="yes"/>
      <point x="287" y="322"/>
      <point x="297" y="366"/>
      <point x="295" y="391" type="curve"/>
      <point x="324" y="387"/>
      <point x="371" y="387"/>
    </contour>
  </outline>
</glyph>
<glyph name="x" format="1">
  <advance width="355"/>
  <unicode hex="0078"/>
  <outline>
    <contour>
      <point x="-42" y="-12" type="curve"/>
      <point x="-8" y="18"/>
      <point x="101" y="157"/>
      <point x="128" y="199" type="curve"/>
      <point x="116" y="248"/>
      <point x="87" y="362"/>
      <point x="59" y="391" type="curve"/>
      <point x="91" y="389"/>
      <point x="149" y="389"/>
      <point x="174" y="391" type="curve"/>
      <point x="178" y="347"/>
      <point x="181" y="311"/>
      <point x="195" y="256" type="curve"/>
      <point x="239" y="312"/>
      <point x="269" y="355"/>
      <point x="284" y="385" type="curve"/>
      <point x="310" y="388"/>
      <point x="340" y="391"/>
      <point x="364" y="397" type="curve"/>
      <point x="308" y="345"/>
      <point x="265" y="298"/>
      <point x="205" y="214" type="curve"/>
      <point x="224" y="132"/>
      <point x="262" y="27"/>
      <point x="289" y="-2" type="curve" smooth="yes"/>
      <point x="290" y="-2"/>
      <point x="233" y="2"/>
      <point x="169" y="-1" type="curve"/>
      <point x="164" y="53"/>
      <point x="150" y="122"/>
      <point x="140" y="158" type="curve"/>
      <point x="97" y="94"/>
      <point x="66" y="48"/>
      <point x="46" y="2" type="curve"/>
      <point x="22" y="1"/>
      <point x="-5" y="-2"/>
    </contour>
  </outline>
</glyph>
<glyph name="y" format="1">
  <advance width="405"/>
  <unicode hex="0079"/>
  <outline>
    <contour>
      <point x="-62" y="-280" type="curve"/>
      <point x="-69" y="-273"/>
      <point x="-76" y="-259"/>
      <point x="-78" y="-250" type="curve"/>
      <point x="18" y="-178"/>
      <point x="67" y="-128"/>
      <point x="128" y="-34" type="curve"/>
      <point x="120" y="37"/>
      <point x="79" y="316"/>
      <point x="50" y="391" type="curve"/>
      <point x="74" y="385"/>
      <point x="149" y="389"/>
      <point x="168" y="394" type="curve"/>
      <point x="160" y="336"/>
      <point x="168" y="188"/>
      <point x="196" y="84" type="curve"/>
      <point x="203" y="99"/>
      <point x="211" y="114"/>
      <point x="220" y="129" type="curve" smooth="yes"/>
      <point x="282" y="241"/>
      <point x="337" y="360"/>
      <point x="340" y="386" type="curve"/>
      <point x="355" y="385"/>
      <point x="399" y="392"/>
      <point x="424" y="399" type="curve"/>
      <point x="338" y="265"/>
      <point x="271" y="146"/>
      <point x="193" y="5" type="curve"/>
      <point x="106" y="-156"/>
      <point x="79" y="-202"/>
    </contour>
  </outline>
</glyph>
<glyph name="z" format="1">
  <advance width="383"/>
  <unicode hex="007A"/>
  <outline>
    <contour>
      <point x="322" y="86" type="curve"/>
      <point x="312" y="69"/>
      <point x="292" y="18"/>
      <point x="287" y="-11" type="curve"/>
      <point x="244" y="-8"/>
      <point x="127" y="2"/>
      <point x="61" y="35" type="curve"/>
      <point x="36" y="13"/>
      <point x="24" y="4"/>
      <point x="2" y="-16" type="curve"/>
      <point x="-7" y="-14"/>
      <point x="-21" y="-7"/>
      <point x="-25" y="2" type="curve"/>
      <point x="70" y="102"/>
      <point x="202" y="256"/>
      <point x="243" y="306" type="curve"/>
      <point x="208" y="314"/>
      <point x="107" y="308"/>
      <point x="51" y="290" type="curve"/>
      <point x="67" y="320"/>
      <point x="81" y="370"/>
      <point x="83" y="395" type="curve"/>
      <point x="148" y="384"/>
      <point x="292" y="378"/>
      <point x="335" y="396" type="curve"/>
      <point x="344" y="394"/>
      <point x="352" y="389"/>
      <point x="360" y="381" type="curve"/>
      <point x="297" y="315"/>
      <point x="184" y="186"/>
      <point x="118" y="106" type="curve"/>
      <point x="171" y="80"/>
      <point x="250" y="76"/>
    </contour>
  </outline>
</glyph>
<glyph name="braceleft" format="1">
  <advance width="265"/>
  <unicode hex="007B"/>
  <outline>
    <contour>
      <point x="292" y="601" type="curve"/>
      <point x="296" y="595"/>
      <point x="303" y="581"/>
      <point x="303" y="568" type="curve"/>
      <point x="265" y="544"/>
      <point x="231" y="524"/>
      <point x="216" y="474" type="curve" smooth="yes"/>
      <point x="211" y="454"/>
      <point x="204" y="424"/>
      <point x="199" y="410" type="curve" smooth="yes"/>
      <point x="174" y="349"/>
      <point x="148" y="328"/>
      <point x="77" y="283" type="curve"/>
      <point x="134" y="246"/>
      <point x="157" y="206"/>
      <point x="160" y="162" type="curve" smooth="yes"/>
      <point x="161" y="146"/>
      <point x="159" y="98"/>
      <point x="160" y="40" type="curve" smooth="yes"/>
      <point x="161" y="-21"/>
      <point x="173" y="-41"/>
      <point x="203" y="-75" type="curve"/>
      <point x="200" y="-83"/>
      <point x="192" y="-97"/>
      <point x="182" y="-102" type="curve"/>
      <point x="151" y="-81"/>
      <point x="69" y="-29"/>
      <point x="71" y="32" type="curve" smooth="yes"/>
      <point x="72" y="87"/>
      <point x="82" y="148"/>
      <point x="82" y="173" type="curve" smooth="yes"/>
      <point x="82" y="224"/>
      <point x="67" y="247"/>
      <point x="29" y="270" type="curve"/>
      <point x="28" y="279"/>
      <point x="31" y="291"/>
      <point x="34" y="298" type="curve"/>
      <point x="77" y="319"/>
      <point x="97" y="350"/>
      <point x="116" y="410" type="curve" smooth="yes"/>
      <point x="121" y="429"/>
      <point x="127" y="464"/>
      <point x="133" y="482" type="curve" smooth="yes"/>
      <point x="148" y="533"/>
      <point x="224" y="567"/>
    </contour>
  </outline>
</glyph>
<glyph name="braceright" format="1">
  <advance width="265"/>
  <unicode hex="007D"/>
  <outline>
    <contour>
      <point x="112" y="601" type="curve"/>
      <point x="145" y="573"/>
      <point x="222" y="532"/>
      <point x="223" y="493" type="curve" smooth="yes"/>
      <point x="224" y="472"/>
      <point x="221" y="410"/>
      <point x="221" y="387" type="curve" smooth="yes"/>
      <point x="221" y="345"/>
      <point x="240" y="322"/>
      <point x="275" y="295" type="curve"/>
      <point x="277" y="286"/>
      <point x="275" y="275"/>
      <point x="271" y="269" type="curve"/>
      <point x="223" y="252"/>
      <point x="210" y="211"/>
      <point x="202" y="186" type="curve" smooth="yes"/>
      <point x="195" y="161"/>
      <point x="189" y="132"/>
      <point x="183" y="97" type="curve" smooth="yes"/>
      <point x="164" y="-10"/>
      <point x="113" y="-37"/>
      <point x="-2" y="-104" type="curve"/>
      <point x="-9" y="-97"/>
      <point x="-15" y="-83"/>
      <point x="-15" y="-72" type="curve"/>
      <point x="23" y="-48"/>
      <point x="61" y="-29"/>
      <point x="83" y="36" type="curve" smooth="yes"/>
      <point x="95" y="70"/>
      <point x="108" y="125"/>
      <point x="119" y="164" type="curve" smooth="yes"/>
      <point x="136" y="227"/>
      <point x="162" y="247"/>
      <point x="233" y="287" type="curve"/>
      <point x="181" y="328"/>
      <point x="146" y="352"/>
      <point x="142" y="400" type="curve" smooth="yes"/>
      <point x="140" y="430"/>
      <point x="138" y="464"/>
      <point x="137" y="494" type="curve"/>
      <point x="137" y="534"/>
      <point x="121" y="543"/>
      <point x="92" y="576" type="curve"/>
      <point x="97" y="583"/>
      <point x="103" y="596"/>
    </contour>
  </outline>
</glyph>
<glyph name="asciitilde" format="1">
  <advance width="416"/>
  <unicode hex="007E"/>
  <outline>
    <contour>
      <point x="244" y="209" type="curve" smooth="yes"/>
      <point x="220" y="209"/>
      <point x="170" y="237"/>
      <point x="146" y="237" type="curve" smooth="yes"/>
      <point x="111" y="237"/>
      <point x="91" y="228"/>
      <point x="51" y="206" type="curve"/>
      <point x="43" y="214"/>
      <point x="38" y="225"/>
      <point x="35" y="236" type="curve"/>
      <point x="79" y="271"/>
      <point x="153" y="304"/>
      <point x="183" y="303" type="curve" smooth="yes"/>
      <point x="211" y="303"/>
      <point x="257" y="279"/>
      <point x="285" y="279" type="curve" smooth="yes"/>
      <point x="319" y="279"/>
      <point x="338" y="288"/>
      <point x="380" y="309" type="curve"/>
      <point x="386" y="302"/>
      <point x="392" y="290"/>
      <point x="396" y="281" type="curve"/>
      <point x="343" y="238"/>
      <point x="274" y="208"/>
    </contour>
  </outline>
</glyph>
<glyph name="exclamdown" format="1">
  <advance width="205"/>
  <unicode hex="00A1"/>
  <outline>
    <contour>
      <point x="88" y="241" type="curve"/>
      <point x="124" y="245" type="line"/>
      <point x="106" y="105"/>
      <point x="88" y="-142"/>
      <point x="88" y="-190" type="curve"/>
      <point x="62" y="-191"/>
      <point x="14" y="-195"/>
      <point x="-16" y="-200" type="curve"/>
      <point x="11" y="-117"/>
      <point x="75" y="170"/>
    </contour>
    <contour>
      <point x="122" y="311" type="curve" smooth="yes"/>
      <point x="89" y="311"/>
      <point x="72" y="326"/>
      <point x="72" y="349" type="curve" smooth="yes"/>
      <point x="72" y="378"/>
      <point x="108" y="395"/>
      <point x="140" y="395" type="curve" smooth="yes"/>
      <point x="164" y="395"/>
      <point x="183" y="381"/>
      <point x="183" y="361" type="curve" smooth="yes"/>
      <point x="183" y="334"/>
      <point x="153" y="311"/>
    </contour>
  </outline>
</glyph>
<glyph name="cent" format="1">
  <advance width="416"/>
  <unicode hex="00A2"/>
  <outline>
    <contour>
      <point x="309" y="388" type="curve"/>
      <point x="308" y="377"/>
      <point x="305" y="364"/>
      <point x="300" y="352" type="curve"/>
      <point x="284" y="355"/>
      <point x="262" y="356"/>
      <point x="250" y="356" type="curve" smooth="yes"/>
      <point x="157" y="356"/>
      <point x="106" y="269"/>
      <point x="106" y="157" type="curve" smooth="yes"/>
      <point x="106" y="127"/>
      <point x="116" y="92"/>
      <point x="139" y="68" type="curve"/>
      <point x="169" y="84"/>
      <point x="208" y="107"/>
      <point x="247" y="137" type="curve"/>
      <point x="253" y="134"/>
      <point x="266" y="116"/>
      <point x="271" y="111" type="curve"/>
      <point x="233" y="80"/>
      <point x="171" y="33"/>
      <point x="114" y="-4" type="curve"/>
      <point x="104" y="-29"/>
      <point x="94" y="-55"/>
      <point x="85" y="-82" type="curve"/>
      <point x="74" y="-83"/>
      <point x="60" y="-82"/>
      <point x="50" y="-77" type="curve"/>
      <point x="58" y="-55"/>
      <point x="67" y="-22"/>
      <point x="72" y="-3" type="curve"/>
      <point x="38" y="27"/>
      <point x="25" y="89"/>
      <point x="25" y="131" type="curve" smooth="yes"/>
      <point x="25" y="284"/>
      <point x="110" y="377"/>
      <point x="228" y="391" type="curve"/>
      <point x="237" y="415"/>
      <point x="245" y="437"/>
      <point x="254" y="464" type="curve"/>
      <point x="263" y="465"/>
      <point x="286" y="463"/>
      <point x="290" y="459" type="curve"/>
      <point x="281" y="435"/>
      <point x="275" y="414"/>
      <point x="270" y="393" type="curve"/>
      <point x="288" y="393"/>
      <point x="304" y="390"/>
    </contour>
  </outline>
</glyph>
<glyph name="sterling" format="1">
  <advance width="424"/>
  <unicode hex="00A3"/>
  <outline>
    <contour>
      <point x="89" y="334" type="curve"/>
      <point x="102" y="333"/>
      <point x="116" y="333"/>
      <point x="129" y="333" type="curve"/>
      <point x="121" y="362"/>
      <point x="111" y="385"/>
      <point x="111" y="410" type="curve" smooth="yes"/>
      <point x="111" y="497"/>
      <point x="197" y="587"/>
      <point x="316" y="587" type="curve" smooth="yes"/>
      <point x="336" y="587"/>
      <point x="358" y="578"/>
      <point x="373" y="573" type="curve"/>
      <point x="371" y="562"/>
      <point x="365" y="546"/>
      <point x="357" y="539" type="curve"/>
      <point x="310" y="553"/>
      <point x="264" y="545"/>
      <point x="231" y="511" type="curve" smooth="yes"/>
      <point x="210" y="489"/>
      <point x="198" y="460"/>
      <point x="198" y="423" type="curve" smooth="yes"/>
      <point x="198" y="392"/>
      <point x="206" y="368"/>
      <point x="211" y="332" type="curve"/>
      <point x="265" y="332"/>
      <point x="302" y="332"/>
      <point x="350" y="333" type="curve"/>
      <point x="350" y="322"/>
      <point x="349" y="300"/>
      <point x="344" y="290" type="curve"/>
      <point x="283" y="291"/>
      <point x="261" y="292"/>
      <point x="214" y="292" type="curve"/>
      <point x="214" y="242"/>
      <point x="181" y="168"/>
      <point x="128" y="112" type="curve"/>
      <point x="208" y="80"/>
      <point x="285" y="73"/>
      <point x="391" y="89" type="curve"/>
      <point x="381" y="72"/>
      <point x="360" y="18"/>
      <point x="358" y="-12" type="curve"/>
      <point x="242" y="-9"/>
      <point x="149" y="4"/>
      <point x="72" y="39" type="curve"/>
      <point x="38" y="18"/>
      <point x="23" y="8"/>
      <point x="-11" y="-17" type="curve"/>
      <point x="-21" y="-14"/>
      <point x="-32" y="-2"/>
      <point x="-37" y="7" type="curve"/>
      <point x="75" y="94"/>
      <point x="146" y="175"/>
      <point x="136" y="292" type="curve"/>
      <point x="86" y="292" type="line"/>
      <point x="82" y="300"/>
      <point x="87" y="328"/>
    </contour>
  </outline>
</glyph>
<glyph name="currency" format="1">
  <advance width="336"/>
  <unicode hex="00A4"/>
  <outline>
    <contour>
      <point x="93" y="477" type="curve" smooth="yes"/>
      <point x="93" y="499"/>
      <point x="101" y="521"/>
      <point x="114" y="539" type="curve"/>
      <point x="102" y="554"/>
      <point x="88" y="566"/>
      <point x="72" y="579" type="curve"/>
      <point x="76" y="588"/>
      <point x="87" y="600"/>
      <point x="97" y="605" type="curve"/>
      <point x="112" y="592"/>
      <point x="126" y="578"/>
      <point x="142" y="568" type="curve"/>
      <point x="161" y="582"/>
      <point x="183" y="590"/>
      <point x="206" y="590" type="curve" smooth="yes"/>
      <point x="232" y="590"/>
      <point x="257" y="583"/>
      <point x="276" y="568" type="curve"/>
      <point x="293" y="579"/>
      <point x="306" y="591"/>
      <point x="321" y="606" type="curve"/>
      <point x="330" y="602"/>
      <point x="340" y="592"/>
      <point x="345" y="582" type="curve"/>
      <point x="330" y="567"/>
      <point x="315" y="553"/>
      <point x="303" y="537" type="curve"/>
      <point x="313" y="520"/>
      <point x="319" y="499"/>
      <point x="319" y="477" type="curve" smooth="yes"/>
      <point x="319" y="453"/>
      <point x="310" y="429"/>
      <point x="295" y="410" type="curve"/>
      <point x="307" y="395"/>
      <point x="320" y="384"/>
      <point x="335" y="370" type="curve"/>
      <point x="332" y="360"/>
      <point x="322" y="350"/>
      <point x="312" y="345" type="curve"/>
      <point x="296" y="357"/>
      <point x="282" y="371"/>
      <point x="266" y="382" type="curve"/>
      <point x="248" y="371"/>
      <point x="226" y="365"/>
      <point x="206" y="365" type="curve" smooth="yes"/>
      <point x="181" y="365"/>
      <point x="158" y="371"/>
      <point x="140" y="383" type="curve"/>
      <point x="124" y="371"/>
      <point x="112" y="358"/>
      <point x="97" y="343" type="curve"/>
      <point x="88" y="347"/>
      <point x="77" y="357"/>
      <point x="72" y="367" type="curve"/>
      <point x="86" y="382"/>
      <point x="100" y="395"/>
      <point x="111" y="411" type="curve"/>
      <point x="100" y="429"/>
      <point x="93" y="450"/>
    </contour>
    <contour>
      <point x="132" y="475" type="curve" smooth="yes"/>
      <point x="132" y="434"/>
      <point x="161" y="401"/>
      <point x="206" y="401" type="curve" smooth="yes"/>
      <point x="246" y="401"/>
      <point x="280" y="434"/>
      <point x="280" y="475" type="curve" smooth="yes"/>
      <point x="280" y="519"/>
      <point x="246" y="550"/>
      <point x="206" y="550" type="curve" smooth="yes"/>
      <point x="164" y="550"/>
      <point x="132" y="517"/>
    </contour>
  </outline>
</glyph>
<glyph name="yen" format="1">
  <advance width="454"/>
  <unicode hex="00A5"/>
  <outline>
    <contour>
      <point x="50" y="583" type="curve"/>
      <point x="98" y="579"/>
      <point x="145" y="579"/>
      <point x="187" y="583" type="curve"/>
      <point x="198" y="501"/>
      <point x="244" y="383"/>
      <point x="279" y="324" type="curve"/>
      <point x="355" y="408"/>
      <point x="414" y="497"/>
      <point x="446" y="578" type="curve"/>
      <point x="473" y="578"/>
      <point x="513" y="583"/>
      <point x="551" y="592" type="curve"/>
      <point x="447" y="482"/>
      <point x="378" y="390"/>
      <point x="290" y="276" type="curve"/>
      <point x="328" y="276"/>
      <point x="371" y="276"/>
      <point x="398" y="277" type="curve"/>
      <point x="399" y="266"/>
      <point x="394" y="244"/>
      <point x="390" y="234" type="curve"/>
      <point x="280" y="236" type="line"/>
      <point x="270" y="184" type="line"/>
      <point x="310" y="184"/>
      <point x="354" y="184"/>
      <point x="382" y="185" type="curve"/>
      <point x="382" y="174"/>
      <point x="377" y="151"/>
      <point x="373" y="141" type="curve"/>
      <point x="265" y="144" type="line"/>
      <point x="258" y="84"/>
      <point x="258" y="41"/>
      <point x="264" y="-1" type="curve"/>
      <point x="228" y="2"/>
      <point x="167" y="3"/>
      <point x="136" y="-1" type="curve"/>
      <point x="152" y="36"/>
      <point x="166" y="86"/>
      <point x="177" y="145" type="curve"/>
      <point x="146" y="145"/>
      <point x="105" y="144"/>
      <point x="68" y="144" type="curve"/>
      <point x="67" y="152"/>
      <point x="72" y="181"/>
      <point x="74" y="186" type="curve"/>
      <point x="184" y="184" type="line"/>
      <point x="193" y="237" type="line"/>
      <point x="161" y="237"/>
      <point x="122" y="236"/>
      <point x="84" y="236" type="curve"/>
      <point x="83" y="245"/>
      <point x="89" y="273"/>
      <point x="91" y="279" type="curve"/>
      <point x="197" y="276" type="line"/>
      <point x="174" y="357"/>
      <point x="92" y="533"/>
    </contour>
  </outline>
</glyph>
<glyph name="section" format="1">
  <advance width="359"/>
  <unicode hex="00A7"/>
  <outline>
    <contour>
      <point x="297" y="598" type="curve"/>
      <point x="306" y="593"/>
      <point x="314" y="578"/>
      <point x="317" y="570" type="curve"/>
      <point x="246" y="522"/>
      <point x="225" y="477"/>
      <point x="226" y="451" type="curve" smooth="yes"/>
      <point x="228" y="404"/>
      <point x="238" y="390"/>
      <point x="268" y="343" type="curve"/>
      <point x="298" y="298"/>
      <point x="317" y="256"/>
      <point x="317" y="207" type="curve" smooth="yes"/>
      <point x="317" y="138"/>
      <point x="285" y="82"/>
      <point x="212" y="33" type="curve"/>
      <point x="219" y="-72"/>
      <point x="102" y="-169"/>
      <point x="-46" y="-149" type="curve"/>
      <point x="-47" y="-143"/>
      <point x="-44" y="-116"/>
      <point x="-42" y="-112" type="curve"/>
      <point x="64" y="-123"/>
      <point x="134" y="-78"/>
      <point x="134" y="-4" type="curve" smooth="yes"/>
      <point x="134" y="52"/>
      <point x="103" y="102"/>
      <point x="79" y="144" type="curve" smooth="yes"/>
      <point x="55" y="187"/>
      <point x="42" y="226"/>
      <point x="42" y="270" type="curve" smooth="yes"/>
      <point x="42" y="337"/>
      <point x="103" y="422"/>
      <point x="173" y="493" type="curve" smooth="yes"/>
      <point x="213" y="534"/>
      <point x="258" y="571"/>
    </contour>
    <contour>
      <point x="244" y="170" type="curve" smooth="yes"/>
      <point x="244" y="208"/>
      <point x="227" y="248"/>
      <point x="201" y="289" type="curve" smooth="yes"/>
      <point x="171" y="336"/>
      <point x="156" y="373"/>
      <point x="161" y="428" type="curve"/>
      <point x="126" y="390"/>
      <point x="106" y="336"/>
      <point x="107" y="307" type="curve" smooth="yes"/>
      <point x="109" y="266"/>
      <point x="119" y="241"/>
      <point x="149" y="193" type="curve" smooth="yes"/>
      <point x="169" y="161"/>
      <point x="197" y="122"/>
      <point x="207" y="72" type="curve"/>
      <point x="229" y="90"/>
      <point x="244" y="121"/>
    </contour>
  </outline>
</glyph>
<glyph name="dieresis" format="1">
  <advance width="416"/>
  <unicode hex="00A8"/>
  <outline>
    <contour>
      <point x="140" y="528" type="curve" smooth="yes"/>
      <point x="167" y="528"/>
      <point x="181" y="516"/>
      <point x="181" y="497" type="curve" smooth="yes"/>
      <point x="181" y="474"/>
      <point x="152" y="460"/>
      <point x="126" y="460" type="curve" smooth="yes"/>
      <point x="106" y="460"/>
      <point x="91" y="471"/>
      <point x="91" y="489" type="curve" smooth="yes"/>
      <point x="91" y="509"/>
      <point x="115" y="528"/>
    </contour>
    <contour>
      <point x="286" y="528" type="curve" smooth="yes"/>
      <point x="313" y="528"/>
      <point x="326" y="516"/>
      <point x="326" y="497" type="curve" smooth="yes"/>
      <point x="326" y="474"/>
      <point x="298" y="460"/>
      <point x="272" y="460" type="curve" smooth="yes"/>
      <point x="252" y="460"/>
      <point x="237" y="471"/>
      <point x="237" y="489" type="curve" smooth="yes"/>
      <point x="237" y="509"/>
      <point x="261" y="528"/>
    </contour>
  </outline>
</glyph>
<glyph name="copyright" format="1">
  <advance width="712"/>
  <unicode hex="00A9"/>
  <outline>
    <contour>
      <point x="33" y="269" type="curve" smooth="yes"/>
      <point x="33" y="453"/>
      <point x="182" y="602"/>
      <point x="366" y="602" type="curve" smooth="yes"/>
      <point x="550" y="602"/>
      <point x="699" y="453"/>
      <point x="699" y="269" type="curve" smooth="yes"/>
      <point x="699" y="85"/>
      <point x="550" y="-64"/>
      <point x="366" y="-64" type="curve" smooth="yes"/>
      <point x="182" y="-64"/>
      <point x="33" y="85"/>
    </contour>
    <contour>
      <point x="76" y="268" type="curve" smooth="yes"/>
      <point x="76" y="110"/>
      <point x="208" y="-24"/>
      <point x="366" y="-24" type="curve" smooth="yes"/>
      <point x="532" y="-24"/>
      <point x="658" y="110"/>
      <point x="658" y="268" type="curve" smooth="yes"/>
      <point x="658" y="429"/>
      <point x="526" y="563"/>
      <point x="366" y="563" type="curve" smooth="yes"/>
      <point x="208" y="563"/>
      <point x="76" y="429"/>
    </contour>
    <contour>
      <point x="357" y="37" type="curve"/>
      <point x="214" y="40"/>
      <point x="159" y="143"/>
      <point x="159" y="236" type="curve" smooth="yes"/>
      <point x="159" y="363"/>
      <point x="248" y="504"/>
      <point x="417" y="504" type="curve" smooth="yes"/>
      <point x="439" y="504"/>
      <point x="479" y="492"/>
      <point x="503" y="475" type="curve" smooth="yes"/>
      <point x="503" y="474"/>
      <point x="496" y="442"/>
      <point x="491" y="441" type="curve"/>
      <point x="471" y="452"/>
      <point x="437" y="458"/>
      <point x="412" y="458" type="curve" smooth="yes"/>
      <point x="323" y="458"/>
      <point x="240" y="404"/>
      <point x="240" y="239" type="curve" smooth="yes"/>
      <point x="240" y="160"/>
      <point x="285" y="91"/>
      <point x="378" y="89" type="curve" smooth="yes"/>
      <point x="413" y="88"/>
      <point x="463" y="101"/>
      <point x="509" y="124" type="curve"/>
      <point x="514" y="120"/>
      <point x="519" y="101"/>
      <point x="521" y="90" type="curve"/>
      <point x="479" y="67"/>
      <point x="409" y="37"/>
    </contour>
  </outline>
</glyph>
<glyph name="ordfeminine" format="1">
  <advance width="400"/>
  <unicode hex="00AA"/>
  <outline>
    <contour>
      <point x="411" y="585" type="curve"/>
      <point x="379" y="549"/>
      <point x="333" y="298"/>
      <point x="340" y="236" type="curve"/>
      <point x="320" y="238"/>
      <point x="275" y="241"/>
      <point x="246" y="236" type="curve"/>
      <point x="246" y="254"/>
      <point x="263" y="328"/>
      <point x="270" y="363" type="curve"/>
      <point x="216" y="318"/>
      <point x="161" y="272"/>
      <point x="100" y="226" type="curve"/>
      <point x="81" y="239"/>
      <point x="61" y="282"/>
      <point x="61" y="326" type="curve" smooth="yes"/>
      <point x="61" y="457"/>
      <point x="159" y="579"/>
      <point x="288" y="586" type="curve"/>
      <point x="327" y="587"/>
      <point x="380" y="587"/>
    </contour>
    <contour>
      <point x="310" y="543" type="curve"/>
      <point x="202" y="553"/>
      <point x="139" y="472"/>
      <point x="139" y="377" type="curve" smooth="yes"/>
      <point x="139" y="355"/>
      <point x="144" y="331"/>
      <point x="152" y="321" type="curve"/>
      <point x="181" y="341"/>
      <point x="241" y="384"/>
      <point x="283" y="420" type="curve"/>
      <point x="290" y="444"/>
      <point x="310" y="514"/>
    </contour>
  </outline>
</glyph>
<glyph name="guillemotleft" format="1">
  <advance width="377"/>
  <unicode hex="00AB"/>
  <outline>
    <contour>
      <point x="146" y="57" type="curve"/>
      <point x="139" y="52"/>
      <point x="122" y="46"/>
      <point x="112" y="44" type="curve"/>
      <point x="86" y="104"/>
      <point x="68" y="135"/>
      <point x="36" y="188" type="curve"/>
      <point x="79" y="232"/>
      <point x="131" y="291"/>
      <point x="162" y="334" type="curve"/>
      <point x="173" y="332"/>
      <point x="187" y="326"/>
      <point x="194" y="320" type="curve"/>
      <point x="165" y="270"/>
      <point x="143" y="231"/>
      <point x="127" y="189" type="curve"/>
      <point x="130" y="148"/>
      <point x="134" y="108"/>
    </contour>
    <contour>
      <point x="296" y="57" type="curve"/>
      <point x="289" y="52"/>
      <point x="272" y="46"/>
      <point x="262" y="44" type="curve"/>
      <point x="236" y="104"/>
      <point x="218" y="135"/>
      <point x="186" y="188" type="curve"/>
      <point x="229" y="232"/>
      <point x="281" y="291"/>
      <point x="312" y="334" type="curve"/>
      <point x="323" y="332"/>
      <point x="337" y="326"/>
      <point x="344" y="320" type="curve"/>
      <point x="315" y="270"/>
      <point x="293" y="231"/>
      <point x="277" y="189" type="curve"/>
      <point x="280" y="148"/>
      <point x="284" y="108"/>
    </contour>
  </outline>
</glyph>
<glyph name="logicalnot" format="1">
  <advance width="416"/>
  <unicode hex="00AC"/>
  <outline>
    <contour>
      <point x="57" y="275" type="curve"/>
      <point x="158" y="273"/>
      <point x="298" y="274"/>
      <point x="373" y="275" type="curve"/>
      <point x="372" y="223"/>
      <point x="372" y="174"/>
      <point x="372" y="124" type="curve"/>
      <point x="362" y="120"/>
      <point x="342" y="120"/>
      <point x="331" y="120" type="curve"/>
      <point x="332" y="160"/>
      <point x="333" y="195"/>
      <point x="333" y="233" type="curve"/>
      <point x="245" y="235"/>
      <point x="168" y="236"/>
      <point x="54" y="235" type="curve"/>
      <point x="50" y="243"/>
      <point x="55" y="270"/>
    </contour>
  </outline>
</glyph>
<glyph name="uni00AD" format="1">
  <advance width="0"/>
  <unicode hex="00AD"/>
  <outline>
    <contour>
      <point x="-87" y="271" type="curve"/>
      <point x="-57" y="274"/>
      <point x="62" y="292"/>
      <point x="83" y="297" type="curve"/>
      <point x="86" y="285"/>
      <point x="89" y="263"/>
      <point x="83" y="243" type="curve"/>
      <point x="59" y="242"/>
      <point x="-57" y="225"/>
      <point x="-84" y="219" type="curve"/>
      <point x="-87" y="229"/>
      <point x="-87" y="260"/>
    </contour>
  </outline>
</glyph>
<glyph name="registered" format="1">
  <advance width="712"/>
  <unicode hex="00AE"/>
  <outline>
    <contour>
      <point x="33" y="269" type="curve" smooth="yes"/>
      <point x="33" y="453"/>
      <point x="182" y="602"/>
      <point x="366" y="602" type="curve" smooth="yes"/>
      <point x="550" y="602"/>
      <point x="699" y="453"/>
      <point x="699" y="269" type="curve" smooth="yes"/>
      <point x="699" y="85"/>
      <point x="550" y="-64"/>
      <point x="366" y="-64" type="curve" smooth="yes"/>
      <point x="182" y="-64"/>
      <point x="33" y="85"/>
    </contour>
    <contour>
      <point x="76" y="268" type="curve" smooth="yes"/>
      <point x="76" y="110"/>
      <point x="208" y="-24"/>
      <point x="366" y="-24" type="curve" smooth="yes"/>
      <point x="438" y="-24"/>
      <point x="505" y="3"/>
      <point x="556" y="48" type="curve"/>
      <point x="530" y="49"/>
      <point x="490" y="50"/>
      <point x="474" y="44" type="curve"/>
      <point x="439" y="117"/>
      <point x="379" y="233"/>
      <point x="328" y="305" type="curve"/>
      <point x="331" y="310"/>
      <point x="336" y="317"/>
      <point x="340" y="318" type="curve" smooth="yes"/>
      <point x="394" y="327"/>
      <point x="428" y="364"/>
      <point x="428" y="403" type="curve" smooth="yes"/>
      <point x="428" y="440"/>
      <point x="395" y="451"/>
      <point x="353" y="452" type="curve"/>
      <point x="301" y="452" type="line"/>
      <point x="295" y="377"/>
      <point x="298" y="191"/>
      <point x="303" y="48" type="curve"/>
      <point x="280" y="51"/>
      <point x="240" y="52"/>
      <point x="217" y="42" type="curve"/>
      <point x="228" y="128"/>
      <point x="223" y="436"/>
      <point x="219" y="492" type="curve"/>
      <point x="239" y="489"/>
      <point x="329" y="491"/>
      <point x="355" y="491" type="curve" smooth="yes"/>
      <point x="415" y="491"/>
      <point x="514" y="494"/>
      <point x="513" y="414" type="curve" smooth="yes"/>
      <point x="512" y="377"/>
      <point x="491" y="335"/>
      <point x="418" y="307" type="curve"/>
      <point x="458" y="231"/>
      <point x="503" y="151"/>
      <point x="570" y="60" type="curve"/>
      <point x="624" y="114"/>
      <point x="658" y="188"/>
      <point x="658" y="268" type="curve" smooth="yes"/>
      <point x="658" y="429"/>
      <point x="526" y="563"/>
      <point x="366" y="563" type="curve" smooth="yes"/>
      <point x="208" y="563"/>
      <point x="76" y="429"/>
    </contour>
  </outline>
</glyph>
<glyph name="macron" format="1">
  <advance width="416"/>
  <unicode hex="00AF"/>
  <outline>
    <contour>
      <point x="133" y="506" type="curve"/>
      <point x="233" y="504"/>
      <point x="290" y="504"/>
      <point x="365" y="505" type="curve"/>
      <point x="366" y="494"/>
      <point x="364" y="474"/>
      <point x="359" y="464" type="curve"/>
      <point x="263" y="466"/>
      <point x="254" y="467"/>
      <point x="129" y="466" type="curve"/>
      <point x="126" y="474"/>
      <point x="130" y="501"/>
    </contour>
  </outline>
</glyph>
<glyph name="degree" format="1">
  <advance width="332"/>
  <unicode hex="00B0"/>
  <outline>
    <contour>
      <point x="91" y="477" type="curve" smooth="yes"/>
      <point x="91" y="539"/>
      <point x="148" y="597"/>
      <point x="211" y="597" type="curve" smooth="yes"/>
      <point x="277" y="597"/>
      <point x="330" y="553"/>
      <point x="330" y="477" type="curve" smooth="yes"/>
      <point x="330" y="414"/>
      <point x="273" y="358"/>
      <point x="210" y="358" type="curve" smooth="yes"/>
      <point x="144" y="358"/>
      <point x="91" y="403"/>
    </contour>
    <contour>
      <point x="135" y="476" type="curve" smooth="yes"/>
      <point x="135" y="434"/>
      <point x="164" y="400"/>
      <point x="210" y="400" type="curve" smooth="yes"/>
      <point x="252" y="400"/>
      <point x="285" y="434"/>
      <point x="285" y="476" type="curve" smooth="yes"/>
      <point x="285" y="521"/>
      <point x="252" y="553"/>
      <point x="210" y="553" type="curve" smooth="yes"/>
      <point x="168" y="553"/>
      <point x="135" y="519"/>
    </contour>
  </outline>
</glyph>
<glyph name="plusminus" format="1">
  <advance width="416"/>
  <unicode hex="00B1"/>
  <outline>
    <contour>
      <point x="47" y="71" type="curve"/>
      <point x="91" y="69"/>
      <point x="134" y="69"/>
      <point x="184" y="68" type="curve"/>
      <point x="185" y="111"/>
      <point x="186" y="148"/>
      <point x="186" y="191" type="curve"/>
      <point x="140" y="192"/>
      <point x="99" y="192"/>
      <point x="44" y="191" type="curve"/>
      <point x="41" y="200"/>
      <point x="45" y="226"/>
      <point x="47" y="232" type="curve"/>
      <point x="92" y="231"/>
      <point x="136" y="230"/>
      <point x="186" y="230" type="curve"/>
      <point x="187" y="280"/>
      <point x="187" y="317"/>
      <point x="186" y="365" type="curve"/>
      <point x="194" y="367"/>
      <point x="223" y="367"/>
      <point x="229" y="366" type="curve"/>
      <point x="228" y="317"/>
      <point x="228" y="280"/>
      <point x="228" y="230" type="curve"/>
      <point x="280" y="229"/>
      <point x="328" y="229"/>
      <point x="363" y="231" type="curve"/>
      <point x="364" y="220"/>
      <point x="362" y="199"/>
      <point x="357" y="189" type="curve"/>
      <point x="312" y="191"/>
      <point x="274" y="191"/>
      <point x="228" y="191" type="curve"/>
      <point x="228" y="68" type="line"/>
      <point x="281" y="68"/>
      <point x="328" y="68"/>
      <point x="363" y="69" type="curve"/>
      <point x="364" y="58"/>
      <point x="362" y="37"/>
      <point x="357" y="27" type="curve"/>
      <point x="261" y="29"/>
      <point x="169" y="30"/>
      <point x="44" y="29" type="curve"/>
      <point x="41" y="37"/>
      <point x="45" y="65"/>
    </contour>
  </outline>
</glyph>
<glyph name="twosuperior" format="1">
  <advance width="327"/>
  <unicode hex="00B2"/>
  <outline>
    <contour>
      <point x="115" y="566" type="curve"/>
      <point x="151" y="579"/>
      <point x="196" y="590"/>
      <point x="227" y="590" type="curve"/>
      <point x="279" y="593"/>
      <point x="306" y="568"/>
      <point x="306" y="531" type="curve" smooth="yes"/>
      <point x="306" y="479"/>
      <point x="226" y="387"/>
      <point x="152" y="318" type="curve"/>
      <point x="191" y="304"/>
      <point x="265" y="298"/>
      <point x="303" y="307" type="curve"/>
      <point x="290" y="288"/>
      <point x="274" y="242"/>
      <point x="272" y="231" type="curve"/>
      <point x="213" y="229"/>
      <point x="139" y="241"/>
      <point x="97" y="260" type="curve"/>
      <point x="77" y="249"/>
      <point x="70" y="242"/>
      <point x="52" y="230" type="curve"/>
      <point x="49" y="230"/>
      <point x="37" y="245"/>
      <point x="36" y="250" type="curve"/>
      <point x="103" y="310"/>
      <point x="226" y="421"/>
      <point x="226" y="519" type="curve" smooth="yes"/>
      <point x="226" y="536"/>
      <point x="214" y="550"/>
      <point x="191" y="550" type="curve" smooth="yes"/>
      <point x="171" y="550"/>
      <point x="141" y="545"/>
      <point x="120" y="540" type="curve"/>
      <point x="117" y="544"/>
      <point x="115" y="561"/>
    </contour>
  </outline>
</glyph>
<glyph name="threesuperior" format="1">
  <advance width="288"/>
  <unicode hex="00B3"/>
  <outline>
    <contour>
      <point x="98" y="572" type="curve"/>
      <point x="127" y="581"/>
      <point x="173" y="590"/>
      <point x="197" y="590" type="curve" smooth="yes"/>
      <point x="251" y="590"/>
      <point x="288" y="578"/>
      <point x="288" y="538" type="curve" smooth="yes"/>
      <point x="288" y="503"/>
      <point x="250" y="473"/>
      <point x="199" y="451" type="curve"/>
      <point x="256" y="451"/>
      <point x="282" y="429"/>
      <point x="282" y="385" type="curve" smooth="yes"/>
      <point x="282" y="315"/>
      <point x="148" y="237"/>
      <point x="52" y="214" type="curve"/>
      <point x="43" y="222"/>
      <point x="38" y="232"/>
      <point x="35" y="240" type="curve"/>
      <point x="119" y="263"/>
      <point x="203" y="325"/>
      <point x="203" y="380" type="curve" smooth="yes"/>
      <point x="203" y="408"/>
      <point x="187" y="427"/>
      <point x="156" y="427" type="curve" smooth="yes"/>
      <point x="139" y="427"/>
      <point x="133" y="426"/>
      <point x="126" y="424" type="curve"/>
      <point x="123" y="428"/>
      <point x="122" y="449"/>
      <point x="122" y="453" type="curve"/>
      <point x="179" y="465"/>
      <point x="215" y="487"/>
      <point x="215" y="529" type="curve" smooth="yes"/>
      <point x="215" y="548"/>
      <point x="201" y="556"/>
      <point x="174" y="556" type="curve" smooth="yes"/>
      <point x="156" y="556"/>
      <point x="122" y="550"/>
      <point x="104" y="545" type="curve"/>
      <point x="101" y="550"/>
      <point x="98" y="565"/>
    </contour>
  </outline>
</glyph>
<glyph name="acute" format="1">
  <advance width="416"/>
  <unicode hex="00B4"/>
  <outline>
    <contour>
      <point x="330" y="580" type="curve"/>
      <point x="330" y="561"/>
      <point x="340" y="516"/>
      <point x="350" y="495" type="curve"/>
      <point x="279" y="485"/>
      <point x="220" y="474"/>
      <point x="152" y="457" type="curve"/>
      <point x="145" y="483" type="line"/>
      <point x="208" y="511"/>
      <point x="289" y="552"/>
    </contour>
  </outline>
</glyph>
<glyph name="mu" format="1">
  <advance width="403"/>
  <unicode hex="00B5"/>
  <unicode hex="03bc"/>
  <outline>
    <contour>
      <point x="338" y="-1" type="curve"/>
      <point x="321" y="2"/>
      <point x="264" y="2"/>
      <point x="232" y="-2" type="curve"/>
      <point x="244" y="31"/>
      <point x="253" y="62"/>
      <point x="268" y="139" type="curve"/>
      <point x="208" y="80"/>
      <point x="169" y="47"/>
      <point x="89" y="-17" type="curve"/>
      <point x="78" y="-9"/>
      <point x="65" y="7"/>
      <point x="54" y="30" type="curve"/>
      <point x="39" y="-99"/>
      <point x="35" y="-234"/>
      <point x="35" y="-270" type="curve"/>
      <point x="9" y="-270"/>
      <point x="-39" y="-274"/>
      <point x="-69" y="-280" type="curve"/>
      <point x="-38" y="-196"/>
      <point x="16" y="40"/>
      <point x="43" y="161" type="curve" smooth="yes"/>
      <point x="68" y="276"/>
      <point x="82" y="342"/>
      <point x="83" y="391" type="curve"/>
      <point x="105" y="387"/>
      <point x="155" y="387"/>
      <point x="189" y="391" type="curve"/>
      <point x="160" y="322"/>
      <point x="143" y="233"/>
      <point x="130" y="168" type="curve" smooth="yes"/>
      <point x="123" y="130"/>
      <point x="127" y="97"/>
      <point x="141" y="77" type="curve"/>
      <point x="194" y="118"/>
      <point x="221" y="139"/>
      <point x="279" y="196" type="curve"/>
      <point x="290" y="240"/>
      <point x="309" y="331"/>
      <point x="316" y="393" type="curve"/>
      <point x="336" y="387"/>
      <point x="388" y="386"/>
      <point x="417" y="391" type="curve"/>
      <point x="385" y="323"/>
      <point x="332" y="62"/>
    </contour>
  </outline>
</glyph>
<glyph name="paragraph" format="1">
  <advance width="543"/>
  <unicode hex="00B6"/>
  <outline>
    <contour>
      <point x="444" y="-1" type="curve"/>
      <point x="337" y="0" type="line"/>
      <point x="383" y="206"/>
      <point x="407" y="358"/>
      <point x="430" y="546" type="curve"/>
      <point x="424" y="546"/>
      <point x="410" y="547"/>
      <point x="396" y="546" type="curve"/>
      <point x="355" y="338"/>
      <point x="333" y="211"/>
      <point x="298" y="0" type="curve"/>
      <point x="288" y="1"/>
      <point x="266" y="2"/>
      <point x="254" y="-1" type="curve"/>
      <point x="295" y="196"/>
      <point x="319" y="338"/>
      <point x="355" y="546" type="curve"/>
      <point x="288" y="545"/>
      <point x="161" y="518"/>
      <point x="144" y="392" type="curve" smooth="yes"/>
      <point x="140" y="365"/>
      <point x="150" y="324"/>
      <point x="201" y="324" type="curve" smooth="yes"/>
      <point x="219" y="324"/>
      <point x="242" y="328"/>
      <point x="259" y="332" type="curve"/>
      <point x="262" y="326"/>
      <point x="265" y="308"/>
      <point x="265" y="299" type="curve"/>
      <point x="237" y="288"/>
      <point x="203" y="280"/>
      <point x="172" y="280" type="curve" smooth="yes"/>
      <point x="76" y="280"/>
      <point x="51" y="332"/>
      <point x="51" y="377" type="curve" smooth="yes"/>
      <point x="51" y="475"/>
      <point x="186" y="576"/>
      <point x="368" y="584" type="curve"/>
      <point x="403" y="584"/>
      <point x="501" y="587"/>
      <point x="538" y="583" type="curve"/>
      <point x="513" y="508"/>
      <point x="443" y="81"/>
    </contour>
  </outline>
</glyph>
<glyph name="cedilla" format="1">
  <advance width="416"/>
  <unicode hex="00B8"/>
  <outline>
    <contour>
      <point x="63" y="-75" type="curve"/>
      <point x="94" y="-48"/>
      <point x="124" y="-17"/>
      <point x="156" y="12" type="curve"/>
      <point x="184" y="1" type="line"/>
      <point x="174" y="-8"/>
      <point x="154" y="-30"/>
      <point x="144" y="-42" type="curve"/>
      <point x="209" y="-47"/>
      <point x="229" y="-74"/>
      <point x="229" y="-116" type="curve" smooth="yes"/>
      <point x="229" y="-153"/>
      <point x="171" y="-214"/>
      <point x="125" y="-248" type="curve"/>
      <point x="117" y="-245"/>
      <point x="108" y="-238"/>
      <point x="104" y="-231" type="curve"/>
      <point x="133" y="-204"/>
      <point x="157" y="-175"/>
      <point x="157" y="-150" type="curve" smooth="yes"/>
      <point x="157" y="-121"/>
      <point x="134" y="-94"/>
      <point x="76" y="-98" type="curve"/>
      <point x="70" y="-94"/>
      <point x="65" y="-82"/>
    </contour>
  </outline>
</glyph>
<glyph name="onesuperior" format="1">
  <advance width="266"/>
  <unicode hex="00B9"/>
  <outline>
    <contour>
      <point x="99" y="229" type="curve"/>
      <point x="130" y="322"/>
      <point x="154" y="467"/>
      <point x="161" y="526" type="curve"/>
      <point x="132" y="524"/>
      <point x="109" y="520"/>
      <point x="80" y="514" type="curve"/>
      <point x="78" y="521"/>
      <point x="77" y="535"/>
      <point x="77" y="546" type="curve"/>
      <point x="104" y="552"/>
      <point x="201" y="577"/>
      <point x="238" y="592" type="curve"/>
      <point x="245" y="591"/>
      <point x="252" y="588"/>
      <point x="257" y="584" type="curve"/>
      <point x="236" y="522"/>
      <point x="206" y="360"/>
      <point x="198" y="236" type="curve"/>
      <point x="175" y="236"/>
      <point x="122" y="234"/>
    </contour>
  </outline>
</glyph>
<glyph name="ordmasculine" format="1">
  <advance width="305"/>
  <unicode hex="00BA"/>
  <outline>
    <contour>
      <point x="132" y="218" type="curve"/>
      <point x="82" y="245"/>
      <point x="49" y="309"/>
      <point x="51" y="359" type="curve" smooth="yes"/>
      <point x="55" y="473"/>
      <point x="141" y="549"/>
      <point x="238" y="603" type="curve"/>
      <point x="289" y="571"/>
      <point x="312" y="515"/>
      <point x="311" y="464" type="curve" smooth="yes"/>
      <point x="309" y="361"/>
      <point x="221" y="272"/>
    </contour>
    <contour>
      <point x="123" y="400" type="curve" smooth="yes"/>
      <point x="122" y="350"/>
      <point x="140" y="315"/>
      <point x="165" y="293" type="curve"/>
      <point x="218" y="330"/>
      <point x="240" y="385"/>
      <point x="240" y="437" type="curve" smooth="yes"/>
      <point x="240" y="480"/>
      <point x="222" y="512"/>
      <point x="200" y="531" type="curve"/>
      <point x="153" y="501"/>
      <point x="124" y="444"/>
    </contour>
  </outline>
</glyph>
<glyph name="guillemotright" format="1">
  <advance width="377"/>
  <unicode hex="00BB"/>
  <outline>
    <contour>
      <point x="219" y="321" type="curve"/>
      <point x="226" y="326"/>
      <point x="243" y="332"/>
      <point x="253" y="334" type="curve"/>
      <point x="279" y="274"/>
      <point x="297" y="243"/>
      <point x="329" y="190" type="curve"/>
      <point x="286" y="146"/>
      <point x="234" y="87"/>
      <point x="203" y="44" type="curve"/>
      <point x="192" y="46"/>
      <point x="178" y="52"/>
      <point x="171" y="58" type="curve"/>
      <point x="200" y="108"/>
      <point x="222" y="147"/>
      <point x="238" y="189" type="curve"/>
      <point x="235" y="230"/>
      <point x="231" y="270"/>
    </contour>
    <contour>
      <point x="69" y="321" type="curve"/>
      <point x="76" y="326"/>
      <point x="93" y="332"/>
      <point x="103" y="334" type="curve"/>
      <point x="129" y="274"/>
      <point x="147" y="243"/>
      <point x="179" y="190" type="curve"/>
      <point x="136" y="146"/>
      <point x="84" y="87"/>
      <point x="53" y="44" type="curve"/>
      <point x="42" y="46"/>
      <point x="28" y="52"/>
      <point x="21" y="58" type="curve"/>
      <point x="50" y="108"/>
      <point x="72" y="147"/>
      <point x="88" y="189" type="curve"/>
      <point x="85" y="230"/>
      <point x="81" y="270"/>
    </contour>
  </outline>
</glyph>
<glyph name="onequarter" format="1">
  <advance width="697"/>
  <unicode hex="00BC"/>
  <outline>
    <contour>
      <point x="517" y="-2" type="curve"/>
      <point x="529" y="27"/>
      <point x="539" y="66"/>
      <point x="546" y="111" type="curve"/>
      <point x="498" y="112"/>
      <point x="434" y="112"/>
      <point x="397" y="112" type="curve"/>
      <point x="395" y="114"/>
      <point x="392" y="132"/>
      <point x="392" y="136" type="curve"/>
      <point x="449" y="201"/>
      <point x="547" y="320"/>
      <point x="589" y="374" type="curve"/>
      <point x="595" y="371"/>
      <point x="608" y="360"/>
      <point x="611" y="352" type="curve"/>
      <point x="558" y="288"/>
      <point x="498" y="212"/>
      <point x="450" y="146" type="curve"/>
      <point x="487" y="145"/>
      <point x="519" y="144"/>
      <point x="550" y="144" type="curve"/>
      <point x="556" y="166"/>
      <point x="561" y="199"/>
      <point x="562" y="231" type="curve"/>
      <point x="578" y="231"/>
      <point x="634" y="237"/>
      <point x="651" y="246" type="curve"/>
      <point x="641" y="222"/>
      <point x="636" y="194"/>
      <point x="625" y="145" type="curve"/>
      <point x="635" y="145"/>
      <point x="643" y="145"/>
      <point x="654" y="146" type="curve"/>
      <point x="653" y="136"/>
      <point x="650" y="118"/>
      <point x="646" y="110" type="curve"/>
      <point x="620" y="110" type="line"/>
      <point x="615" y="89"/>
      <point x="607" y="32"/>
      <point x="607" y="0" type="curve"/>
      <point x="592" y="2"/>
      <point x="537" y="4"/>
    </contour>
    <contour>
      <point x="99" y="229" type="curve"/>
      <point x="130" y="322"/>
      <point x="154" y="467"/>
      <point x="161" y="526" type="curve"/>
      <point x="132" y="524"/>
      <point x="109" y="520"/>
      <point x="80" y="514" type="curve"/>
      <point x="78" y="521"/>
      <point x="77" y="535"/>
      <point x="77" y="546" type="curve"/>
      <point x="104" y="552"/>
      <point x="201" y="577"/>
      <point x="238" y="592" type="curve"/>
      <point x="245" y="591"/>
      <point x="252" y="588"/>
      <point x="257" y="584" type="curve"/>
      <point x="236" y="522"/>
      <point x="206" y="360"/>
      <point x="198" y="236" type="curve"/>
      <point x="175" y="236"/>
      <point x="122" y="234"/>
    </contour>
    <contour>
      <point x="623" y="593" type="curve"/>
      <point x="473" y="422"/>
      <point x="238" y="151"/>
      <point x="94" y="-20" type="curve"/>
      <point x="82" y="-19"/>
      <point x="64" y="-17"/>
      <point x="56" y="-8" type="curve"/>
      <point x="204" y="163"/>
      <point x="441" y="434"/>
      <point x="584" y="605" type="curve"/>
      <point x="596" y="604"/>
      <point x="619" y="598"/>
    </contour>
  </outline>
</glyph>
<glyph name="onehalf" format="1">
  <advance width="704"/>
  <unicode hex="00BD"/>
  <outline>
    <contour>
      <point x="623" y="593" type="curve"/>
      <point x="473" y="422"/>
      <point x="238" y="151"/>
      <point x="94" y="-20" type="curve"/>
      <point x="82" y="-19"/>
      <point x="64" y="-17"/>
      <point x="56" y="-8" type="curve"/>
      <point x="204" y="163"/>
      <point x="441" y="434"/>
      <point x="584" y="605" type="curve"/>
      <point x="596" y="604"/>
      <point x="619" y="598"/>
    </contour>
    <contour>
      <point x="99" y="229" type="curve"/>
      <point x="130" y="322"/>
      <point x="154" y="467"/>
      <point x="161" y="526" type="curve"/>
      <point x="132" y="524"/>
      <point x="109" y="520"/>
      <point x="80" y="514" type="curve"/>
      <point x="78" y="521"/>
      <point x="77" y="535"/>
      <point x="77" y="546" type="curve"/>
      <point x="104" y="552"/>
      <point x="201" y="577"/>
      <point x="238" y="592" type="curve"/>
      <point x="245" y="591"/>
      <point x="252" y="588"/>
      <point x="257" y="584" type="curve"/>
      <point x="236" y="522"/>
      <point x="206" y="360"/>
      <point x="198" y="236" type="curve"/>
      <point x="175" y="236"/>
      <point x="122" y="234"/>
    </contour>
    <contour>
      <point x="469" y="329" type="curve"/>
      <point x="505" y="342"/>
      <point x="550" y="353"/>
      <point x="581" y="353" type="curve"/>
      <point x="633" y="356"/>
      <point x="660" y="331"/>
      <point x="660" y="294" type="curve" smooth="yes"/>
      <point x="660" y="242"/>
      <point x="580" y="150"/>
      <point x="506" y="81" type="curve"/>
      <point x="545" y="67"/>
      <point x="619" y="61"/>
      <point x="657" y="70" type="curve"/>
      <point x="644" y="51"/>
      <point x="628" y="5"/>
      <point x="626" y="-6" type="curve"/>
      <point x="567" y="-8"/>
      <point x="493" y="4"/>
      <point x="451" y="23" type="curve"/>
      <point x="431" y="12"/>
      <point x="424" y="5"/>
      <point x="406" y="-7" type="curve"/>
      <point x="403" y="-7"/>
      <point x="391" y="8"/>
      <point x="390" y="13" type="curve"/>
      <point x="457" y="73"/>
      <point x="580" y="184"/>
      <point x="580" y="282" type="curve" smooth="yes"/>
      <point x="580" y="299"/>
      <point x="568" y="313"/>
      <point x="545" y="313" type="curve" smooth="yes"/>
      <point x="525" y="313"/>
      <point x="495" y="308"/>
      <point x="474" y="303" type="curve"/>
      <point x="471" y="307"/>
      <point x="469" y="324"/>
    </contour>
  </outline>
</glyph>
<glyph name="threequarters" format="1">
  <advance width="686"/>
  <unicode hex="00BE"/>
  <outline>
    <contour>
      <point x="517" y="-2" type="curve"/>
      <point x="529" y="27"/>
      <point x="539" y="66"/>
      <point x="546" y="111" type="curve"/>
      <point x="498" y="112"/>
      <point x="434" y="112"/>
      <point x="397" y="112" type="curve"/>
      <point x="395" y="114"/>
      <point x="392" y="132"/>
      <point x="392" y="136" type="curve"/>
      <point x="449" y="201"/>
      <point x="547" y="320"/>
      <point x="589" y="374" type="curve"/>
      <point x="595" y="371"/>
      <point x="608" y="360"/>
      <point x="611" y="352" type="curve"/>
      <point x="558" y="288"/>
      <point x="498" y="212"/>
      <point x="450" y="146" type="curve"/>
      <point x="487" y="145"/>
      <point x="519" y="144"/>
      <point x="550" y="144" type="curve"/>
      <point x="556" y="166"/>
      <point x="561" y="199"/>
      <point x="562" y="231" type="curve"/>
      <point x="578" y="231"/>
      <point x="634" y="237"/>
      <point x="651" y="246" type="curve"/>
      <point x="641" y="222"/>
      <point x="636" y="194"/>
      <point x="625" y="145" type="curve"/>
      <point x="635" y="145"/>
      <point x="643" y="145"/>
      <point x="654" y="146" type="curve"/>
      <point x="653" y="136"/>
      <point x="650" y="118"/>
      <point x="646" y="110" type="curve"/>
      <point x="620" y="110" type="line"/>
      <point x="615" y="89"/>
      <point x="607" y="32"/>
      <point x="607" y="0" type="curve"/>
      <point x="592" y="2"/>
      <point x="537" y="4"/>
    </contour>
    <contour>
      <point x="98" y="572" type="curve"/>
      <point x="127" y="581"/>
      <point x="173" y="590"/>
      <point x="197" y="590" type="curve" smooth="yes"/>
      <point x="251" y="590"/>
      <point x="288" y="578"/>
      <point x="288" y="538" type="curve" smooth="yes"/>
      <point x="288" y="503"/>
      <point x="250" y="473"/>
      <point x="199" y="451" type="curve"/>
      <point x="256" y="451"/>
      <point x="282" y="429"/>
      <point x="282" y="385" type="curve" smooth="yes"/>
      <point x="282" y="315"/>
      <point x="148" y="237"/>
      <point x="52" y="214" type="curve"/>
      <point x="43" y="222"/>
      <point x="38" y="232"/>
      <point x="35" y="240" type="curve"/>
      <point x="119" y="263"/>
      <point x="203" y="325"/>
      <point x="203" y="380" type="curve" smooth="yes"/>
      <point x="203" y="408"/>
      <point x="187" y="427"/>
      <point x="156" y="427" type="curve" smooth="yes"/>
      <point x="139" y="427"/>
      <point x="133" y="426"/>
      <point x="126" y="424" type="curve"/>
      <point x="123" y="428"/>
      <point x="122" y="449"/>
      <point x="122" y="453" type="curve"/>
      <point x="179" y="465"/>
      <point x="215" y="487"/>
      <point x="215" y="529" type="curve" smooth="yes"/>
      <point x="215" y="548"/>
      <point x="201" y="556"/>
      <point x="174" y="556" type="curve" smooth="yes"/>
      <point x="156" y="556"/>
      <point x="122" y="550"/>
      <point x="104" y="545" type="curve"/>
      <point x="101" y="550"/>
      <point x="98" y="565"/>
    </contour>
    <contour>
      <point x="631" y="593" type="curve"/>
      <point x="481" y="422"/>
      <point x="246" y="151"/>
      <point x="102" y="-20" type="curve"/>
      <point x="90" y="-19"/>
      <point x="72" y="-17"/>
      <point x="64" y="-8" type="curve"/>
      <point x="212" y="163"/>
      <point x="449" y="434"/>
      <point x="592" y="605" type="curve"/>
      <point x="604" y="604"/>
      <point x="627" y="598"/>
    </contour>
  </outline>
</glyph>
<glyph name="questiondown" format="1">
  <advance width="256"/>
  <unicode hex="00BF"/>
  <outline>
    <contour>
      <point x="145" y="244" type="curve"/>
      <point x="168" y="200"/>
      <point x="183" y="167"/>
      <point x="182" y="129" type="curve"/>
      <point x="182" y="76"/>
      <point x="92" y="20"/>
      <point x="90" y="-40" type="curve" smooth="yes"/>
      <point x="88" y="-85"/>
      <point x="103" y="-123"/>
      <point x="133" y="-192" type="curve"/>
      <point x="125" y="-199"/>
      <point x="108" y="-206"/>
      <point x="99" y="-207" type="curve"/>
      <point x="50" y="-139"/>
      <point x="6" y="-56"/>
      <point x="7" y="-16" type="curve" smooth="yes"/>
      <point x="9" y="60"/>
      <point x="121" y="106"/>
      <point x="121" y="185" type="curve" smooth="yes"/>
      <point x="121" y="206"/>
      <point x="118" y="219"/>
      <point x="114" y="232" type="curve"/>
      <point x="122" y="237"/>
      <point x="135" y="244"/>
    </contour>
    <contour>
      <point x="150" y="311" type="curve" smooth="yes"/>
      <point x="117" y="311"/>
      <point x="100" y="326"/>
      <point x="100" y="349" type="curve" smooth="yes"/>
      <point x="100" y="378"/>
      <point x="136" y="395"/>
      <point x="168" y="395" type="curve" smooth="yes"/>
      <point x="192" y="395"/>
      <point x="211" y="381"/>
      <point x="211" y="361" type="curve" smooth="yes"/>
      <point x="211" y="334"/>
      <point x="181" y="311"/>
    </contour>
  </outline>
</glyph>
<glyph name="Atilde" format="1">
  <advance width="542"/>
  <unicode hex="00C3"/>
  <outline>
    <contour>
      <point x="344" y="-1" type="curve"/>
      <point x="351" y="22"/>
      <point x="344" y="130"/>
      <point x="335" y="220" type="curve"/>
      <point x="275" y="214"/>
      <point x="211" y="206"/>
      <point x="165" y="197" type="curve"/>
      <point x="130" y="132"/>
      <point x="99" y="63"/>
      <point x="82" y="6" type="curve"/>
      <point x="55" y="2"/>
      <point x="-5" y="-3"/>
      <point x="-28" y="-10" type="curve"/>
      <point x="38" y="59"/>
      <point x="331" y="567"/>
      <point x="324" y="578" type="curve"/>
      <point x="340" y="588"/>
      <point x="370" y="598"/>
      <point x="382" y="603" type="curve"/>
      <point x="390" y="460"/>
      <point x="430" y="103"/>
      <point x="479" y="-1" type="curve"/>
      <point x="419" y="5"/>
      <point x="375" y="1"/>
    </contour>
    <contour>
      <point x="331" y="256" type="curve"/>
      <point x="328" y="303"/>
      <point x="323" y="344"/>
      <point x="314" y="410" type="curve" smooth="yes"/>
      <point x="312" y="427"/>
      <point x="310" y="439"/>
      <point x="309" y="460" type="curve"/>
      <point x="261" y="380"/>
      <point x="231" y="325"/>
      <point x="186" y="242" type="curve"/>
      <point x="245" y="245"/>
      <point x="280" y="248"/>
    </contour>
    <contour>
      <point x="393" y="633" type="curve" smooth="yes"/>
      <point x="376" y="633"/>
      <point x="342" y="651"/>
      <point x="325" y="651" type="curve" smooth="yes"/>
      <point x="309" y="651"/>
      <point x="286" y="642"/>
      <point x="260" y="627" type="curve"/>
      <point x="253" y="636"/>
      <point x="250" y="643"/>
      <point x="247" y="651" type="curve"/>
      <point x="280" y="676"/>
      <point x="333" y="712"/>
      <point x="354" y="711" type="curve" smooth="yes"/>
      <point x="373" y="711"/>
      <point x="405" y="696"/>
      <point x="423" y="695" type="curve"/>
      <point x="443" y="695"/>
      <point x="463" y="703"/>
      <point x="488" y="717" type="curve"/>
      <point x="494" y="709"/>
      <point x="498" y="701"/>
      <point x="500" y="691" type="curve"/>
      <point x="462" y="661"/>
      <point x="413" y="632"/>
    </contour>
  </outline>
</glyph>
<glyph name="Adieresis" format="1">
  <advance width="542"/>
  <unicode hex="00C4"/>
  <outline>
    <contour>
      <point x="344" y="-1" type="curve"/>
      <point x="351" y="22"/>
      <point x="344" y="130"/>
      <point x="335" y="220" type="curve"/>
      <point x="275" y="214"/>
      <point x="211" y="206"/>
      <point x="165" y="197" type="curve"/>
      <point x="130" y="132"/>
      <point x="99" y="63"/>
      <point x="82" y="6" type="curve"/>
      <point x="55" y="2"/>
      <point x="-5" y="-3"/>
      <point x="-28" y="-10" type="curve"/>
      <point x="38" y="59"/>
      <point x="331" y="567"/>
      <point x="324" y="578" type="curve"/>
      <point x="340" y="588"/>
      <point x="370" y="598"/>
      <point x="382" y="603" type="curve"/>
      <point x="390" y="460"/>
      <point x="430" y="103"/>
      <point x="479" y="-1" type="curve"/>
      <point x="419" y="5"/>
      <point x="375" y="1"/>
    </contour>
    <contour>
      <point x="331" y="256" type="curve"/>
      <point x="328" y="303"/>
      <point x="323" y="344"/>
      <point x="314" y="410" type="curve" smooth="yes"/>
      <point x="312" y="427"/>
      <point x="310" y="439"/>
      <point x="309" y="460" type="curve"/>
      <point x="261" y="380"/>
      <point x="231" y="325"/>
      <point x="186" y="242" type="curve"/>
      <point x="245" y="245"/>
      <point x="280" y="248"/>
    </contour>
    <contour>
      <point x="301" y="704" type="curve" smooth="yes"/>
      <point x="328" y="704"/>
      <point x="342" y="692"/>
      <point x="342" y="673" type="curve" smooth="yes"/>
      <point x="342" y="650"/>
      <point x="313" y="636"/>
      <point x="287" y="636" type="curve" smooth="yes"/>
      <point x="267" y="636"/>
      <point x="252" y="647"/>
      <point x="252" y="665" type="curve" smooth="yes"/>
      <point x="252" y="685"/>
      <point x="276" y="704"/>
    </contour>
    <contour>
      <point x="447" y="704" type="curve" smooth="yes"/>
      <point x="474" y="704"/>
      <point x="487" y="692"/>
      <point x="487" y="673" type="curve" smooth="yes"/>
      <point x="487" y="650"/>
      <point x="459" y="636"/>
      <point x="433" y="636" type="curve" smooth="yes"/>
      <point x="413" y="636"/>
      <point x="398" y="647"/>
      <point x="398" y="665" type="curve" smooth="yes"/>
      <point x="398" y="685"/>
      <point x="422" y="704"/>
    </contour>
  </outline>
</glyph>
<glyph name="Aring" format="1">
  <advance width="542"/>
  <unicode hex="00C5"/>
  <outline>
    <contour>
      <point x="344" y="-1" type="curve"/>
      <point x="351" y="22"/>
      <point x="344" y="130"/>
      <point x="335" y="220" type="curve"/>
      <point x="275" y="214"/>
      <point x="211" y="206"/>
      <point x="165" y="197" type="curve"/>
      <point x="130" y="132"/>
      <point x="99" y="63"/>
      <point x="82" y="6" type="curve"/>
      <point x="55" y="2"/>
      <point x="-5" y="-3"/>
      <point x="-28" y="-10" type="curve"/>
      <point x="38" y="59"/>
      <point x="331" y="567"/>
      <point x="324" y="578" type="curve"/>
      <point x="340" y="588"/>
      <point x="370" y="598"/>
      <point x="382" y="603" type="curve"/>
      <point x="390" y="460"/>
      <point x="430" y="103"/>
      <point x="479" y="-1" type="curve"/>
      <point x="419" y="5"/>
      <point x="375" y="1"/>
    </contour>
    <contour>
      <point x="331" y="256" type="curve"/>
      <point x="328" y="303"/>
      <point x="323" y="344"/>
      <point x="314" y="410" type="curve" smooth="yes"/>
      <point x="312" y="427"/>
      <point x="310" y="439"/>
      <point x="309" y="460" type="curve"/>
      <point x="261" y="380"/>
      <point x="231" y="325"/>
      <point x="186" y="242" type="curve"/>
      <point x="245" y="245"/>
      <point x="280" y="248"/>
    </contour>
    <contour>
      <point x="392" y="747" type="curve" smooth="yes"/>
      <point x="449" y="747"/>
      <point x="475" y="723"/>
      <point x="475" y="701" type="curve" smooth="yes"/>
      <point x="475" y="647"/>
      <point x="403" y="620"/>
      <point x="349" y="621" type="curve" smooth="yes"/>
      <point x="308" y="621"/>
      <point x="277" y="643"/>
      <point x="277" y="674" type="curve" smooth="yes"/>
      <point x="277" y="706"/>
      <point x="328" y="747"/>
    </contour>
    <contour>
      <point x="380" y="716" type="curve" smooth="yes"/>
      <point x="355" y="716"/>
      <point x="336" y="700"/>
      <point x="336" y="679" type="curve" smooth="yes"/>
      <point x="336" y="667"/>
      <point x="344" y="651"/>
      <point x="367" y="651" type="curve" smooth="yes"/>
      <point x="394" y="651"/>
      <point x="412" y="669"/>
      <point x="412" y="690" type="curve" smooth="yes"/>
      <point x="412" y="712"/>
      <point x="393" y="716"/>
    </contour>
  </outline>
</glyph>
<glyph name="AE" format="1">
  <advance width="776"/>
  <unicode hex="00C6"/>
  <outline>
    <contour>
      <point x="519" y="534" type="curve"/>
      <point x="509" y="495"/>
      <point x="490" y="375"/>
      <point x="487" y="352" type="curve"/>
      <point x="563" y="351"/>
      <point x="656" y="358"/>
      <point x="736" y="365" type="curve"/>
      <point x="730" y="331" type="line"/>
      <point x="673" y="328"/>
      <point x="546" y="315"/>
      <point x="478" y="306" type="curve"/>
      <point x="467" y="247"/>
      <point x="446" y="117"/>
      <point x="451" y="52" type="curve"/>
      <point x="524" y="42"/>
      <point x="639" y="37"/>
      <point x="755" y="33" type="curve"/>
      <point x="750" y="-2" type="line"/>
      <point x="515" y="2"/>
      <point x="457" y="1"/>
      <point x="343" y="-2" type="curve"/>
      <point x="362" y="33"/>
      <point x="386" y="127"/>
      <point x="405" y="233" type="curve"/>
      <point x="343" y="228"/>
      <point x="258" y="219"/>
      <point x="209" y="210" type="curve"/>
      <point x="161" y="143"/>
      <point x="112" y="63"/>
      <point x="84" y="6" type="curve"/>
      <point x="57" y="3"/>
      <point x="-6" y="-3"/>
      <point x="-32" y="-10" type="curve"/>
      <point x="68" y="87"/>
      <point x="398" y="521"/>
      <point x="439" y="583" type="curve"/>
      <point x="564" y="579"/>
      <point x="676" y="578"/>
      <point x="774" y="581" type="curve"/>
      <point x="764" y="547" type="line"/>
      <point x="663" y="544"/>
      <point x="612" y="542"/>
    </contour>
    <contour>
      <point x="237" y="253" type="curve"/>
      <point x="290" y="255"/>
      <point x="355" y="261"/>
      <point x="410" y="266" type="curve"/>
      <point x="426" y="357"/>
      <point x="439" y="440"/>
      <point x="445" y="524" type="curve"/>
      <point x="350" y="408"/>
      <point x="299" y="335"/>
    </contour>
  </outline>
</glyph>
<glyph name="Ccedilla" format="1">
  <advance width="552"/>
  <unicode hex="00C7"/>
  <outline>
    <contour>
      <point x="527" y="569" type="curve"/>
      <point x="526" y="557"/>
      <point x="519" y="539"/>
      <point x="515" y="531" type="curve"/>
      <point x="480" y="543"/>
      <point x="439" y="551"/>
      <point x="405" y="551" type="curve" smooth="yes"/>
      <point x="260" y="551"/>
      <point x="141" y="400"/>
      <point x="141" y="246" type="curve" smooth="yes"/>
      <point x="141" y="143"/>
      <point x="184" y="48"/>
      <point x="309" y="48" type="curve" smooth="yes"/>
      <point x="354" y="48"/>
      <point x="449" y="80"/>
      <point x="501" y="110" type="curve"/>
      <point x="509" y="105"/>
      <point x="515" y="83"/>
      <point x="516" y="76" type="curve"/>
      <point x="449" y="40"/>
      <point x="363" y="-1"/>
      <point x="285" y="-9" type="curve"/>
      <point x="274" y="-18"/>
      <point x="257" y="-32"/>
      <point x="249" y="-42" type="curve"/>
      <point x="315" y="-47"/>
      <point x="337" y="-77"/>
      <point x="337" y="-118" type="curve" smooth="yes"/>
      <point x="337" y="-152"/>
      <point x="279" y="-214"/>
      <point x="242" y="-241" type="curve"/>
      <point x="231" y="-236"/>
      <point x="225" y="-231"/>
      <point x="221" y="-224" type="curve"/>
      <point x="250" y="-197"/>
      <point x="278" y="-164"/>
      <point x="278" y="-139" type="curve" smooth="yes"/>
      <point x="278" y="-110"/>
      <point x="254" y="-82"/>
      <point x="196" y="-87" type="curve"/>
      <point x="190" y="-82"/>
      <point x="185" y="-71"/>
      <point x="182" y="-64" type="curve"/>
      <point x="205" y="-44"/>
      <point x="221" y="-28"/>
      <point x="241" y="-9" type="curve"/>
      <point x="109" y="1"/>
      <point x="46" y="119"/>
      <point x="46" y="221" type="curve" smooth="yes"/>
      <point x="46" y="429"/>
      <point x="239" y="594"/>
      <point x="392" y="594" type="curve"/>
      <point x="407" y="595"/>
      <point x="471" y="588"/>
    </contour>
  </outline>
</glyph>
<glyph name="Eacute" format="1">
  <advance width="467"/>
  <unicode hex="00C9"/>
  <outline>
    <contour>
      <point x="117" y="583" type="curve"/>
      <point x="201" y="579"/>
      <point x="350" y="580"/>
      <point x="466" y="583" type="curve"/>
      <point x="456" y="546" type="line"/>
      <point x="354" y="543"/>
      <point x="308" y="541"/>
      <point x="214" y="533" type="curve"/>
      <point x="204" y="494"/>
      <point x="186" y="375"/>
      <point x="183" y="352" type="curve"/>
      <point x="251" y="352"/>
      <point x="347" y="357"/>
      <point x="427" y="365" type="curve"/>
      <point x="420" y="329" type="line"/>
      <point x="363" y="325"/>
      <point x="242" y="315"/>
      <point x="174" y="306" type="curve"/>
      <point x="163" y="247"/>
      <point x="142" y="117"/>
      <point x="147" y="52" type="curve"/>
      <point x="219" y="42"/>
      <point x="331" y="40"/>
      <point x="447" y="37" type="curve"/>
      <point x="442" y="-2" type="line"/>
      <point x="207" y="2"/>
      <point x="130" y="1"/>
      <point x="16" y="-2" type="curve"/>
      <point x="62" y="82"/>
      <point x="131" y="515"/>
    </contour>
    <contour>
      <point x="398" y="756" type="curve"/>
      <point x="398" y="737"/>
      <point x="408" y="692"/>
      <point x="418" y="671" type="curve"/>
      <point x="347" y="661"/>
      <point x="288" y="650"/>
      <point x="220" y="633" type="curve"/>
      <point x="213" y="659" type="line"/>
      <point x="276" y="687"/>
      <point x="357" y="728"/>
    </contour>
  </outline>
</glyph>
<glyph name="Ecircumflex" format="1">
  <advance width="467"/>
  <unicode hex="00CA"/>
  <outline>
    <contour>
      <point x="117" y="583" type="curve"/>
      <point x="201" y="579"/>
      <point x="350" y="580"/>
      <point x="466" y="583" type="curve"/>
      <point x="456" y="546" type="line"/>
      <point x="354" y="543"/>
      <point x="308" y="541"/>
      <point x="214" y="533" type="curve"/>
      <point x="204" y="494"/>
      <point x="186" y="375"/>
      <point x="183" y="352" type="curve"/>
      <point x="251" y="352"/>
      <point x="347" y="357"/>
      <point x="427" y="365" type="curve"/>
      <point x="420" y="329" type="line"/>
      <point x="363" y="325"/>
      <point x="242" y="315"/>
      <point x="174" y="306" type="curve"/>
      <point x="163" y="247"/>
      <point x="142" y="117"/>
      <point x="147" y="52" type="curve"/>
      <point x="219" y="42"/>
      <point x="331" y="40"/>
      <point x="447" y="37" type="curve"/>
      <point x="442" y="-2" type="line"/>
      <point x="207" y="2"/>
      <point x="130" y="1"/>
      <point x="16" y="-2" type="curve"/>
      <point x="62" y="82"/>
      <point x="131" y="515"/>
    </contour>
    <contour>
      <point x="204" y="633" type="curve"/>
      <point x="200" y="636"/>
      <point x="196" y="655"/>
      <point x="196" y="664" type="curve"/>
      <point x="233" y="685"/>
      <point x="274" y="707"/>
      <point x="325" y="744" type="curve"/>
      <point x="353" y="715"/>
      <point x="385" y="685"/>
      <point x="416" y="661" type="curve"/>
      <point x="414" y="654"/>
      <point x="406" y="639"/>
      <point x="400" y="634" type="curve"/>
      <point x="370" y="649"/>
      <point x="342" y="658"/>
      <point x="311" y="665" type="curve"/>
      <point x="276" y="658"/>
      <point x="248" y="650"/>
    </contour>
  </outline>
</glyph>
<glyph name="Edieresis" format="1">
  <advance width="467"/>
  <unicode hex="00CB"/>
  <outline>
    <contour>
      <point x="117" y="583" type="curve"/>
      <point x="201" y="579"/>
      <point x="350" y="580"/>
      <point x="466" y="583" type="curve"/>
      <point x="456" y="546" type="line"/>
      <point x="354" y="543"/>
      <point x="308" y="541"/>
      <point x="214" y="533" type="curve"/>
      <point x="204" y="494"/>
      <point x="186" y="375"/>
      <point x="183" y="352" type="curve"/>
      <point x="251" y="352"/>
      <point x="347" y="357"/>
      <point x="427" y="365" type="curve"/>
      <point x="420" y="329" type="line"/>
      <point x="363" y="325"/>
      <point x="242" y="315"/>
      <point x="174" y="306" type="curve"/>
      <point x="163" y="247"/>
      <point x="142" y="117"/>
      <point x="147" y="52" type="curve"/>
      <point x="219" y="42"/>
      <point x="331" y="40"/>
      <point x="447" y="37" type="curve"/>
      <point x="442" y="-2" type="line"/>
      <point x="207" y="2"/>
      <point x="130" y="1"/>
      <point x="16" y="-2" type="curve"/>
      <point x="62" y="82"/>
      <point x="131" y="515"/>
    </contour>
    <contour>
      <point x="239" y="704" type="curve" smooth="yes"/>
      <point x="266" y="704"/>
      <point x="280" y="692"/>
      <point x="280" y="673" type="curve" smooth="yes"/>
      <point x="280" y="650"/>
      <point x="251" y="636"/>
      <point x="225" y="636" type="curve" smooth="yes"/>
      <point x="205" y="636"/>
      <point x="190" y="647"/>
      <point x="190" y="665" type="curve" smooth="yes"/>
      <point x="190" y="685"/>
      <point x="214" y="704"/>
    </contour>
    <contour>
      <point x="385" y="704" type="curve" smooth="yes"/>
      <point x="412" y="704"/>
      <point x="425" y="692"/>
      <point x="425" y="673" type="curve" smooth="yes"/>
      <point x="425" y="650"/>
      <point x="397" y="636"/>
      <point x="371" y="636" type="curve" smooth="yes"/>
      <point x="351" y="636"/>
      <point x="336" y="647"/>
      <point x="336" y="665" type="curve" smooth="yes"/>
      <point x="336" y="685"/>
      <point x="360" y="704"/>
    </contour>
  </outline>
</glyph>
<glyph name="Igrave" format="1">
  <advance width="236"/>
  <unicode hex="00CC"/>
  <outline>
    <contour>
      <point x="233" y="583" type="curve"/>
      <point x="191" y="465"/>
      <point x="139" y="100"/>
      <point x="137" y="-2" type="curve"/>
      <point x="120" y="-1"/>
      <point x="51" y="1"/>
      <point x="29" y="-2" type="curve"/>
      <point x="60" y="138"/>
      <point x="115" y="414"/>
      <point x="120" y="583" type="curve"/>
      <point x="146" y="580"/>
      <point x="208" y="579"/>
    </contour>
    <contour>
      <point x="109" y="760" type="curve"/>
      <point x="139" y="736"/>
      <point x="198" y="695"/>
      <point x="259" y="663" type="curve"/>
      <point x="250" y="640" type="line"/>
      <point x="189" y="657"/>
      <point x="140" y="668"/>
      <point x="73" y="678" type="curve"/>
      <point x="84" y="697"/>
      <point x="104" y="741"/>
    </contour>
  </outline>
</glyph>
<glyph name="Iacute" format="1">
  <advance width="236"/>
  <unicode hex="00CD"/>
  <outline>
    <contour>
      <point x="233" y="583" type="curve"/>
      <point x="191" y="465"/>
      <point x="139" y="100"/>
      <point x="137" y="-2" type="curve"/>
      <point x="120" y="-1"/>
      <point x="51" y="1"/>
      <point x="29" y="-2" type="curve"/>
      <point x="60" y="138"/>
      <point x="115" y="414"/>
      <point x="120" y="583" type="curve"/>
      <point x="146" y="580"/>
      <point x="208" y="579"/>
    </contour>
    <contour>
      <point x="282" y="756" type="curve"/>
      <point x="282" y="737"/>
      <point x="292" y="692"/>
      <point x="302" y="671" type="curve"/>
      <point x="231" y="661"/>
      <point x="172" y="650"/>
      <point x="104" y="633" type="curve"/>
      <point x="97" y="659" type="line"/>
      <point x="160" y="687"/>
      <point x="241" y="728"/>
    </contour>
  </outline>
</glyph>
<glyph name="Icircumflex" format="1">
  <advance width="236"/>
  <unicode hex="00CE"/>
  <outline>
    <contour>
      <point x="233" y="583" type="curve"/>
      <point x="191" y="465"/>
      <point x="139" y="100"/>
      <point x="137" y="-2" type="curve"/>
      <point x="120" y="-1"/>
      <point x="51" y="1"/>
      <point x="29" y="-2" type="curve"/>
      <point x="60" y="138"/>
      <point x="115" y="414"/>
      <point x="120" y="583" type="curve"/>
      <point x="146" y="580"/>
      <point x="208" y="579"/>
    </contour>
    <contour>
      <point x="74" y="633" type="curve"/>
      <point x="70" y="636"/>
      <point x="66" y="655"/>
      <point x="66" y="664" type="curve"/>
      <point x="103" y="685"/>
      <point x="144" y="707"/>
      <point x="195" y="744" type="curve"/>
      <point x="223" y="715"/>
      <point x="255" y="685"/>
      <point x="286" y="661" type="curve"/>
      <point x="284" y="654"/>
      <point x="276" y="639"/>
      <point x="270" y="634" type="curve"/>
      <point x="240" y="649"/>
      <point x="212" y="658"/>
      <point x="181" y="665" type="curve"/>
      <point x="146" y="658"/>
      <point x="118" y="650"/>
    </contour>
  </outline>
</glyph>
<glyph name="Idieresis" format="1">
  <advance width="236"/>
  <unicode hex="00CF"/>
  <outline>
    <contour>
      <point x="122" y="702" type="curve" smooth="yes"/>
      <point x="149" y="702"/>
      <point x="162" y="691"/>
      <point x="162" y="672" type="curve" smooth="yes"/>
      <point x="162" y="649"/>
      <point x="134" y="635"/>
      <point x="108" y="635" type="curve" smooth="yes"/>
      <point x="88" y="635"/>
      <point x="73" y="646"/>
      <point x="73" y="663" type="curve" smooth="yes"/>
      <point x="73" y="683"/>
      <point x="97" y="702"/>
    </contour>
    <contour>
      <point x="263" y="702" type="curve" smooth="yes"/>
      <point x="290" y="702"/>
      <point x="304" y="691"/>
      <point x="304" y="672" type="curve" smooth="yes"/>
      <point x="304" y="649"/>
      <point x="275" y="635"/>
      <point x="249" y="635" type="curve" smooth="yes"/>
      <point x="229" y="635"/>
      <point x="214" y="646"/>
      <point x="214" y="663" type="curve" smooth="yes"/>
      <point x="214" y="683"/>
      <point x="238" y="702"/>
    </contour>
    <contour>
      <point x="233" y="583" type="curve"/>
      <point x="191" y="465"/>
      <point x="139" y="100"/>
      <point x="137" y="-2" type="curve"/>
      <point x="120" y="-1"/>
      <point x="51" y="1"/>
      <point x="29" y="-2" type="curve"/>
      <point x="60" y="138"/>
      <point x="115" y="414"/>
      <point x="120" y="583" type="curve"/>
      <point x="146" y="580"/>
      <point x="208" y="579"/>
    </contour>
  </outline>
</glyph>
<glyph name="Eth" format="1">
  <advance width="568"/>
  <unicode hex="00D0"/>
  <outline>
    <contour>
      <point x="305" y="582" type="curve" smooth="yes"/>
      <point x="485" y="580"/>
      <point x="570" y="475"/>
      <point x="555" y="363" type="curve" smooth="yes"/>
      <point x="522" y="122"/>
      <point x="288" y="11"/>
      <point x="127" y="0" type="curve" smooth="yes"/>
      <point x="89" y="-2"/>
      <point x="64" y="-3"/>
      <point x="34" y="-2" type="curve"/>
      <point x="45" y="30"/>
      <point x="73" y="177"/>
      <point x="94" y="318" type="curve"/>
      <point x="49" y="318" type="line"/>
      <point x="46" y="325"/>
      <point x="50" y="347"/>
      <point x="52" y="352" type="curve"/>
      <point x="67" y="352"/>
      <point x="82" y="351"/>
      <point x="98" y="351" type="curve"/>
      <point x="113" y="455"/>
      <point x="122" y="549"/>
      <point x="117" y="583" type="curve"/>
      <point x="157" y="581"/>
      <point x="277" y="582"/>
    </contour>
    <contour>
      <point x="217" y="543" type="curve"/>
      <point x="208" y="490"/>
      <point x="196" y="421"/>
      <point x="185" y="350" type="curve"/>
      <point x="345" y="350" type="line"/>
      <point x="345" y="341"/>
      <point x="344" y="325"/>
      <point x="340" y="315" type="curve"/>
      <point x="286" y="317"/>
      <point x="236" y="318"/>
      <point x="180" y="318" type="curve"/>
      <point x="162" y="198"/>
      <point x="147" y="82"/>
      <point x="151" y="47" type="curve"/>
      <point x="338" y="65"/>
      <point x="439" y="188"/>
      <point x="457" y="343" type="curve" smooth="yes"/>
      <point x="469" y="440"/>
      <point x="428" y="529"/>
      <point x="302" y="541" type="curve" smooth="yes"/>
      <point x="267" y="544"/>
      <point x="241" y="545"/>
    </contour>
  </outline>
</glyph>
<glyph name="Ntilde" format="1">
  <advance width="635"/>
  <unicode hex="00D1"/>
  <outline>
    <contour>
      <point x="499" y="-12" type="curve"/>
      <point x="429" y="109"/>
      <point x="295" y="263"/>
      <point x="210" y="363" type="curve" smooth="yes"/>
      <point x="189" y="388"/>
      <point x="171" y="410"/>
      <point x="159" y="427" type="curve"/>
      <point x="132" y="293"/>
      <point x="104" y="39"/>
      <point x="106" y="7" type="curve"/>
      <point x="79" y="1"/>
      <point x="48" y="0"/>
      <point x="15" y="-17" type="curve"/>
      <point x="46" y="42"/>
      <point x="97" y="309"/>
      <point x="127" y="495" type="curve" smooth="yes"/>
      <point x="132" y="526"/>
      <point x="135" y="556"/>
      <point x="133" y="582" type="curve"/>
      <point x="142" y="586"/>
      <point x="142" y="588"/>
      <point x="153" y="591" type="curve"/>
      <point x="225" y="471"/>
      <point x="345" y="337"/>
      <point x="446" y="220" type="curve" smooth="yes"/>
      <point x="464" y="199"/>
      <point x="480" y="178"/>
      <point x="496" y="158" type="curve"/>
      <point x="527" y="330"/>
      <point x="556" y="477"/>
      <point x="561" y="577" type="curve"/>
      <point x="582" y="581"/>
      <point x="621" y="588"/>
      <point x="643" y="598" type="curve"/>
      <point x="609" y="542"/>
      <point x="568" y="313"/>
      <point x="534" y="103" type="curve" smooth="yes"/>
      <point x="529" y="76"/>
      <point x="525" y="27"/>
      <point x="525" y="-4" type="curve"/>
      <point x="518" y="-10"/>
      <point x="506" y="-11"/>
    </contour>
    <contour>
      <point x="414" y="633" type="curve" smooth="yes"/>
      <point x="397" y="633"/>
      <point x="363" y="651"/>
      <point x="346" y="651" type="curve" smooth="yes"/>
      <point x="330" y="651"/>
      <point x="307" y="642"/>
      <point x="281" y="627" type="curve"/>
      <point x="274" y="636"/>
      <point x="271" y="643"/>
      <point x="268" y="651" type="curve"/>
      <point x="301" y="676"/>
      <point x="354" y="712"/>
      <point x="375" y="711" type="curve" smooth="yes"/>
      <point x="394" y="711"/>
      <point x="426" y="696"/>
      <point x="444" y="695" type="curve"/>
      <point x="464" y="695"/>
      <point x="484" y="703"/>
      <point x="509" y="717" type="curve"/>
      <point x="515" y="709"/>
      <point x="519" y="701"/>
      <point x="521" y="691" type="curve"/>
      <point x="483" y="661"/>
      <point x="434" y="632"/>
    </contour>
  </outline>
</glyph>
<glyph name="Ograve" format="1">
  <advance width="659"/>
  <unicode hex="00D2"/>
  <outline>
    <contour>
      <point x="411" y="593" type="curve" smooth="yes"/>
      <point x="509" y="593"/>
      <point x="633" y="509"/>
      <point x="633" y="361" type="curve" smooth="yes"/>
      <point x="633" y="256"/>
      <point x="598" y="154"/>
      <point x="540" y="93" type="curve" smooth="yes"/>
      <point x="490" y="41"/>
      <point x="380" y="-11"/>
      <point x="292" y="-11" type="curve" smooth="yes"/>
      <point x="122" y="-11"/>
      <point x="43" y="108"/>
      <point x="43" y="236" type="curve"/>
      <point x="45" y="335"/>
      <point x="92" y="454"/>
      <point x="182" y="519" type="curve" smooth="yes"/>
      <point x="223" y="548"/>
      <point x="322" y="593"/>
    </contour>
    <contour>
      <point x="315" y="37" type="curve" smooth="yes"/>
      <point x="408" y="37"/>
      <point x="540" y="100"/>
      <point x="540" y="349" type="curve" smooth="yes"/>
      <point x="540" y="455"/>
      <point x="487" y="542"/>
      <point x="371" y="542" type="curve" smooth="yes"/>
      <point x="242" y="542"/>
      <point x="136" y="429"/>
      <point x="136" y="241" type="curve" smooth="yes"/>
      <point x="136" y="132"/>
      <point x="192" y="37"/>
    </contour>
    <contour>
      <point x="320" y="760" type="curve"/>
      <point x="350" y="736"/>
      <point x="409" y="695"/>
      <point x="470" y="663" type="curve"/>
      <point x="461" y="640" type="line"/>
      <point x="400" y="657"/>
      <point x="351" y="668"/>
      <point x="284" y="678" type="curve"/>
      <point x="295" y="697"/>
      <point x="315" y="741"/>
    </contour>
  </outline>
</glyph>
<glyph name="Oacute" format="1">
  <advance width="659"/>
  <unicode hex="00D3"/>
  <outline>
    <contour>
      <point x="411" y="593" type="curve" smooth="yes"/>
      <point x="509" y="593"/>
      <point x="633" y="509"/>
      <point x="633" y="361" type="curve" smooth="yes"/>
      <point x="633" y="256"/>
      <point x="598" y="154"/>
      <point x="540" y="93" type="curve" smooth="yes"/>
      <point x="490" y="41"/>
      <point x="380" y="-11"/>
      <point x="292" y="-11" type="curve" smooth="yes"/>
      <point x="122" y="-11"/>
      <point x="43" y="108"/>
      <point x="43" y="236" type="curve"/>
      <point x="45" y="335"/>
      <point x="92" y="454"/>
      <point x="182" y="519" type="curve" smooth="yes"/>
      <point x="223" y="548"/>
      <point x="322" y="593"/>
    </contour>
    <contour>
      <point x="315" y="37" type="curve" smooth="yes"/>
      <point x="408" y="37"/>
      <point x="540" y="100"/>
      <point x="540" y="349" type="curve" smooth="yes"/>
      <point x="540" y="455"/>
      <point x="487" y="542"/>
      <point x="371" y="542" type="curve" smooth="yes"/>
      <point x="242" y="542"/>
      <point x="136" y="429"/>
      <point x="136" y="241" type="curve" smooth="yes"/>
      <point x="136" y="132"/>
      <point x="192" y="37"/>
    </contour>
    <contour>
      <point x="506" y="756" type="curve"/>
      <point x="506" y="737"/>
      <point x="516" y="692"/>
      <point x="526" y="671" type="curve"/>
      <point x="455" y="661"/>
      <point x="396" y="650"/>
      <point x="328" y="633" type="curve"/>
      <point x="321" y="659" type="line"/>
      <point x="384" y="687"/>
      <point x="465" y="728"/>
    </contour>
  </outline>
</glyph>
<glyph name="Ocircumflex" format="1">
  <advance width="659"/>
  <unicode hex="00D4"/>
  <outline>
    <contour>
      <point x="411" y="593" type="curve" smooth="yes"/>
      <point x="509" y="593"/>
      <point x="633" y="509"/>
      <point x="633" y="361" type="curve" smooth="yes"/>
      <point x="633" y="256"/>
      <point x="598" y="154"/>
      <point x="540" y="93" type="curve" smooth="yes"/>
      <point x="490" y="41"/>
      <point x="380" y="-11"/>
      <point x="292" y="-11" type="curve" smooth="yes"/>
      <point x="122" y="-11"/>
      <point x="43" y="108"/>
      <point x="43" y="236" type="curve"/>
      <point x="45" y="335"/>
      <point x="92" y="454"/>
      <point x="182" y="519" type="curve" smooth="yes"/>
      <point x="223" y="548"/>
      <point x="322" y="593"/>
    </contour>
    <contour>
      <point x="315" y="37" type="curve" smooth="yes"/>
      <point x="408" y="37"/>
      <point x="540" y="100"/>
      <point x="540" y="349" type="curve" smooth="yes"/>
      <point x="540" y="455"/>
      <point x="487" y="542"/>
      <point x="371" y="542" type="curve" smooth="yes"/>
      <point x="242" y="542"/>
      <point x="136" y="429"/>
      <point x="136" y="241" type="curve" smooth="yes"/>
      <point x="136" y="132"/>
      <point x="192" y="37"/>
    </contour>
    <contour>
      <point x="291" y="633" type="curve"/>
      <point x="287" y="636"/>
      <point x="283" y="655"/>
      <point x="283" y="664" type="curve"/>
      <point x="320" y="685"/>
      <point x="361" y="707"/>
      <point x="412" y="744" type="curve"/>
      <point x="440" y="715"/>
      <point x="472" y="685"/>
      <point x="503" y="661" type="curve"/>
      <point x="501" y="654"/>
      <point x="493" y="639"/>
      <point x="487" y="634" type="curve"/>
      <point x="457" y="649"/>
      <point x="429" y="658"/>
      <point x="398" y="665" type="curve"/>
      <point x="363" y="658"/>
      <point x="335" y="650"/>
    </contour>
  </outline>
</glyph>
<glyph name="Otilde" format="1">
  <advance width="659"/>
  <unicode hex="00D5"/>
  <outline>
    <contour>
      <point x="411" y="593" type="curve" smooth="yes"/>
      <point x="509" y="593"/>
      <point x="633" y="509"/>
      <point x="633" y="361" type="curve" smooth="yes"/>
      <point x="633" y="256"/>
      <point x="598" y="154"/>
      <point x="540" y="93" type="curve" smooth="yes"/>
      <point x="490" y="41"/>
      <point x="380" y="-11"/>
      <point x="292" y="-11" type="curve" smooth="yes"/>
      <point x="122" y="-11"/>
      <point x="43" y="108"/>
      <point x="43" y="236" type="curve"/>
      <point x="45" y="335"/>
      <point x="92" y="454"/>
      <point x="182" y="519" type="curve" smooth="yes"/>
      <point x="223" y="548"/>
      <point x="322" y="593"/>
    </contour>
    <contour>
      <point x="315" y="37" type="curve" smooth="yes"/>
      <point x="408" y="37"/>
      <point x="540" y="100"/>
      <point x="540" y="349" type="curve" smooth="yes"/>
      <point x="540" y="455"/>
      <point x="487" y="542"/>
      <point x="371" y="542" type="curve" smooth="yes"/>
      <point x="242" y="542"/>
      <point x="136" y="429"/>
      <point x="136" y="241" type="curve" smooth="yes"/>
      <point x="136" y="132"/>
      <point x="192" y="37"/>
    </contour>
    <contour>
      <point x="439" y="633" type="curve" smooth="yes"/>
      <point x="422" y="633"/>
      <point x="388" y="651"/>
      <point x="371" y="651" type="curve" smooth="yes"/>
      <point x="355" y="651"/>
      <point x="332" y="642"/>
      <point x="306" y="627" type="curve"/>
      <point x="299" y="636"/>
      <point x="296" y="643"/>
      <point x="293" y="651" type="curve"/>
      <point x="326" y="676"/>
      <point x="379" y="712"/>
      <point x="400" y="711" type="curve" smooth="yes"/>
      <point x="419" y="711"/>
      <point x="451" y="696"/>
      <point x="469" y="695" type="curve"/>
      <point x="489" y="695"/>
      <point x="509" y="703"/>
      <point x="534" y="717" type="curve"/>
      <point x="540" y="709"/>
      <point x="544" y="701"/>
      <point x="546" y="691" type="curve"/>
      <point x="508" y="661"/>
      <point x="459" y="632"/>
    </contour>
  </outline>
</glyph>
<glyph name="multiply" format="1">
  <advance width="416"/>
  <unicode hex="00D7"/>
  <outline>
    <contour>
      <point x="91" y="364" type="curve"/>
      <point x="125" y="328"/>
      <point x="182" y="266"/>
      <point x="218" y="229" type="curve"/>
      <point x="256" y="266"/>
      <point x="324" y="337"/>
      <point x="348" y="363" type="curve"/>
      <point x="357" y="355"/>
      <point x="370" y="339"/>
      <point x="374" y="330" type="curve"/>
      <point x="340" y="298"/>
      <point x="278" y="236"/>
      <point x="246" y="202" type="curve"/>
      <point x="281" y="167"/>
      <point x="342" y="106"/>
      <point x="378" y="71" type="curve"/>
      <point x="371" y="62"/>
      <point x="357" y="46"/>
      <point x="349" y="38" type="curve"/>
      <point x="313" y="74"/>
      <point x="253" y="137"/>
      <point x="217" y="174" type="curve"/>
      <point x="183" y="142"/>
      <point x="122" y="79"/>
      <point x="83" y="39" type="curve"/>
      <point x="76" y="43"/>
      <point x="60" y="65"/>
      <point x="57" y="71" type="curve"/>
      <point x="90" y="101"/>
      <point x="154" y="166"/>
      <point x="190" y="201" type="curve"/>
      <point x="154" y="237"/>
      <point x="96" y="299"/>
      <point x="62" y="333" type="curve"/>
      <point x="66" y="340"/>
      <point x="87" y="361"/>
    </contour>
  </outline>
</glyph>
<glyph name="Oslash" format="1">
  <advance width="659"/>
  <unicode hex="00D8"/>
  <outline>
    <contour>
      <point x="411" y="593" type="curve" smooth="yes"/>
      <point x="426" y="593"/>
      <point x="442" y="591"/>
      <point x="457" y="587" type="curve"/>
      <point x="474" y="621" type="line"/>
      <point x="483" y="620"/>
      <point x="509" y="616"/>
      <point x="514" y="612" type="curve"/>
      <point x="495" y="574" type="line"/>
      <point x="568" y="541"/>
      <point x="633" y="468"/>
      <point x="633" y="361" type="curve" smooth="yes"/>
      <point x="633" y="256"/>
      <point x="598" y="154"/>
      <point x="540" y="93" type="curve" smooth="yes"/>
      <point x="490" y="41"/>
      <point x="380" y="-11"/>
      <point x="292" y="-11" type="curve" smooth="yes"/>
      <point x="264" y="-11"/>
      <point x="239" y="-7"/>
      <point x="216" y="-2" type="curve"/>
      <point x="197" y="-42" type="line"/>
      <point x="186" y="-41"/>
      <point x="166" y="-42"/>
      <point x="156" y="-34" type="curve"/>
      <point x="178" y="11" type="line"/>
      <point x="86" y="51"/>
      <point x="43" y="141"/>
      <point x="43" y="236" type="curve"/>
      <point x="45" y="335"/>
      <point x="92" y="454"/>
      <point x="182" y="519" type="curve" smooth="yes"/>
      <point x="223" y="548"/>
      <point x="322" y="593"/>
    </contour>
    <contour>
      <point x="315" y="37" type="curve" smooth="yes"/>
      <point x="408" y="37"/>
      <point x="540" y="100"/>
      <point x="540" y="349" type="curve" smooth="yes"/>
      <point x="540" y="419"/>
      <point x="516" y="482"/>
      <point x="467" y="516" type="curve"/>
      <point x="392" y="366"/>
      <point x="313" y="201"/>
      <point x="241" y="51" type="curve"/>
      <point x="263" y="42"/>
      <point x="287" y="37"/>
    </contour>
    <contour>
      <point x="431" y="533" type="curve"/>
      <point x="414" y="539"/>
      <point x="393" y="542"/>
      <point x="371" y="542" type="curve" smooth="yes"/>
      <point x="242" y="542"/>
      <point x="136" y="429"/>
      <point x="136" y="241" type="curve" smooth="yes"/>
      <point x="136" y="171"/>
      <point x="159" y="107"/>
      <point x="207" y="70" type="curve"/>
      <point x="281" y="220"/>
      <point x="360" y="384"/>
    </contour>
  </outline>
</glyph>
<glyph name="Ugrave" format="1">
  <advance width="571"/>
  <unicode hex="00D9"/>
  <outline>
    <contour>
      <point x="88" y="582" type="curve"/>
      <point x="124" y="580"/>
      <point x="167" y="580"/>
      <point x="197" y="584" type="curve"/>
      <point x="177" y="490"/>
      <point x="159" y="310"/>
      <point x="159" y="188" type="curve" smooth="yes"/>
      <point x="160" y="66"/>
      <point x="224" y="33"/>
      <point x="275" y="33" type="curve" smooth="yes"/>
      <point x="380" y="33"/>
      <point x="428" y="102"/>
      <point x="455" y="193" type="curve" smooth="yes"/>
      <point x="487" y="303"/>
      <point x="523" y="499"/>
      <point x="519" y="578" type="curve"/>
      <point x="543" y="578"/>
      <point x="580" y="582"/>
      <point x="608" y="589" type="curve"/>
      <point x="568" y="478"/>
      <point x="531" y="328"/>
      <point x="502" y="215" type="curve" smooth="yes"/>
      <point x="468" y="82"/>
      <point x="406" y="-10"/>
      <point x="266" y="-12" type="curve"/>
      <point x="201" y="-14"/>
      <point x="52" y="11"/>
      <point x="70" y="216" type="curve" smooth="yes"/>
      <point x="83" y="363"/>
      <point x="91" y="494"/>
    </contour>
    <contour>
      <point x="300" y="760" type="curve"/>
      <point x="330" y="736"/>
      <point x="389" y="695"/>
      <point x="450" y="663" type="curve"/>
      <point x="441" y="640" type="line"/>
      <point x="380" y="657"/>
      <point x="331" y="668"/>
      <point x="264" y="678" type="curve"/>
      <point x="275" y="697"/>
      <point x="295" y="741"/>
    </contour>
  </outline>
</glyph>
<glyph name="Uacute" format="1">
  <advance width="571"/>
  <unicode hex="00DA"/>
  <outline>
    <contour>
      <point x="88" y="582" type="curve"/>
      <point x="124" y="580"/>
      <point x="167" y="580"/>
      <point x="197" y="584" type="curve"/>
      <point x="177" y="490"/>
      <point x="159" y="310"/>
      <point x="159" y="188" type="curve" smooth="yes"/>
      <point x="160" y="66"/>
      <point x="224" y="33"/>
      <point x="275" y="33" type="curve" smooth="yes"/>
      <point x="380" y="33"/>
      <point x="428" y="102"/>
      <point x="455" y="193" type="curve" smooth="yes"/>
      <point x="487" y="303"/>
      <point x="523" y="499"/>
      <point x="519" y="578" type="curve"/>
      <point x="543" y="578"/>
      <point x="580" y="582"/>
      <point x="608" y="589" type="curve"/>
      <point x="568" y="478"/>
      <point x="531" y="328"/>
      <point x="502" y="215" type="curve" smooth="yes"/>
      <point x="468" y="82"/>
      <point x="406" y="-10"/>
      <point x="266" y="-12" type="curve"/>
      <point x="201" y="-14"/>
      <point x="52" y="11"/>
      <point x="70" y="216" type="curve" smooth="yes"/>
      <point x="83" y="363"/>
      <point x="91" y="494"/>
    </contour>
    <contour>
      <point x="457" y="756" type="curve"/>
      <point x="457" y="737"/>
      <point x="467" y="692"/>
      <point x="477" y="671" type="curve"/>
      <point x="406" y="661"/>
      <point x="347" y="650"/>
      <point x="279" y="633" type="curve"/>
      <point x="272" y="659" type="line"/>
      <point x="335" y="687"/>
      <point x="416" y="728"/>
    </contour>
  </outline>
</glyph>
<glyph name="Ucircumflex" format="1">
  <advance width="571"/>
  <unicode hex="00DB"/>
  <outline>
    <contour>
      <point x="88" y="582" type="curve"/>
      <point x="124" y="580"/>
      <point x="167" y="580"/>
      <point x="197" y="584" type="curve"/>
      <point x="177" y="490"/>
      <point x="159" y="310"/>
      <point x="159" y="188" type="curve" smooth="yes"/>
      <point x="160" y="66"/>
      <point x="224" y="33"/>
      <point x="275" y="33" type="curve" smooth="yes"/>
      <point x="380" y="33"/>
      <point x="428" y="102"/>
      <point x="455" y="193" type="curve" smooth="yes"/>
      <point x="487" y="303"/>
      <point x="523" y="499"/>
      <point x="519" y="578" type="curve"/>
      <point x="543" y="578"/>
      <point x="580" y="582"/>
      <point x="608" y="589" type="curve"/>
      <point x="568" y="478"/>
      <point x="531" y="328"/>
      <point x="502" y="215" type="curve" smooth="yes"/>
      <point x="468" y="82"/>
      <point x="406" y="-10"/>
      <point x="266" y="-12" type="curve"/>
      <point x="201" y="-14"/>
      <point x="52" y="11"/>
      <point x="70" y="216" type="curve" smooth="yes"/>
      <point x="83" y="363"/>
      <point x="91" y="494"/>
    </contour>
    <contour>
      <point x="261" y="633" type="curve"/>
      <point x="257" y="636"/>
      <point x="253" y="655"/>
      <point x="253" y="664" type="curve"/>
      <point x="290" y="685"/>
      <point x="331" y="707"/>
      <point x="382" y="744" type="curve"/>
      <point x="410" y="715"/>
      <point x="442" y="685"/>
      <point x="473" y="661" type="curve"/>
      <point x="471" y="654"/>
      <point x="463" y="639"/>
      <point x="457" y="634" type="curve"/>
      <point x="427" y="649"/>
      <point x="399" y="658"/>
      <point x="368" y="665" type="curve"/>
      <point x="333" y="658"/>
      <point x="305" y="650"/>
    </contour>
  </outline>
</glyph>
<glyph name="Thorn" format="1">
  <advance width="489"/>
  <unicode hex="00DE"/>
  <outline>
    <contour>
      <point x="233" y="583" type="curve"/>
      <point x="223" y="556"/>
      <point x="214" y="517"/>
      <point x="204" y="472" type="curve"/>
      <point x="228" y="472"/>
      <point x="255" y="473"/>
      <point x="283" y="473" type="curve" smooth="yes"/>
      <point x="387" y="473"/>
      <point x="509" y="481"/>
      <point x="507" y="380" type="curve"/>
      <point x="506" y="278"/>
      <point x="383" y="191"/>
      <point x="227" y="153" type="curve"/>
      <point x="221" y="161"/>
      <point x="221" y="183"/>
      <point x="222" y="186" type="curve"/>
      <point x="344" y="227"/>
      <point x="407" y="290"/>
      <point x="407" y="362" type="curve" smooth="yes"/>
      <point x="407" y="416"/>
      <point x="358" y="429"/>
      <point x="294" y="432" type="curve"/>
      <point x="247" y="433"/>
      <point x="213" y="427"/>
      <point x="194" y="424" type="curve"/>
      <point x="165" y="270"/>
      <point x="139" y="69"/>
      <point x="137" y="-2" type="curve"/>
      <point x="120" y="-1"/>
      <point x="51" y="1"/>
      <point x="29" y="-2" type="curve"/>
      <point x="60" y="138"/>
      <point x="115" y="414"/>
      <point x="120" y="583" type="curve"/>
      <point x="146" y="580"/>
      <point x="208" y="579"/>
    </contour>
  </outline>
</glyph>
<glyph name="germandbls" format="1">
  <advance width="446"/>
  <unicode hex="00DF"/>
  <outline>
    <contour>
      <point x="367" y="698" type="curve"/>
      <point x="412" y="659"/>
      <point x="435" y="604"/>
      <point x="434" y="555" type="curve" smooth="yes"/>
      <point x="432" y="489"/>
      <point x="395" y="419"/>
      <point x="344" y="371" type="curve"/>
      <point x="381" y="337"/>
      <point x="405" y="290"/>
      <point x="405" y="232" type="curve" smooth="yes"/>
      <point x="405" y="63"/>
      <point x="294" y="-17"/>
      <point x="179" y="-3" type="curve"/>
      <point x="176" y="1"/>
      <point x="182" y="27"/>
      <point x="185" y="33" type="curve"/>
      <point x="257" y="27"/>
      <point x="322" y="98"/>
      <point x="325" y="204" type="curve"/>
      <point x="325" y="270"/>
      <point x="290" y="313"/>
      <point x="256" y="338" type="curve"/>
      <point x="327" y="395"/>
      <point x="355" y="465"/>
      <point x="357" y="526" type="curve"/>
      <point x="357" y="573"/>
      <point x="343" y="613"/>
      <point x="318" y="640" type="curve"/>
      <point x="265" y="605"/>
      <point x="227" y="550"/>
      <point x="205" y="457" type="curve" smooth="yes"/>
      <point x="178" y="346"/>
      <point x="148" y="121"/>
      <point x="132" y="58" type="curve" smooth="yes"/>
      <point x="86" y="-115"/>
      <point x="-29" y="-278"/>
      <point x="-156" y="-278" type="curve" smooth="yes"/>
      <point x="-171" y="-278"/>
      <point x="-188" y="-269"/>
      <point x="-198" y="-259" type="curve"/>
      <point x="-197" y="-252"/>
      <point x="-187" y="-232"/>
      <point x="-183" y="-223" type="curve"/>
      <point x="-123" y="-253"/>
      <point x="-66" y="-206"/>
      <point x="-40" y="-172" type="curve" smooth="yes"/>
      <point x="1" y="-119"/>
      <point x="35" y="-42"/>
      <point x="53" y="57" type="curve" smooth="yes"/>
      <point x="68" y="141"/>
      <point x="95" y="313"/>
      <point x="99" y="351" type="curve"/>
      <point x="88" y="352"/>
      <point x="60" y="352"/>
      <point x="55" y="352" type="curve"/>
      <point x="57" y="364"/>
      <point x="60" y="380"/>
      <point x="64" y="391" type="curve"/>
      <point x="73" y="391"/>
      <point x="90" y="390"/>
      <point x="104" y="390" type="curve"/>
      <point x="110" y="415"/>
      <point x="116" y="438"/>
      <point x="123" y="461" type="curve" smooth="yes"/>
      <point x="152" y="551"/>
      <point x="236" y="665"/>
    </contour>
  </outline>
</glyph>
<glyph name="acircumflex" format="1">
  <advance width="418"/>
  <unicode hex="00E2"/>
  <outline>
    <contour>
      <point x="403" y="389" type="curve"/>
      <point x="367" y="350"/>
      <point x="315" y="67"/>
      <point x="323" y="-1" type="curve"/>
      <point x="301" y="1"/>
      <point x="252" y="3"/>
      <point x="221" y="-2" type="curve"/>
      <point x="221" y="18"/>
      <point x="242" y="105"/>
      <point x="250" y="144" type="curve"/>
      <point x="187" y="89"/>
      <point x="142" y="52"/>
      <point x="59" y="-12" type="curve"/>
      <point x="36" y="8"/>
      <point x="16" y="60"/>
      <point x="16" y="107" type="curve" smooth="yes"/>
      <point x="16" y="256"/>
      <point x="149" y="387"/>
      <point x="273" y="391" type="curve" smooth="yes"/>
      <point x="316" y="392"/>
      <point x="368" y="391"/>
    </contour>
    <contour>
      <point x="293" y="351" type="curve"/>
      <point x="286" y="352"/>
      <point x="278" y="352"/>
      <point x="272" y="352" type="curve" smooth="yes"/>
      <point x="167" y="351"/>
      <point x="102" y="240"/>
      <point x="102" y="158" type="curve" smooth="yes"/>
      <point x="102" y="132"/>
      <point x="104" y="105"/>
      <point x="116" y="87" type="curve"/>
      <point x="154" y="111"/>
      <point x="233" y="174"/>
      <point x="260" y="201" type="curve"/>
      <point x="268" y="226"/>
      <point x="293" y="320"/>
    </contour>
    <contour>
      <point x="174" y="452" type="curve"/>
      <point x="170" y="455"/>
      <point x="166" y="474"/>
      <point x="166" y="483" type="curve"/>
      <point x="203" y="504"/>
      <point x="244" y="526"/>
      <point x="295" y="563" type="curve"/>
      <point x="323" y="534"/>
      <point x="355" y="504"/>
      <point x="386" y="480" type="curve"/>
      <point x="384" y="473"/>
      <point x="376" y="458"/>
      <point x="370" y="453" type="curve"/>
      <point x="340" y="468"/>
      <point x="312" y="477"/>
      <point x="281" y="484" type="curve"/>
      <point x="246" y="477"/>
      <point x="218" y="469"/>
    </contour>
  </outline>
</glyph>
<glyph name="atilde" format="1">
  <advance width="418"/>
  <unicode hex="00E3"/>
  <outline>
    <contour>
      <point x="403" y="389" type="curve"/>
      <point x="367" y="350"/>
      <point x="315" y="67"/>
      <point x="323" y="-1" type="curve"/>
      <point x="301" y="1"/>
      <point x="252" y="3"/>
      <point x="221" y="-2" type="curve"/>
      <point x="221" y="18"/>
      <point x="242" y="105"/>
      <point x="250" y="144" type="curve"/>
      <point x="187" y="89"/>
      <point x="142" y="52"/>
      <point x="59" y="-12" type="curve"/>
      <point x="36" y="8"/>
      <point x="16" y="60"/>
      <point x="16" y="107" type="curve" smooth="yes"/>
      <point x="16" y="256"/>
      <point x="149" y="387"/>
      <point x="273" y="391" type="curve" smooth="yes"/>
      <point x="316" y="392"/>
      <point x="368" y="391"/>
    </contour>
    <contour>
      <point x="293" y="351" type="curve"/>
      <point x="286" y="352"/>
      <point x="278" y="352"/>
      <point x="272" y="352" type="curve" smooth="yes"/>
      <point x="167" y="351"/>
      <point x="102" y="240"/>
      <point x="102" y="158" type="curve" smooth="yes"/>
      <point x="102" y="132"/>
      <point x="104" y="105"/>
      <point x="116" y="87" type="curve"/>
      <point x="154" y="111"/>
      <point x="233" y="174"/>
      <point x="260" y="201" type="curve"/>
      <point x="268" y="226"/>
      <point x="293" y="320"/>
    </contour>
    <contour>
      <point x="307" y="466" type="curve" smooth="yes"/>
      <point x="290" y="466"/>
      <point x="256" y="484"/>
      <point x="239" y="484" type="curve" smooth="yes"/>
      <point x="223" y="484"/>
      <point x="200" y="475"/>
      <point x="174" y="460" type="curve"/>
      <point x="167" y="469"/>
      <point x="164" y="476"/>
      <point x="161" y="484" type="curve"/>
      <point x="194" y="509"/>
      <point x="247" y="545"/>
      <point x="268" y="544" type="curve" smooth="yes"/>
      <point x="287" y="544"/>
      <point x="319" y="529"/>
      <point x="337" y="528" type="curve"/>
      <point x="357" y="528"/>
      <point x="377" y="536"/>
      <point x="402" y="550" type="curve"/>
      <point x="408" y="542"/>
      <point x="412" y="534"/>
      <point x="414" y="524" type="curve"/>
      <point x="376" y="494"/>
      <point x="327" y="465"/>
    </contour>
  </outline>
</glyph>
<glyph name="adieresis" format="1">
  <advance width="418"/>
  <unicode hex="00E4"/>
  <outline>
    <contour>
      <point x="403" y="389" type="curve"/>
      <point x="367" y="350"/>
      <point x="315" y="67"/>
      <point x="323" y="-1" type="curve"/>
      <point x="301" y="1"/>
      <point x="252" y="3"/>
      <point x="221" y="-2" type="curve"/>
      <point x="221" y="18"/>
      <point x="242" y="105"/>
      <point x="250" y="144" type="curve"/>
      <point x="187" y="89"/>
      <point x="142" y="52"/>
      <point x="59" y="-12" type="curve"/>
      <point x="36" y="8"/>
      <point x="16" y="60"/>
      <point x="16" y="107" type="curve" smooth="yes"/>
      <point x="16" y="256"/>
      <point x="149" y="387"/>
      <point x="273" y="391" type="curve" smooth="yes"/>
      <point x="316" y="392"/>
      <point x="368" y="391"/>
    </contour>
    <contour>
      <point x="293" y="351" type="curve"/>
      <point x="286" y="352"/>
      <point x="278" y="352"/>
      <point x="272" y="352" type="curve" smooth="yes"/>
      <point x="167" y="351"/>
      <point x="102" y="240"/>
      <point x="102" y="158" type="curve" smooth="yes"/>
      <point x="102" y="132"/>
      <point x="104" y="105"/>
      <point x="116" y="87" type="curve"/>
      <point x="154" y="111"/>
      <point x="233" y="174"/>
      <point x="260" y="201" type="curve"/>
      <point x="268" y="226"/>
      <point x="293" y="320"/>
    </contour>
    <contour>
      <point x="209" y="528" type="curve" smooth="yes"/>
      <point x="236" y="528"/>
      <point x="250" y="516"/>
      <point x="250" y="497" type="curve" smooth="yes"/>
      <point x="250" y="474"/>
      <point x="221" y="460"/>
      <point x="195" y="460" type="curve" smooth="yes"/>
      <point x="175" y="460"/>
      <point x="160" y="471"/>
      <point x="160" y="489" type="curve" smooth="yes"/>
      <point x="160" y="509"/>
      <point x="184" y="528"/>
    </contour>
    <contour>
      <point x="355" y="528" type="curve" smooth="yes"/>
      <point x="382" y="528"/>
      <point x="395" y="516"/>
      <point x="395" y="497" type="curve" smooth="yes"/>
      <point x="395" y="474"/>
      <point x="367" y="460"/>
      <point x="341" y="460" type="curve" smooth="yes"/>
      <point x="321" y="460"/>
      <point x="306" y="471"/>
      <point x="306" y="489" type="curve" smooth="yes"/>
      <point x="306" y="509"/>
      <point x="330" y="528"/>
    </contour>
  </outline>
</glyph>
<glyph name="aring" format="1">
  <advance width="418"/>
  <unicode hex="00E5"/>
  <outline>
    <contour>
      <point x="403" y="389" type="curve"/>
      <point x="367" y="350"/>
      <point x="315" y="67"/>
      <point x="323" y="-1" type="curve"/>
      <point x="301" y="1"/>
      <point x="252" y="3"/>
      <point x="221" y="-2" type="curve"/>
      <point x="221" y="18"/>
      <point x="242" y="105"/>
      <point x="250" y="144" type="curve"/>
      <point x="187" y="89"/>
      <point x="142" y="52"/>
      <point x="59" y="-12" type="curve"/>
      <point x="36" y="8"/>
      <point x="16" y="60"/>
      <point x="16" y="107" type="curve" smooth="yes"/>
      <point x="16" y="256"/>
      <point x="149" y="387"/>
      <point x="273" y="391" type="curve" smooth="yes"/>
      <point x="316" y="392"/>
      <point x="368" y="391"/>
    </contour>
    <contour>
      <point x="293" y="351" type="curve"/>
      <point x="286" y="352"/>
      <point x="278" y="352"/>
      <point x="272" y="352" type="curve" smooth="yes"/>
      <point x="167" y="351"/>
      <point x="102" y="240"/>
      <point x="102" y="158" type="curve" smooth="yes"/>
      <point x="102" y="132"/>
      <point x="104" y="105"/>
      <point x="116" y="87" type="curve"/>
      <point x="154" y="111"/>
      <point x="233" y="174"/>
      <point x="260" y="201" type="curve"/>
      <point x="268" y="226"/>
      <point x="293" y="320"/>
    </contour>
    <contour>
      <point x="301" y="565" type="curve" smooth="yes"/>
      <point x="358" y="565"/>
      <point x="384" y="541"/>
      <point x="384" y="519" type="curve" smooth="yes"/>
      <point x="384" y="465"/>
      <point x="312" y="438"/>
      <point x="258" y="439" type="curve" smooth="yes"/>
      <point x="217" y="439"/>
      <point x="186" y="461"/>
      <point x="186" y="492" type="curve" smooth="yes"/>
      <point x="186" y="524"/>
      <point x="237" y="565"/>
    </contour>
    <contour>
      <point x="289" y="534" type="curve" smooth="yes"/>
      <point x="264" y="534"/>
      <point x="245" y="518"/>
      <point x="245" y="497" type="curve" smooth="yes"/>
      <point x="245" y="485"/>
      <point x="253" y="469"/>
      <point x="276" y="469" type="curve" smooth="yes"/>
      <point x="303" y="469"/>
      <point x="321" y="487"/>
      <point x="321" y="508" type="curve" smooth="yes"/>
      <point x="321" y="530"/>
      <point x="302" y="534"/>
    </contour>
  </outline>
</glyph>
<glyph name="ae" format="1">
  <advance width="562"/>
  <unicode hex="00E6"/>
  <outline>
    <contour>
      <point x="479" y="395" type="curve" smooth="yes"/>
      <point x="519" y="395"/>
      <point x="550" y="381"/>
      <point x="550" y="334" type="curve" smooth="yes"/>
      <point x="550" y="257"/>
      <point x="424" y="196"/>
      <point x="342" y="212" type="curve"/>
      <point x="337" y="156"/>
      <point x="333" y="98"/>
      <point x="377" y="56" type="curve"/>
      <point x="402" y="67"/>
      <point x="468" y="106"/>
      <point x="494" y="125" type="curve"/>
      <point x="500" y="120"/>
      <point x="510" y="108"/>
      <point x="514" y="98" type="curve"/>
      <point x="473" y="70"/>
      <point x="381" y="8"/>
      <point x="335" y="-22" type="curve"/>
      <point x="273" y="22"/>
      <point x="254" y="84"/>
      <point x="256" y="151" type="curve"/>
      <point x="196" y="99"/>
      <point x="139" y="50"/>
      <point x="59" y="-12" type="curve"/>
      <point x="36" y="8"/>
      <point x="16" y="60"/>
      <point x="16" y="107" type="curve" smooth="yes"/>
      <point x="16" y="256"/>
      <point x="144" y="387"/>
      <point x="267" y="391" type="curve" smooth="yes"/>
      <point x="310" y="392"/>
      <point x="347" y="392"/>
      <point x="382" y="390" type="curve"/>
      <point x="378" y="381"/>
      <point x="376" y="370"/>
      <point x="373" y="355" type="curve"/>
      <point x="401" y="378"/>
      <point x="449" y="395"/>
    </contour>
    <contour>
      <point x="289" y="351" type="curve"/>
      <point x="282" y="352"/>
      <point x="273" y="352"/>
      <point x="266" y="352" type="curve" smooth="yes"/>
      <point x="161" y="351"/>
      <point x="102" y="240"/>
      <point x="102" y="158" type="curve" smooth="yes"/>
      <point x="102" y="132"/>
      <point x="104" y="105"/>
      <point x="116" y="87" type="curve"/>
      <point x="154" y="111"/>
      <point x="234" y="176"/>
      <point x="261" y="202" type="curve"/>
      <point x="268" y="229"/>
      <point x="288" y="320"/>
    </contour>
    <contour>
      <point x="445" y="352" type="curve" smooth="yes"/>
      <point x="412" y="352"/>
      <point x="360" y="300"/>
      <point x="350" y="248" type="curve"/>
      <point x="424" y="236"/>
      <point x="470" y="285"/>
      <point x="473" y="322" type="curve" smooth="yes"/>
      <point x="475" y="340"/>
      <point x="465" y="352"/>
    </contour>
  </outline>
</glyph>
<glyph name="ccedilla" format="1">
  <advance width="305"/>
  <unicode hex="00E7"/>
  <outline>
    <contour>
      <point x="309" y="388" type="curve"/>
      <point x="308" y="377"/>
      <point x="305" y="364"/>
      <point x="300" y="352" type="curve"/>
      <point x="284" y="355"/>
      <point x="262" y="356"/>
      <point x="250" y="356" type="curve" smooth="yes"/>
      <point x="157" y="356"/>
      <point x="106" y="269"/>
      <point x="106" y="157" type="curve" smooth="yes"/>
      <point x="106" y="127"/>
      <point x="116" y="92"/>
      <point x="139" y="68" type="curve"/>
      <point x="169" y="84"/>
      <point x="208" y="107"/>
      <point x="247" y="137" type="curve"/>
      <point x="253" y="134"/>
      <point x="266" y="116"/>
      <point x="271" y="111" type="curve"/>
      <point x="230" y="77"/>
      <point x="157" y="28"/>
      <point x="97" y="-12" type="curve" smooth="yes"/>
      <point x="86" y="-20"/>
      <point x="71" y="-35"/>
      <point x="65" y="-42" type="curve"/>
      <point x="131" y="-47"/>
      <point x="153" y="-77"/>
      <point x="153" y="-118" type="curve" smooth="yes"/>
      <point x="153" y="-152"/>
      <point x="95" y="-214"/>
      <point x="58" y="-241" type="curve"/>
      <point x="47" y="-236"/>
      <point x="41" y="-231"/>
      <point x="37" y="-224" type="curve"/>
      <point x="66" y="-197"/>
      <point x="94" y="-164"/>
      <point x="94" y="-139" type="curve" smooth="yes"/>
      <point x="94" y="-110"/>
      <point x="70" y="-82"/>
      <point x="12" y="-87" type="curve"/>
      <point x="6" y="-82"/>
      <point x="1" y="-71"/>
      <point x="-2" y="-64" type="curve"/>
      <point x="25" y="-40"/>
      <point x="43" y="-22"/>
      <point x="69" y="2" type="curve"/>
      <point x="39" y="35"/>
      <point x="25" y="91"/>
      <point x="25" y="131" type="curve" smooth="yes"/>
      <point x="25" y="298"/>
      <point x="127" y="393"/>
      <point x="260" y="393" type="curve" smooth="yes"/>
      <point x="279" y="393"/>
      <point x="303" y="391"/>
    </contour>
  </outline>
</glyph>
